  0
SECTION
  2
HEADER
  9
$ACADVER
  1
AC1015
  9
$ACADMAINTVER
 70
     6
  9
$DWGCODEPAGE
  3
ANSI_1252
  9
$INSBASE
 10
0.0
 20
0.0
 30
0.0
  9
$EXTMIN
 10
-481.4739140315
 20
-267.0000000201
 30
0.0
  9
$EXTMAX
 10
481.4739140315
 20
-16.9889108368
 30
0.0
  9
$LIMMIN
 10
0.0
 20
0.0
  9
$LIMMAX
 10
420.0
 20
297.0
  9
$ORTHOMODE
 70
     0
  9
$REGENMODE
 70
     1
  9
$FILLMODE
 70
     1
  9
$QTEXTMODE
 70
     0
  9
$MIRRTEXT
 70
     1
  9
$LTSCALE
 40
1.0
  9
$ATTMODE
 70
     1
  9
$TEXTSIZE
 40
6.35
  9
$TRACEWID
 40
1.0
  9
$TEXTSTYLE
  7
Standard
  9
$CLAYER
  8
0
  9
$CELTYPE
  6
ByLayer
  9
$CECOLOR
 62
   256
  9
$CELTSCALE
 40
1.0
  9
$DISPSILH
 70
     0
  9
$DIMSCALE
 40
1.0
  9
$DIMASZ
 40
5.9944
  9
$DIMEXO
 40
0.0
  9
$DIMDLI
 40
3.75
  9
$DIMRND
 40
0.0
  9
$DIMDLE
 40
0.0
  9
$DIMEXE
 40
0.9906
  9
$DIMTP
 40
0.0
  9
$DIMTM
 40
0.0
  9
$DIMTXT
 40
6.35
  9
$DIMCEN
 40
2.5
  9
$DIMTSZ
 40
0.0
  9
$DIMTOL
 70
     0
  9
$DIMLIM
 70
     0
  9
$DIMTIH
 70
     1
  9
$DIMTOH
 70
     1
  9
$DIMSE1
 70
     0
  9
$DIMSE2
 70
     0
  9
$DIMTAD
 70
     1
  9
$DIMZIN
 70
     1
  9
$DIMBLK
  1

  9
$DIMASO
 70
     1
  9
$DIMSHO
 70
     1
  9
$DIMPOST
  1

  9
$DIMAPOST
  1

  9
$DIMALT
 70
     0
  9
$DIMALTD
 70
     3
  9
$DIMALTF
 40
0.0393700787
  9
$DIMLFAC
 40
1.0
  9
$DIMTOFL
 70
     1
  9
$DIMTVP
 40
0.0
  9
$DIMTIX
 70
     0
  9
$DIMSOXD
 70
     0
  9
$DIMSAH
 70
     0
  9
$DIMBLK1
  1

  9
$DIMBLK2
  1

  9
$DIMSTYLE
  2
ISO-25
  9
$DIMCLRD
 70
     0
  9
$DIMCLRE
 70
     0
  9
$DIMCLRT
 70
     0
  9
$DIMTFAC
 40
1.0
  9
$DIMGAP
 40
1.524
  9
$DIMJUST
 70
     0
  9
$DIMSD1
 70
     0
  9
$DIMSD2
 70
     0
  9
$DIMTOLJ
 70
     0
  9
$DIMTZIN
 70
     1
  9
$DIMALTZ
 70
     0
  9
$DIMALTTZ
 70
     0
  9
$DIMUPT
 70
     0
  9
$DIMDEC
 70
     2
  9
$DIMTDEC
 70
     2
  9
$DIMALTU
 70
     2
  9
$DIMALTTD
 70
     3
  9
$DIMTXSTY
  7
Standard
  9
$DIMAUNIT
 70
     0
  9
$DIMADEC
 70
     2
  9
$DIMALTRND
 40
0.0
  9
$DIMAZIN
 70
     0
  9
$DIMDSEP
 70
    44
  9
$DIMATFIT
 70
     3
  9
$DIMFRAC
 70
     0
  9
$DIMLDRBLK
  1

  9
$DIMLUNIT
 70
     2
  9
$DIMLWD
 70
    -2
  9
$DIMLWE
 70
    -2
  9
$DIMTMOVE
 70
     0
  9
$LUNITS
 70
     2
  9
$LUPREC
 70
     2
  9
$SKETCHINC
 40
1.0
  9
$FILLETRAD
 40
0.0
  9
$AUNITS
 70
     0
  9
$AUPREC
 70
     2
  9
$MENU
  1
.
  9
$ELEVATION
 40
0.0
  9
$PELEVATION
 40
0.0
  9
$THICKNESS
 40
0.0
  9
$LIMCHECK
 70
     0
  9
$CHAMFERA
 40
0.0
  9
$CHAMFERB
 40
0.0
  9
$CHAMFERC
 40
0.0
  9
$CHAMFERD
 40
0.0
  9
$SKPOLY
 70
     0
  9
$TDCREATE
 40
2459896.720394792
  9
$TDUCREATE
 40
2459897.053728125
  9
$TDUPDATE
 40
2459896.720503183
  9
$TDUUPDATE
 40
2459897.053836516
  9
$TDINDWG
 40
0.0000000116
  9
$TDUSRTIMER
 40
0.0000000116
  9
$USRTIMER
 70
     1
  9
$ANGBASE
 50
0.0
  9
$ANGDIR
 70
     0
  9
$PDMODE
 70
     0
  9
$PDSIZE
 40
-1.0
  9
$PLINEWID
 40
0.0
  9
$SPLFRAME
 70
     0
  9
$SPLINETYPE
 70
     6
  9
$SPLINESEGS
 70
     8
  9
$HANDSEED
  5
150
  9
$SURFTAB1
 70
     6
  9
$SURFTAB2
 70
     6
  9
$SURFTYPE
 70
     6
  9
$SURFU
 70
     6
  9
$SURFV
 70
     6
  9
$UCSBASE
  2

  9
$UCSNAME
  2

  9
$UCSORG
 10
0.0
 20
0.0
 30
0.0
  9
$UCSXDIR
 10
1.0
 20
0.0
 30
0.0
  9
$UCSYDIR
 10
0.0
 20
1.0
 30
0.0
  9
$UCSORTHOREF
  2

  9
$UCSORTHOVIEW
 70
     0
  9
$UCSORGTOP
 10
0.0
 20
0.0
 30
0.0
  9
$UCSORGBOTTOM
 10
0.0
 20
0.0
 30
0.0
  9
$UCSORGLEFT
 10
0.0
 20
0.0
 30
0.0
  9
$UCSORGRIGHT
 10
0.0
 20
0.0
 30
0.0
  9
$UCSORGFRONT
 10
0.0
 20
0.0
 30
0.0
  9
$UCSORGBACK
 10
0.0
 20
0.0
 30
0.0
  9
$PUCSBASE
  2

  9
$PUCSNAME
  2

  9
$PUCSORG
 10
0.0
 20
0.0
 30
0.0
  9
$PUCSXDIR
 10
1.0
 20
0.0
 30
0.0
  9
$PUCSYDIR
 10
0.0
 20
1.0
 30
0.0
  9
$PUCSORTHOREF
  2

  9
$PUCSORTHOVIEW
 70
     0
  9
$PUCSORGTOP
 10
0.0
 20
0.0
 30
0.0
  9
$PUCSORGBOTTOM
 10
0.0
 20
0.0
 30
0.0
  9
$PUCSORGLEFT
 10
0.0
 20
0.0
 30
0.0
  9
$PUCSORGRIGHT
 10
0.0
 20
0.0
 30
0.0
  9
$PUCSORGFRONT
 10
0.0
 20
0.0
 30
0.0
  9
$PUCSORGBACK
 10
0.0
 20
0.0
 30
0.0
  9
$USERI1
 70
     0
  9
$USERI2
 70
     0
  9
$USERI3
 70
     0
  9
$USERI4
 70
     0
  9
$USERI5
 70
     0
  9
$USERR1
 40
0.0
  9
$USERR2
 40
0.0
  9
$USERR3
 40
0.0
  9
$USERR4
 40
0.0
  9
$USERR5
 40
0.0
  9
$WORLDVIEW
 70
     1
  9
$SHADEDGE
 70
     3
  9
$SHADEDIF
 70
    70
  9
$TILEMODE
 70
     1
  9
$MAXACTVP
 70
    64
  9
$PINSBASE
 10
0.0
 20
0.0
 30
0.0
  9
$PLIMCHECK
 70
     0
  9
$PEXTMIN
 10
1.0000000000E+20
 20
1.0000000000E+20
 30
1.0000000000E+20
  9
$PEXTMAX
 10
-1.0000000000E+20
 20
-1.0000000000E+20
 30
-1.0000000000E+20
  9
$PLIMMIN
 10
0.0
 20
0.0
  9
$PLIMMAX
 10
420.0
 20
297.0
  9
$UNITMODE
 70
     0
  9
$VISRETAIN
 70
     1
  9
$PLINEGEN
 70
     0
  9
$PSLTSCALE
 70
     1
  9
$TREEDEPTH
 70
  3020
  9
$CMLSTYLE
  2
Standard
  9
$CMLJUST
 70
     0
  9
$CMLSCALE
 40
20.0
  9
$PROXYGRAPHICS
 70
     1
  9
$MEASUREMENT
 70
     1
  9
$CELWEIGHT
370
    -1
  9
$ENDCAPS
280
     0
  9
$JOINSTYLE
280
     0
  9
$LWDISPLAY
290
     1
  9
$INSUNITS
 70
     4
  9
$HYPERLINKBASE
  1

  9
$STYLESHEET
  1

  9
$XEDIT
290
     1
  9
$CEPSNTYPE
380
     0
  9
$PSTYLEMODE
290
     1
  9
$FINGERPRINTGUID
  2
{597716f4-d856-49d8-ad39-4e38e2dbc62f}
  9
$VERSIONGUID
  2
{FAEB1C32-E019-11D5-929B-00C0DF256EC4}
  9
$EXTNAMES
290
     1
  9
$PSVPSCALE
 40
0.0
  9
$OLESTARTUP
290
     0
  0
ENDSEC
  0
SECTION
  2
CLASSES
  0
CLASS
  1
ACDBDICTIONARYWDFLT
  2
AcDbDictionaryWithDefault
  3
ObjectDBX Classes
 90
        0
280
     0
281
     0
  0
CLASS
  1
VISUALSTYLE
  2
AcDbVisualStyle
  3
ObjectDBX Classes
 90
     4095
280
     0
281
     0
  0
CLASS
  1
MATERIAL
  2
AcDbMaterial
  3
ObjectDBX Classes
 90
     1153
280
     0
281
     0
  0
CLASS
  1
SCALE
  2
AcDbScale
  3
ObjectDBX Classes
 90
     1153
280
     0
281
     0
  0
CLASS
  1
TABLESTYLE
  2
AcDbTableStyle
  3
ObjectDBX Classes
 90
     4095
280
     0
281
     0
  0
CLASS
  1
MLEADERSTYLE
  2
AcDbMLeaderStyle
  3
ACDB_MLEADERSTYLE_CLASS
 90
     4095
280
     0
281
     0
  0
CLASS
  1
SUN
  2
AcDbSun
  3
SCENEOE
 90
     1153
280
     0
281
     0
  0
CLASS
  1
ACDBPLACEHOLDER
  2
AcDbPlaceHolder
  3
ObjectDBX Classes
 90
        0
280
     0
281
     0
  0
CLASS
  1
LAYOUT
  2
AcDbLayout
  3
ObjectDBX Classes
 90
        0
280
     0
281
     0
  0
ENDSEC
  0
SECTION
  2
TABLES
  0
TABLE
  2
VPORT
  5
8
330
0
100
AcDbSymbolTable
 70
     1
  0
VPORT
  5
29
330
8
100
AcDbSymbolTableRecord
100
AcDbViewportTableRecord
  2
*Active
 70
     0
 10
0.0
 20
0.0
 11
1.0
 21
1.0
 12
0.0
 22
-141.9944554284
 13
0.0
 23
0.0
 14
10.0
 24
10.0
 15
10.0
 25
10.0
 16
0.0
 26
0.0
 36
1.0
 17
0.0
 27
0.0
 37
0.0
 40
255.0113109669
 41
3.851620467
 42
50.0
 43
0.0
 44
0.0
 50
0.0
 51
0.0
 71
     0
 72
   100
 73
     1
 74
     3
 75
     0
 76
     0
 77
     0
 78
     0
281
     0
 65
     1
110
0.0
120
0.0
130
0.0
111
1.0
121
0.0
131
0.0
112
0.0
122
1.0
132
0.0
 79
     0
146
0.0
  0
ENDTAB
  0
TABLE
  2
LTYPE
  5
5
330
0
100
AcDbSymbolTable
 70
     6
  0
LTYPE
  5
14
330
5
100
AcDbSymbolTableRecord
100
AcDbLinetypeTableRecord
  2
ByBlock
 70
     0
  3

 72
    65
 73
     0
 40
0.0
  0
LTYPE
  5
15
330
5
100
AcDbSymbolTableRecord
100
AcDbLinetypeTableRecord
  2
ByLayer
 70
     0
  3

 72
    65
 73
     0
 40
0.0
  0
LTYPE
  5
16
330
5
100
AcDbSymbolTableRecord
100
AcDbLinetypeTableRecord
  2
Continuous
 70
     0
  3
Solid line
 72
    65
 73
     0
 40
0.0
  0
LTYPE
  5
5E
330
5
100
AcDbSymbolTableRecord
100
AcDbLinetypeTableRecord
  2
HIDDEN
 70
     0
  3
Hidden __ __ __ __ __ __ __ __ __ __ __ __ __ __
 72
    65
 73
     2
 40
1.905
 49
1.27
 74
     0
 49
-0.635
 74
     0
  0
LTYPE
  5
5F
330
5
100
AcDbSymbolTableRecord
100
AcDbLinetypeTableRecord
  2
PHANTOM
 70
     0
  3
Phantom ______  __  __  ______  __  __  ______
 72
    65
 73
     6
 40
12.7
 49
6.35
 74
     0
 49
-1.27
 74
     0
 49
1.27
 74
     0
 49
-1.27
 74
     0
 49
1.27
 74
     0
 49
-1.27
 74
     0
  0
LTYPE
  5
60
330
5
100
AcDbSymbolTableRecord
100
AcDbLinetypeTableRecord
  2
CENTER
 70
     0
  3
Center ____ _ ____ _ ____ _ ____ _ ____ _ ____
 72
    65
 73
     4
 40
10.16
 49
6.35
 74
     0
 49
-1.27
 74
     0
 49
1.27
 74
     0
 49
-1.27
 74
     0
  0
LTYPE
  5
61
330
5
100
AcDbSymbolTableRecord
100
AcDbLinetypeTableRecord
  2
CENTERX2
 70
     0
  3
Center (2x) ________  __  ________  __  _____
 72
    65
 73
     4
 40
20.32
 49
12.7
 74
     0
 49
-2.54
 74
     0
 49
2.54
 74
     0
 49
-2.54
 74
     0
  0
LTYPE
  5
62
330
5
100
AcDbSymbolTableRecord
100
AcDbLinetypeTableRecord
  2
DOT2
 70
     0
  3
Dot (.5x) ........................................
 72
    65
 73
     2
 40
0.635
 49
0.0
 74
     0
 49
-0.635
 74
     0
  0
ENDTAB
  0
TABLE
  2
LAYER
  5
2
330
0
100
AcDbSymbolTable
 70
     3
  0
LAYER
  5
10
330
2
100
AcDbSymbolTableRecord
100
AcDbLayerTableRecord
  2
0
 70
     0
 62
     7
  6
Continuous
370
    -3
390
F
  0
LAYER
  5
63
330
2
100
AcDbSymbolTableRecord
100
AcDbLayerTableRecord
  2
1
 70
     0
 62
     1
  6
Continuous
370
    -3
390
F
  0
LAYER
  5
64
330
2
100
AcDbSymbolTableRecord
100
AcDbLayerTableRecord
  2
2
 70
     0
 62
     5
  6
Continuous
370
    -3
390
F
  0
ENDTAB
  0
TABLE
  2
STYLE
  5
3
330
0
100
AcDbSymbolTable
 70
     2
  0
STYLE
  5
11
330
3
100
AcDbSymbolTableRecord
100
AcDbTextStyleTableRecord
  2
Standard
 70
     0
 40
0.0
 41
1.0
 50
0.0
 71
     0
 42
6.35
  3
txt
  4

  0
STYLE
  5
14C
330
3
100
AcDbSymbolTableRecord
100
AcDbTextStyleTableRecord
  2
SLDTEXTSTYLE0
 70
     0
 40
0.0
 41
0.7
 50
0.0
 71
     0
 42
6.35
  3
TXT
  4

  0
ENDTAB
  0
TABLE
  2
VIEW
  5
6
330
0
100
AcDbSymbolTable
 70
     0
  0
ENDTAB
  0
TABLE
  2
UCS
  5
7
330
0
100
AcDbSymbolTable
 70
     0
  0
ENDTAB
  0
TABLE
  2
APPID
  5
9
330
0
100
AcDbSymbolTable
 70
     1
  0
APPID
  5
12
330
9
100
AcDbSymbolTableRecord
100
AcDbRegAppTableRecord
  2
ACAD
 70
     0
  0
ENDTAB
  0
TABLE
  2
DIMSTYLE
  5
A
330
0
100
AcDbSymbolTable
 70
     1
100
AcDbDimStyleTable
  0
DIMSTYLE
105
27
330
A
100
AcDbSymbolTableRecord
100
AcDbDimStyleTableRecord
  2
ISO-25
 70
     0
 41
2.5
 42
0.625
 43
3.75
 44
1.25
 73
     0
 74
     0
 77
     1
 78
     8
140
2.5
141
2.5
143
0.0393700787
147
0.625
171
     3
172
     1
178
     0
271
     2
272
     2
274
     3
278
    44
283
     0
284
     8
340
11
  0
ENDTAB
  0
TABLE
  2
BLOCK_RECORD
  5
1
330
0
100
AcDbSymbolTable
 70
     1
  0
BLOCK_RECORD
  5
1F
330
1
100
AcDbSymbolTableRecord
100
AcDbBlockTableRecord
  2
*Model_Space
340
22
  0
BLOCK_RECORD
  5
1B
330
1
100
AcDbSymbolTableRecord
100
AcDbBlockTableRecord
  2
*Paper_Space
340
1E
  0
BLOCK_RECORD
  5
23
330
1
100
AcDbSymbolTableRecord
100
AcDbBlockTableRecord
  2
*Paper_Space0
340
26
  0
ENDTAB
  0
ENDSEC
  0
SECTION
  2
BLOCKS
  0
BLOCK
  5
20
330
1F
100
AcDbEntity
  8
0
100
AcDbBlockBegin
  2
*Model_Space
 70
     0
 10
0.0
 20
0.0
 30
0.0
  3
*Model_Space
  1

  0
ENDBLK
  5
21
330
1F
100
AcDbEntity
  8
0
100
AcDbBlockEnd
  0
BLOCK
  5
1C
330
1B
100
AcDbEntity
 67
     1
  8
0
100
AcDbBlockBegin
  2
*Paper_Space
 70
     0
 10
0.0
 20
0.0
 30
0.0
  3
*Paper_Space
  1

  0
ENDBLK
  5
1D
330
1B
100
AcDbEntity
 67
     1
  8
0
100
AcDbBlockEnd
  0
BLOCK
  5
24
330
23
100
AcDbEntity
  8
0
100
AcDbBlockBegin
  2
*Paper_Space0
 70
     0
 10
0.0
 20
0.0
 30
0.0
  3
*Paper_Space0
  1

  0
ENDBLK
  5
25
330
23
100
AcDbEntity
  8
0
100
AcDbBlockEnd
  0
ENDSEC
  0
SECTION
  2
ENTITIES
  0
CIRCLE
  5
65
330
1F
100
AcDbEntity
  8
0
100
AcDbCircle
 10
0.0
 20
-76.3947215748
 30
0.0
 40
1.63194999999999
  0
CIRCLE
  5
66
330
1F
100
AcDbEntity
  8
0
100
AcDbCircle
 10
-25.0
 20
-76.3947215748
 30
0.0
 40
1.631949999999993
  0
CIRCLE
  5
67
330
1F
100
AcDbEntity
  8
0
100
AcDbCircle
 10
-50.0
 20
-76.3947215748
 30
0.0
 40
1.631949999999996
  0
CIRCLE
  5
68
330
1F
100
AcDbEntity
  8
0
100
AcDbCircle
 10
-75.0
 20
-76.3947215748
 30
0.0
 40
1.631949999999989
  0
CIRCLE
  5
69
330
1F
100
AcDbEntity
  8
0
100
AcDbCircle
 10
25.0
 20
-76.3947215748
 30
0.0
 40
1.631949999999989
  0
CIRCLE
  5
6A
330
1F
100
AcDbEntity
  8
0
100
AcDbCircle
 10
50.0
 20
-76.3947215748
 30
0.0
 40
1.631949999999989
  0
CIRCLE
  5
6B
330
1F
100
AcDbEntity
  8
0
100
AcDbCircle
 10
75.0
 20
-76.3947215748
 30
0.0
 40
1.631950000000003
  0
CIRCLE
  5
6C
330
1F
100
AcDbEntity
  8
0
100
AcDbCircle
 10
304.8
 20
-263.6716503117
 30
0.0
 40
1.841499999999996
  0
CIRCLE
  5
6D
330
1F
100
AcDbEntity
  8
0
100
AcDbCircle
 10
244.8
 20
-263.6716503117
 30
0.0
 40
1.841499999999996
  0
CIRCLE
  5
6E
330
1F
100
AcDbEntity
  8
0
100
AcDbCircle
 10
184.8
 20
-263.6716503117
 30
0.0
 40
1.841499999999996
  0
CIRCLE
  5
6F
330
1F
100
AcDbEntity
  8
0
100
AcDbCircle
 10
120.0
 20
-263.6716503117
 30
0.0
 40
1.841499999999996
  0
CIRCLE
  5
70
330
1F
100
AcDbEntity
  8
0
100
AcDbCircle
 10
60.0
 20
-263.6716503117
 30
0.0
 40
1.841499999999996
  0
CIRCLE
  5
71
330
1F
100
AcDbEntity
  8
0
100
AcDbCircle
 10
0.0
 20
-263.6716503117
 30
0.0
 40
1.841499999957171
  0
CIRCLE
  5
72
330
1F
100
AcDbEntity
  8
0
100
AcDbCircle
 10
-60.0
 20
-263.6716503117
 30
0.0
 40
1.841499999999996
  0
CIRCLE
  5
73
330
1F
100
AcDbEntity
  8
0
100
AcDbCircle
 10
-120.0
 20
-263.6716503117
 30
0.0
 40
1.841499999999996
  0
CIRCLE
  5
74
330
1F
100
AcDbEntity
  8
0
100
AcDbCircle
 10
-424.8
 20
-263.6716503117
 30
0.0
 40
1.841499999999996
  0
CIRCLE
  5
75
330
1F
100
AcDbEntity
  8
0
100
AcDbCircle
 10
-110.0265879321
 20
-255.0714503117
 30
0.0
 40
3.0
  0
CIRCLE
  5
76
330
1F
100
AcDbEntity
  8
0
100
AcDbCircle
 10
-147.0265879321
 20
-255.0714503117
 30
0.0
 40
3.0
  0
CIRCLE
  5
77
330
1F
100
AcDbEntity
  8
0
100
AcDbCircle
 10
203.7896
 20
-190.347653975
 30
0.0
 40
4.673599999999993
  0
CIRCLE
  5
78
330
1F
100
AcDbEntity
  8
0
100
AcDbCircle
 10
-364.8
 20
-263.6716503117
 30
0.0
 40
1.841499999999996
  0
CIRCLE
  5
79
330
1F
100
AcDbEntity
  8
0
100
AcDbCircle
 10
-304.8
 20
-263.6716503117
 30
0.0
 40
1.841499999999996
  0
CIRCLE
  5
7A
330
1F
100
AcDbEntity
  8
0
100
AcDbCircle
 10
-244.8
 20
-263.6716503117
 30
0.0
 40
1.841499999999996
  0
CIRCLE
  5
7B
330
1F
100
AcDbEntity
  8
0
100
AcDbCircle
 10
-184.8
 20
-263.6716503117
 30
0.0
 40
1.841499999999996
  0
CIRCLE
  5
7C
330
1F
100
AcDbEntity
  8
0
100
AcDbCircle
 10
-287.6086980171
 20
-232.8692084917
 30
0.0
 40
2.381250000000023
  0
CIRCLE
  5
7D
330
1F
100
AcDbEntity
  8
0
100
AcDbCircle
 10
-287.6086980171
 20
-194.7692084917
 30
0.0
 40
2.381250000000023
  0
CIRCLE
  5
7E
330
1F
100
AcDbEntity
  8
0
100
AcDbCircle
 10
-372.9984680828
 20
-168.1851551857
 30
0.0
 40
2.381250000000023
  0
CIRCLE
  5
7F
330
1F
100
AcDbEntity
  8
0
100
AcDbCircle
 10
-257.2884680828
 20
-168.1851551857
 30
0.0
 40
2.381250000000023
  0
CIRCLE
  5
80
330
1F
100
AcDbEntity
  8
0
100
AcDbCircle
 10
-315.1434680828
 20
-168.1851551857
 30
0.0
 40
2.381249999999966
  0
CIRCLE
  5
81
330
1F
100
AcDbEntity
  8
0
100
AcDbCircle
 10
-194.836
 20
-171.2927034562
 30
0.0
 40
2.381249999999994
  0
CIRCLE
  5
82
330
1F
100
AcDbEntity
  8
0
100
AcDbCircle
 10
-118.636
 20
-171.2927034562
 30
0.0
 40
2.381249999999994
  0
CIRCLE
  5
83
330
1F
100
AcDbEntity
  8
0
100
AcDbCircle
 10
-118.636
 20
-53.1846011856
 30
0.0
 40
2.381250000000009
  0
CIRCLE
  5
84
330
1F
100
AcDbEntity
  8
0
100
AcDbCircle
 10
364.8
 20
-263.6716503117
 30
0.0
 40
1.841499999999996
  0
CIRCLE
  5
85
330
1F
100
AcDbEntity
  8
0
100
AcDbCircle
 10
424.8
 20
-263.6716503117
 30
0.0
 40
1.841499999999996
  0
CIRCLE
  5
86
330
1F
100
AcDbEntity
  8
0
100
AcDbCircle
 10
-297.435
 20
-117.0321053607
 30
0.0
 40
2.381249999999966
  0
CIRCLE
  5
87
330
1F
100
AcDbEntity
  8
0
100
AcDbCircle
 10
-297.435
 20
-86.4792886953
 30
0.0
 40
2.381249999999966
  0
CIRCLE
  5
88
330
1F
100
AcDbEntity
  8
0
100
AcDbCircle
 10
396.75
 20
-126.6915215748
 30
0.0
 40
2.381250000000023
  0
CIRCLE
  5
89
330
1F
100
AcDbEntity
  8
0
100
AcDbCircle
 10
396.75
 20
-66.9507215748
 30
0.0
 40
2.381250000000023
  0
CIRCLE
  5
8A
330
1F
100
AcDbEntity
  8
0
100
AcDbCircle
 10
-103.4586980171
 20
-194.7692084917
 30
0.0
 40
2.381249999999994
  0
CIRCLE
  5
8B
330
1F
100
AcDbEntity
  8
0
100
AcDbCircle
 10
-103.4586980171
 20
-232.8692084917
 30
0.0
 40
2.381249999999994
  0
CIRCLE
  5
8C
330
1F
100
AcDbEntity
  8
0
100
AcDbCircle
 10
131.9076
 20
-190.347653975
 30
0.0
 40
4.673599999999993
  0
CIRCLE
  5
8D
330
1F
100
AcDbEntity
  8
0
100
AcDbCircle
 10
131.9076
 20
-225.347653975
 30
0.0
 40
4.673599999999993
  0
CIRCLE
  5
8E
330
1F
100
AcDbEntity
  8
0
100
AcDbCircle
 10
203.7896
 20
-225.347653975
 30
0.0
 40
4.673599999999993
  0
CIRCLE
  5
8F
330
1F
100
AcDbEntity
  8
0
100
AcDbCircle
 10
-194.836
 20
-53.1846011856
 30
0.0
 40
2.381249999999994
  0
LINE
  5
90
330
1F
100
AcDbEntity
  8
0
100
AcDbLine
 10
-44.3858826375
 20
-16.9949829688
 30
0.0
 11
-44.3858826375
 21
-36.9379863125
 31
0.0
  0
ARC
  5
91
330
1F
100
AcDbEntity
  8
0
100
AcDbCircle
 10
-34.3858826375
 20
-36.9379863125
 30
0.0
 40
10.0
100
AcDbArc
 50
180.0
 51
270.0
  0
LINE
  5
92
330
1F
100
AcDbEntity
  8
0
100
AcDbLine
 10
-34.3858826375
 20
-46.9379863125
 30
0.0
 11
-18.023420917
 21
-46.9379863125
 31
0.0
  0
ARC
  5
93
330
1F
100
AcDbEntity
  8
0
100
AcDbCircle
 10
-18.023420917
 20
-36.9379863125
 30
0.0
 40
10.0
100
AcDbArc
 50
270.0
 51
0.0
  0
LINE
  5
94
330
1F
100
AcDbEntity
  8
0
100
AcDbLine
 10
-8.023420917
 20
-36.9379863125
 30
0.0
 11
-8.023420917
 21
-16.9977335502
 31
0.0
  0
SPLINE
  5
95
330
1F
100
AcDbEntity
  8
0
100
AcDbSpline
210
0.0
220
0.0
230
1.0
 70
     8
 71
     3
 72
     9
 73
     5
 74
     0
 42
0.00000001
 43
0.00000001
 40
0.0
 40
0.0
 40
0.0
 40
0.0
 40
0.0078125086516709
 40
0.0108292770250466
 40
0.0108292770250466
 40
0.0108292770250466
 40
0.0108292770250466
 10
0.0000000000089028
 20
-17.00000002006265
 30
0.0
 10
-1.93309501603205
 20
-16.99990610443012
 30
0.0
 10
-4.623249363909284
 20
-16.99920554020999
 30
0.0
 10
-7.284010012742114
 20
-16.99807310078782
 30
0.0
 10
-8.0234209170306
 20
-16.99773355015303
 30
0.0
  0
SPLINE
  5
96
330
1F
100
AcDbEntity
  8
0
100
AcDbSpline
210
0.0
220
0.0
230
1.0
 70
     8
 71
     3
 72
    18
 73
    14
 74
     0
 42
0.00000001
 43
0.00000001
 40
0.7073470988633488
 40
0.7073470988633488
 40
0.7073470988633488
 40
0.7073470988633488
 40
0.7500008305603969
 40
0.8125008997737633
 40
0.8437509343804466
 40
0.8750009689871298
 40
0.9062510035938129
 40
0.9375010382004962
 40
0.9531260555038379
 40
0.9687510728071794
 40
0.984376090110521
 40
0.9921885987621918
 40
1.000001107413863
 40
1.000001107413863
 40
1.000001107413863
 40
1.000001107413863
 10
215.9999999999993
 20
-20.36366299565979
 30
0.0
 10
205.4249706775177
 20
-19.79104200736653
 30
0.0
 10
179.0220689732817
 20
-18.64833113458466
 30
0.0
 10
144.464064860462
 20
-17.81658470652203
 30
0.0
 10
113.296292984988
 20
-17.37162362964611
 30
0.0
 10
90.27407801294554
 20
-17.15918089177061
 30
0.0
 10
67.63277585069879
 20
-17.03832347166037
 30
0.0
 10
49.00424106564256
 20
-16.99616939213157
 30
0.0
 10
34.11310306594434
 20
-16.98717356012605
 30
0.0
 10
22.89887535893219
 20
-16.98938699999856
 30
0.0
 10
13.45517437939567
 20
-16.99507550980145
 30
0.0
 10
5.814582961830567
 20
-16.99889529567193
 30
0.0
 10
1.933095016049682
 20
-16.99990610443012
 30
0.0
 10
0.0000000000088165
 20
-17.00000002006265
 30
0.0
  0
LINE
  5
97
330
1F
100
AcDbEntity
  8
0
100
AcDbLine
 10
216.0
 20
-70.4383288731
 30
0.0
 11
216.0
 21
-20.3636629957
 31
0.0
  0
ARC
  5
98
330
1F
100
AcDbEntity
  8
0
100
AcDbCircle
 10
219.0
 20
-70.4383288731
 30
0.0
 40
3.000000000000014
100
AcDbArc
 50
180.0
 51
270.0
  0
LINE
  5
99
330
1F
100
AcDbEntity
  8
0
100
AcDbLine
 10
223.0
 20
-73.4383288731
 30
0.0
 11
219.0
 21
-73.4383288731
 31
0.0
  0
ARC
  5
9A
330
1F
100
AcDbEntity
  8
0
100
AcDbCircle
 10
223.0
 20
-70.4383288731
 30
0.0
 40
3.000000000000028
100
AcDbArc
 50
270.0
 51
0.0
  0
LINE
  5
9B
330
1F
100
AcDbEntity
  8
0
100
AcDbLine
 10
226.0
 20
-20.9411536168
 30
0.0
 11
226.0
 21
-70.4383288731
 31
0.0
  0
SPLINE
  5
9C
330
1F
100
AcDbEntity
  8
0
100
AcDbSpline
210
0.0
220
0.0
230
1.0
 70
     8
 71
     3
 72
    25
 73
    21
 74
     0
 42
0.00000001
 43
0.00000001
 40
0.0
 40
0.0
 40
0.0
 40
0.0
 40
0.0078125086516708
 40
0.0156250173033416
 40
0.0312500346066832
 40
0.0468750519100248
 40
0.0625000692133664
 40
0.0937501038200497
 40
0.1250001384267329
 40
0.156250173033416
 40
0.1875002076400992
 40
0.2500002768534657
 40
0.3125003460668321
 40
0.3750004152801985
 40
0.4375004844935648
 40
0.5000005537069313
 40
0.5625006229202978
 40
0.6250006921336642
 40
0.6875007613470305
 40
0.6938437174282638
 40
0.6938437174282638
 40
0.6938437174282638
 40
0.6938437174282638
 10
481.4739140314571
 20
-134.1023558849895
 30
0.0
 10
481.2746715855931
 20
-133.6818300122863
 30
0.0
 10
480.8715813613938
 20
-132.8566119454213
 30
0.0
 10
479.9842704897953
 20
-131.1362502813602
 30
0.0
 10
478.7574222877176
 20
-128.9245489808632
 30
0.0
 10
477.1019285983281
 20
-126.1699573871589
 30
0.0
 10
474.6714927090994
 20
-122.3875674943275
 30
0.0
 10
471.2447156450098
 20
-117.4776235916745
 30
0.0
 10
466.5822290408371
 20
-111.3580059113516
 30
0.0
 10
461.4009673379349
 20
-105.0584213613258
 30
0.0
 10
453.7896695075371
 20
-96.47942155720129
 30
0.0
 10
442.8667861991423
 20
-85.53215866416605
 30
0.0
 10
426.8545330915895
 20
-72.44094066485604
 30
0.0
 10
407.0016761974922
 20
-59.86128137468878
 30
0.0
 10
382.350071484057
 20
-48.33000592006484
 30
0.0
 10
352.2269690530205
 20
-38.40204959461442
 30
0.0
 10
316.5120303733532
 20
-30.49577488867727
 30
0.0
 10
275.7378168286201
 20
-24.74687813027048
 30
0.0
 10
244.4336497733918
 20
-22.10518345348233
 30
0.0
 10
227.5584715455869
 20
-21.03697576849325
 30
0.0
 10
225.9999999999999
 20
-20.94115361679853
 30
0.0
  0
LINE
  5
9D
330
1F
100
AcDbEntity
  8
0
100
AcDbLine
 10
481.4739140315
 20
-160.614856087
 30
0.0
 11
481.4739140315
 21
-134.102355885
 31
0.0
  0
LINE
  5
9E
330
1F
100
AcDbEntity
  8
0
100
AcDbLine
 10
481.4739140315
 20
-160.614856087
 30
0.0
 11
419.1052650932
 21
-166.7406986987
 31
0.0
  0
ARC
  5
9F
330
1F
100
AcDbEntity
  8
0
100
AcDbCircle
 10
420.0827604127
 20
-176.6928091733
 30
0.0
 40
10.00000000000004
100
AcDbArc
 50
95.6095931842
 51
180.0
  0
LINE
  5
A0
330
1F
100
AcDbEntity
  8
0
100
AcDbLine
 10
410.0827604127
 20
-176.6928091733
 30
0.0
 11
410.0827604127
 21
-221.0000000201
 31
0.0
  0
ARC
  5
A1
330
1F
100
AcDbEntity
  8
0
100
AcDbCircle
 10
413.0827604127
 20
-221.0000000201
 30
0.0
 40
3.0
100
AcDbArc
 50
180.0
 51
270.0
  0
LINE
  5
A2
330
1F
100
AcDbEntity
  8
0
100
AcDbLine
 10
413.0827604127
 20
-224.0000000201
 30
0.0
 11
435.4739140315
 21
-224.0000000201
 31
0.0
  0
LINE
  5
A3
330
1F
100
AcDbEntity
  8
0
100
AcDbLine
 10
435.4739140315
 20
-224.0000000201
 30
0.0
 11
435.4739140315
 21
-267.0000000201
 31
0.0
  0
LINE
  5
A4
330
1F
100
AcDbEntity
  8
0
100
AcDbLine
 10
-435.4739140315
 20
-267.0000000201
 30
0.0
 11
435.4739140315
 21
-267.0000000201
 31
0.0
  0
LINE
  5
A5
330
1F
100
AcDbEntity
  8
0
100
AcDbLine
 10
-435.4739140315
 20
-224.0000000201
 30
0.0
 11
-435.4739140315
 21
-267.0000000201
 31
0.0
  0
LINE
  5
A6
330
1F
100
AcDbEntity
  8
0
100
AcDbLine
 10
-413.0827604127
 20
-224.0000000201
 30
0.0
 11
-435.4739140315
 21
-224.0000000201
 31
0.0
  0
ARC
  5
A7
330
1F
100
AcDbEntity
  8
0
100
AcDbCircle
 10
-413.0827604127
 20
-221.0000000201
 30
0.0
 40
3.0
100
AcDbArc
 50
270.0
 51
0.0
  0
LINE
  5
A8
330
1F
100
AcDbEntity
  8
0
100
AcDbLine
 10
-410.0827604127
 20
-176.6928091733
 30
0.0
 11
-410.0827604127
 21
-221.0000000201
 31
0.0
  0
ARC
  5
A9
330
1F
100
AcDbEntity
  8
0
100
AcDbCircle
 10
-420.0827604127
 20
-176.6928091733
 30
0.0
 40
10.00000000000004
100
AcDbArc
 50
0.0
 51
84.3904068158
  0
LINE
  5
AA
330
1F
100
AcDbEntity
  8
0
100
AcDbLine
 10
-481.4739140315
 20
-160.614856087
 30
0.0
 11
-419.1052650932
 21
-166.7406986987
 31
0.0
  0
LINE
  5
AB
330
1F
100
AcDbEntity
  8
0
100
AcDbLine
 10
-481.4739140315
 20
-134.102355885
 30
0.0
 11
-481.4739140315
 21
-160.614856087
 31
0.0
  0
SPLINE
  5
AC
330
1F
100
AcDbEntity
  8
0
100
AcDbSpline
210
0.0
220
0.0
230
1.0
 70
     8
 71
     3
 72
    25
 73
    21
 74
     0
 42
0.00000001
 43
0.00000001
 40
0.3061573899856228
 40
0.3061573899856228
 40
0.3061573899856228
 40
0.3061573899856228
 40
0.3125003460668394
 40
0.3750004152802073
 40
0.4375004844935753
 40
0.5000005537069432
 40
0.5625006229203111
 40
0.625000692133679
 40
0.6875007613470469
 40
0.7500008305604148
 40
0.8125008997737827
 40
0.8437509343804666
 40
0.8750009689871505
 40
0.9062510035938345
 40
0.9375010382005184
 40
0.9531260555038604
 40
0.9687510728072024
 40
0.9843760901105444
 40
0.9921885987622154
 40
1.000001107413886
 40
1.000001107413886
 40
1.000001107413886
 40
1.000001107413886
 10
-226.0000000000001
 20
-20.94115361679854
 30
0.0
 10
-227.558471545583
 20
-21.03697576849301
 30
0.0
 10
-244.4336497733842
 20
-22.10518345348179
 30
0.0
 10
-275.7378168286096
 20
-24.74687813026934
 30
0.0
 10
-316.5120303733451
 20
-30.49577488867579
 30
0.0
 10
-352.2269690530142
 20
-38.40204959461271
 30
0.0
 10
-382.3500714840522
 20
-48.33000592006295
 30
0.0
 10
-407.0016761974896
 20
-59.86128137468712
 30
0.0
 10
-426.8545330915873
 20
-72.44094066485444
 30
0.0
 10
-442.8667861991412
 20
-85.53215866416487
 30
0.0
 10
-453.7896695075363
 20
-96.47942155720038
 30
0.0
 10
-461.4009673379342
 20
-105.0584213613251
 30
0.0
 10
-466.5822290408363
 20
-111.358005911351
 30
0.0
 10
-471.2447156450098
 20
-117.4776235916742
 30
0.0
 10
-474.6714927090989
 20
-122.3875674943271
 30
0.0
 10
-477.1019285983281
 20
-126.1699573871588
 30
0.0
 10
-478.7574222877175
 20
-128.924548980863
 30
0.0
 10
-479.9842704897948
 20
-131.13625028136
 30
0.0
 10
-480.8715813613944
 20
-132.8566119454213
 30
0.0
 10
-481.2746715855931
 20
-133.6818300122863
 30
0.0
 10
-481.4739140314571
 20
-134.1023558849895
 30
0.0
  0
LINE
  5
AD
330
1F
100
AcDbEntity
  8
0
100
AcDbLine
 10
-226.0
 20
-20.9411536168
 30
0.0
 11
-226.0
 21
-70.4383288731
 31
0.0
  0
ARC
  5
AE
330
1F
100
AcDbEntity
  8
0
100
AcDbCircle
 10
-223.0
 20
-70.4383288731
 30
0.0
 40
3.000000000000028
100
AcDbArc
 50
180.0
 51
270.0
  0
LINE
  5
AF
330
1F
100
AcDbEntity
  8
0
100
AcDbLine
 10
-223.0
 20
-73.4383288731
 30
0.0
 11
-219.0
 21
-73.4383288731
 31
0.0
  0
ARC
  5
B0
330
1F
100
AcDbEntity
  8
0
100
AcDbCircle
 10
-219.0
 20
-70.4383288731
 30
0.0
 40
3.000000000000014
100
AcDbArc
 50
270.0
 51
0.0
  0
LINE
  5
B1
330
1F
100
AcDbEntity
  8
0
100
AcDbLine
 10
-216.0
 20
-70.4383288731
 30
0.0
 11
-216.0
 21
-20.3636629957
 31
0.0
  0
SPLINE
  5
B2
330
1F
100
AcDbEntity
  8
0
100
AcDbSpline
210
0.0
220
0.0
230
1.0
 70
     8
 71
     3
 72
    14
 73
    10
 74
     0
 42
0.00000001
 43
0.00000001
 40
0.0612460670902261
 40
0.0612460670902261
 40
0.0612460670902261
 40
0.0612460670902261
 40
0.0625000692133679
 40
0.0937501038200519
 40
0.1250001384267359
 40
0.1562501730334198
 40
0.1875002076401038
 40
0.2500002768534716
 40
0.2926540085505384
 40
0.2926540085505384
 40
0.2926540085505384
 40
0.2926540085505384
 10
-44.38588263753716
 20
-16.99498296884599
 30
0.0
 10
-44.6847286937499
 20
-16.99530258667155
 30
0.0
 10
-52.43093750997155
 20
-17.00392358407969
 30
0.0
 10
-67.63277585068333
 20
-17.03832347166031
 30
0.0
 10
-90.27407801293035
 20
-17.15918089177051
 30
0.0
 10
-113.2962929849731
 20
-17.37162362964593
 30
0.0
 10
-144.4640648604476
 20
-17.81658470652176
 30
0.0
 10
-179.0220689732725
 20
-18.64833113458433
 30
0.0
 10
-205.4249706775137
 20
-19.79104200736631
 30
0.0
 10
-216.0
 20
-20.36366299565984
 30
0.0
  0
ARC
  5
B3
330
1F
100
AcDbEntity
  8
0
100
AcDbCircle
 10
36.8051009135
 20
-53.3585250397
 30
0.0
 40
5.000000000000007
100
AcDbArc
 50
90.0
 51
180.0
  0
LINE
  5
B4
330
1F
100
AcDbEntity
  8
0
100
AcDbLine
 10
31.8051009135
 20
-53.3585250397
 30
0.0
 11
31.8051009135
 21
-59.3585250397
 31
0.0
  0
ARC
  5
B5
330
1F
100
AcDbEntity
  8
0
100
AcDbCircle
 10
36.8051009135
 20
-59.3585250397
 30
0.0
 40
4.999999999999993
100
AcDbArc
 50
180.0
 51
270.0
  0
LINE
  5
B6
330
1F
100
AcDbEntity
  8
0
100
AcDbLine
 10
36.8051009135
 20
-64.3585250397
 30
0.0
 11
65.8051009135
 21
-64.3585250397
 31
0.0
  0
ARC
  5
B7
330
1F
100
AcDbEntity
  8
0
100
AcDbCircle
 10
65.8051009135
 20
-59.3585250397
 30
0.0
 40
5.000000000000007
100
AcDbArc
 50
270.0
 51
0.0
  0
LINE
  5
B8
330
1F
100
AcDbEntity
  8
0
100
AcDbLine
 10
70.8051009135
 20
-59.3585250397
 30
0.0
 11
70.8051009135
 21
-53.3585250397
 31
0.0
  0
ARC
  5
B9
330
1F
100
AcDbEntity
  8
0
100
AcDbCircle
 10
65.8051009135
 20
-53.3585250397
 30
0.0
 40
5.0
100
AcDbArc
 50
0.0
 51
90.0
  0
LINE
  5
BA
330
1F
100
AcDbEntity
  8
0
100
AcDbLine
 10
65.8051009135
 20
-48.3585250397
 30
0.0
 11
36.8051009135
 21
-48.3585250397
 31
0.0
  0
CIRCLE
  5
BB
330
1F
100
AcDbEntity
  8
0
100
AcDbCircle
 10
-396.2507434258
 20
-137.1480587689
 30
0.0
 40
11.09999999999997
  0
CIRCLE
  5
BC
330
1F
100
AcDbEntity
  8
0
100
AcDbCircle
 10
-359.0506672207
 20
-110.765998335
 30
0.0
 40
11.09999999999997
  0
ARC
  5
BD
330
1F
100
AcDbEntity
  8
0
100
AcDbCircle
 10
403.859529239
 20
-144.0990035811
 30
0.0
 40
5.0
100
AcDbArc
 50
90.0
 51
180.0
  0
LINE
  5
BE
330
1F
100
AcDbEntity
  8
0
100
AcDbLine
 10
398.859529239
 20
-144.0990035811
 30
0.0
 11
398.859529239
 21
-155.0990035811
 31
0.0
  0
ARC
  5
BF
330
1F
100
AcDbEntity
  8
0
100
AcDbCircle
 10
403.859529239
 20
-155.0990035811
 30
0.0
 40
5.0
100
AcDbArc
 50
180.0
 51
270.0
  0
LINE
  5
C0
330
1F
100
AcDbEntity
  8
0
100
AcDbLine
 10
403.859529239
 20
-160.0990035811
 30
0.0
 11
432.859529239
 21
-160.0990035811
 31
0.0
  0
ARC
  5
C1
330
1F
100
AcDbEntity
  8
0
100
AcDbCircle
 10
432.859529239
 20
-155.0990035811
 30
0.0
 40
5.0
100
AcDbArc
 50
270.0
 51
0.0
  0
LINE
  5
C2
330
1F
100
AcDbEntity
  8
0
100
AcDbLine
 10
437.859529239
 20
-155.0990035811
 30
0.0
 11
437.859529239
 21
-144.0990035811
 31
0.0
  0
ARC
  5
C3
330
1F
100
AcDbEntity
  8
0
100
AcDbCircle
 10
432.859529239
 20
-144.0990035811
 30
0.0
 40
5.0
100
AcDbArc
 50
0.0
 51
90.0
  0
LINE
  5
C4
330
1F
100
AcDbEntity
  8
0
100
AcDbLine
 10
432.859529239
 20
-139.0990035811
 30
0.0
 11
403.859529239
 21
-139.0990035811
 31
0.0
  0
ARC
  5
C5
330
1F
100
AcDbEntity
  8
0
100
AcDbCircle
 10
-306.9867656071
 20
-147.1480587689
 30
0.0
 40
5.0
100
AcDbArc
 50
180.0
 51
270.0
  0
LINE
  5
C6
330
1F
100
AcDbEntity
  8
0
100
AcDbLine
 10
-306.9867656071
 20
-152.1480587689
 30
0.0
 11
-228.9104242971
 21
-152.1480587689
 31
0.0
  0
ARC
  5
C7
330
1F
100
AcDbEntity
  8
0
100
AcDbCircle
 10
-228.9104242971
 20
-147.2244000788
 30
0.0
 40
4.923658690016111
100
AcDbArc
 50
270.0
 51
0.0
  0
LINE
  5
C8
330
1F
100
AcDbEntity
  8
0
100
AcDbLine
 10
-223.9867656071
 20
-147.2244000788
 30
0.0
 11
-223.9867656071
 21
-137.1480587689
 31
0.0
  0
ARC
  5
C9
330
1F
100
AcDbEntity
  8
0
100
AcDbCircle
 10
-228.9867656071
 20
-137.1480587689
 30
0.0
 40
5.000000000000057
100
AcDbArc
 50
0.0
 51
90.0
  0
LINE
  5
CA
330
1F
100
AcDbEntity
  8
0
100
AcDbLine
 10
-228.9867656071
 20
-132.1480587689
 30
0.0
 11
-306.9867656071
 21
-132.1480587689
 31
0.0
  0
ARC
  5
CB
330
1F
100
AcDbEntity
  8
0
100
AcDbCircle
 10
-306.9867656071
 20
-137.1480587689
 30
0.0
 40
5.000000000000057
100
AcDbArc
 50
90.0
 51
180.0
  0
LINE
  5
CC
330
1F
100
AcDbEntity
  8
0
100
AcDbLine
 10
-311.9867656071
 20
-137.1480587689
 30
0.0
 11
-311.9867656071
 21
-147.1480587689
 31
0.0
  0
ARC
  5
CD
330
1F
100
AcDbEntity
  8
0
100
AcDbCircle
 10
170.5176681172
 20
-157.1480587689
 30
0.0
 40
5.0
100
AcDbArc
 50
90.0
 51
180.0
  0
LINE
  5
CE
330
1F
100
AcDbEntity
  8
0
100
AcDbLine
 10
170.5176681172
 20
-152.1480587689
 30
0.0
 11
233.5176681172
 21
-152.1480587689
 31
0.0
  0
ARC
  5
CF
330
1F
100
AcDbEntity
  8
0
100
AcDbCircle
 10
233.5176681172
 20
-147.1480587689
 30
0.0
 40
5.0
100
AcDbArc
 50
270.0
 51
0.0
  0
LINE
  5
D0
330
1F
100
AcDbEntity
  8
0
100
AcDbLine
 10
238.5176681172
 20
-147.1480587689
 30
0.0
 11
238.5176681172
 21
-137.1480587689
 31
0.0
  0
ARC
  5
D1
330
1F
100
AcDbEntity
  8
0
100
AcDbCircle
 10
233.5176681172
 20
-137.1480587689
 30
0.0
 40
5.0
100
AcDbArc
 50
0.0
 51
90.0
  0
LINE
  5
D2
330
1F
100
AcDbEntity
  8
0
100
AcDbLine
 10
233.5176681172
 20
-132.1480587689
 30
0.0
 11
134.5176681172
 21
-132.1480587689
 31
0.0
  0
ARC
  5
D3
330
1F
100
AcDbEntity
  8
0
100
AcDbCircle
 10
134.5176681172
 20
-137.1480587689
 30
0.0
 40
5.0
100
AcDbArc
 50
90.0
 51
180.0
  0
LINE
  5
D4
330
1F
100
AcDbEntity
  8
0
100
AcDbLine
 10
129.5176681172
 20
-137.1480587689
 30
0.0
 11
129.5176681172
 21
-165.1480587689
 31
0.0
  0
ARC
  5
D5
330
1F
100
AcDbEntity
  8
0
100
AcDbCircle
 10
134.5176681172
 20
-165.1480587689
 30
0.0
 40
5.0
100
AcDbArc
 50
180.0
 51
270.0
  0
LINE
  5
D6
330
1F
100
AcDbEntity
  8
0
100
AcDbLine
 10
134.5176681172
 20
-170.1480587689
 30
0.0
 11
160.5176681172
 21
-170.1480587689
 31
0.0
  0
ARC
  5
D7
330
1F
100
AcDbEntity
  8
0
100
AcDbCircle
 10
160.5176681172
 20
-165.1480587689
 30
0.0
 40
5.0
100
AcDbArc
 50
270.0
 51
0.0
  0
LINE
  5
D8
330
1F
100
AcDbEntity
  8
0
100
AcDbLine
 10
165.5176681172
 20
-165.1480587689
 30
0.0
 11
165.5176681172
 21
-157.1480587689
 31
0.0
  0
CIRCLE
  5
D9
330
1F
100
AcDbEntity
  8
0
100
AcDbCircle
 10
-359.0506672207
 20
-209.9662015484
 30
0.0
 40
11.09999999999997
  0
CIRCLE
  5
DA
330
1F
100
AcDbEntity
  8
0
100
AcDbCircle
 10
470.4739140315
 20
-134.5817215748
 30
0.0
 40
1.631950000000018
  0
CIRCLE
  5
DB
330
1F
100
AcDbEntity
  8
0
100
AcDbCircle
 10
456.7697766999
 20
-115.1617247895
 30
0.0
 40
1.631950000000018
  0
CIRCLE
  5
DC
330
1F
100
AcDbEntity
  8
0
100
AcDbCircle
 10
440.32772506
 20
-97.2664688342
 30
0.0
 40
1.631949999999961
  0
CIRCLE
  5
DD
330
1F
100
AcDbEntity
  8
0
100
AcDbCircle
 10
421.8812361414
 20
-81.7105719845
 30
0.0
 40
1.631949999999961
  0
CIRCLE
  5
DE
330
1F
100
AcDbEntity
  8
0
100
AcDbCircle
 10
401.4748860555
 20
-68.8266190582
 30
0.0
 40
1.631950000000018
  0
CIRCLE
  5
DF
330
1F
100
AcDbEntity
  8
0
100
AcDbCircle
 10
379.4279971977
 20
-58.5362042819
 30
0.0
 40
1.631949999999961
  0
CIRCLE
  5
E0
330
1F
100
AcDbEntity
  8
0
100
AcDbCircle
 10
356.2012558478
 20
-50.5066035954
 30
0.0
 40
1.631949999999961
  0
CIRCLE
  5
E1
330
1F
100
AcDbEntity
  8
0
100
AcDbCircle
 10
332.1952867148
 20
-44.3263602521
 30
0.0
 40
1.631950000000018
  0
CIRCLE
  5
E2
330
1F
100
AcDbEntity
  8
0
100
AcDbCircle
 10
307.6873000231
 20
-39.6093661654
 30
0.0
 40
1.631950000000018
  0
CIRCLE
  5
E3
330
1F
100
AcDbEntity
  8
0
100
AcDbCircle
 10
282.854675972
 20
-36.038881979
 30
0.0
 40
1.631950000000018
  0
CIRCLE
  5
E4
330
1F
100
AcDbEntity
  8
0
100
AcDbCircle
 10
257.8152863727
 20
-33.3593802263
 30
0.0
 40
1.631949999999961
  0
CIRCLE
  5
E5
330
1F
100
AcDbEntity
  8
0
100
AcDbCircle
 10
232.6358243482
 20
-31.3699816243
 30
0.0
 40
1.631949999999989
  0
CIRCLE
  5
E6
330
1F
100
AcDbEntity
  8
0
100
AcDbCircle
 10
207.3635353874
 20
-29.9137579712
 30
0.0
 40
1.631950000000018
  0
CIRCLE
  5
E7
330
1F
100
AcDbEntity
  8
0
100
AcDbCircle
 10
182.0255009547
 20
-28.8655071135
 30
0.0
 40
1.631949999999989
  0
CIRCLE
  5
E8
330
1F
100
AcDbEntity
  8
0
100
AcDbCircle
 10
156.6425567216
 20
-28.1265724685
 30
0.0
 40
1.631949999999989
  0
CIRCLE
  5
E9
330
1F
100
AcDbEntity
  8
0
100
AcDbCircle
 10
131.2265191994
 20
-27.6216619299
 30
0.0
 40
1.631949999999989
  0
CIRCLE
  5
EA
330
1F
100
AcDbEntity
  8
0
100
AcDbCircle
 10
105.7878204346
 20
-27.2902594554
 30
0.0
 40
1.631949999999989
  0
CIRCLE
  5
EB
330
1F
100
AcDbEntity
  8
0
100
AcDbCircle
 10
80.3338202487
 20
-27.0907753987
 30
0.0
 40
1.631949999999989
  0
CIRCLE
  5
EC
330
1F
100
AcDbEntity
  8
0
100
AcDbCircle
 10
54.8687781592
 20
-26.9928085432
 30
0.0
 40
1.631949999999996
  0
CIRCLE
  5
ED
330
1F
100
AcDbEntity
  8
0
100
AcDbCircle
 10
29.3916621556
 20
-26.9693475962
 30
0.0
 40
1.631949999999989
  0
CIRCLE
  5
EE
330
1F
100
AcDbEntity
  8
0
100
AcDbCircle
 10
3.8935682985
 20
-26.9802074851
 30
0.0
 40
1.63194999999999
  0
CIRCLE
  5
EF
330
1F
100
AcDbEntity
  8
0
100
AcDbCircle
 10
421.01
 20
-246.9507215748
 30
0.0
 40
1.631949999999961
  0
CIRCLE
  5
F0
330
1F
100
AcDbEntity
  8
0
100
AcDbCircle
 10
444.3024129467
 20
-154.2177173261
 30
0.0
 40
1.631950000000018
  0
CIRCLE
  5
F1
330
1F
100
AcDbEntity
  8
0
100
AcDbCircle
 10
400.0827604127
 20
-198.8464045967
 30
0.0
 40
1.631949999999961
  0
CIRCLE
  5
F2
330
1F
100
AcDbEntity
  8
0
100
AcDbCircle
 10
-470.4739140315
 20
-151.614856087
 30
0.0
 40
1.631950000000018
  0
CIRCLE
  5
F3
330
1F
100
AcDbEntity
  8
0
100
AcDbCircle
 10
-444.3024129467
 20
-154.2177173261
 30
0.0
 40
1.631950000000018
  0
CIRCLE
  5
F4
330
1F
100
AcDbEntity
  8
0
100
AcDbCircle
 10
-400.0827604127
 20
-176.6928091733
 30
0.0
 40
1.631950000000018
  0
CIRCLE
  5
F5
330
1F
100
AcDbEntity
  8
0
100
AcDbCircle
 10
-400.0827604127
 20
-198.8464045967
 30
0.0
 40
1.631950000000018
  0
CIRCLE
  5
F6
330
1F
100
AcDbEntity
  8
0
100
AcDbCircle
 10
-400.0827604127
 20
-221.0000000201
 30
0.0
 40
1.631950000000018
  0
CIRCLE
  5
F7
330
1F
100
AcDbEntity
  8
0
100
AcDbCircle
 10
-418.1277697737
 20
-156.788588224
 30
0.0
 40
1.631949999999961
  0
CIRCLE
  5
F8
330
1F
100
AcDbEntity
  8
0
100
AcDbCircle
 10
-3.8935682985
 20
-26.9802074851
 30
0.0
 40
1.631949999999994
  0
CIRCLE
  5
F9
330
1F
100
AcDbEntity
  8
0
100
AcDbCircle
 10
-54.8687781592
 20
-26.9928085432
 30
0.0
 40
1.631949999999989
  0
CIRCLE
  5
FA
330
1F
100
AcDbEntity
  8
0
100
AcDbCircle
 10
-80.3338202487
 20
-27.0907753987
 30
0.0
 40
1.631949999999989
  0
CIRCLE
  5
FB
330
1F
100
AcDbEntity
  8
0
100
AcDbCircle
 10
-105.7878204346
 20
-27.2902594554
 30
0.0
 40
1.631949999999989
  0
CIRCLE
  5
FC
330
1F
100
AcDbEntity
  8
0
100
AcDbCircle
 10
-131.2265191994
 20
-27.6216619299
 30
0.0
 40
1.631949999999989
  0
CIRCLE
  5
FD
330
1F
100
AcDbEntity
  8
0
100
AcDbCircle
 10
-156.6425567216
 20
-28.1265724685
 30
0.0
 40
1.631949999999989
  0
CIRCLE
  5
FE
330
1F
100
AcDbEntity
  8
0
100
AcDbCircle
 10
-182.0255009547
 20
-28.8655071135
 30
0.0
 40
1.631949999999989
  0
CIRCLE
  5
FF
330
1F
100
AcDbEntity
  8
0
100
AcDbCircle
 10
-207.3635353874
 20
-29.9137579712
 30
0.0
 40
1.631949999999989
  0
CIRCLE
  5
100
330
1F
100
AcDbEntity
  8
0
100
AcDbCircle
 10
-232.6358243482
 20
-31.3699816243
 30
0.0
 40
1.631949999999989
  0
CIRCLE
  5
101
330
1F
100
AcDbEntity
  8
0
100
AcDbCircle
 10
-257.8152863727
 20
-33.3593802263
 30
0.0
 40
1.631950000000018
  0
CIRCLE
  5
102
330
1F
100
AcDbEntity
  8
0
100
AcDbCircle
 10
-282.854675972
 20
-36.038881979
 30
0.0
 40
1.631949999999961
  0
CIRCLE
  5
103
330
1F
100
AcDbEntity
  8
0
100
AcDbCircle
 10
-307.6873000231
 20
-39.6093661654
 30
0.0
 40
1.631949999999961
  0
CIRCLE
  5
104
330
1F
100
AcDbEntity
  8
0
100
AcDbCircle
 10
-332.1952867148
 20
-44.3263602521
 30
0.0
 40
1.631950000000018
  0
CIRCLE
  5
105
330
1F
100
AcDbEntity
  8
0
100
AcDbCircle
 10
-356.2012558478
 20
-50.5066035954
 30
0.0
 40
1.631950000000018
  0
CIRCLE
  5
106
330
1F
100
AcDbEntity
  8
0
100
AcDbCircle
 10
-379.4279971977
 20
-58.5362042819
 30
0.0
 40
1.631950000000018
  0
CIRCLE
  5
107
330
1F
100
AcDbEntity
  8
0
100
AcDbCircle
 10
-401.4748860555
 20
-68.8266190582
 30
0.0
 40
1.631949999999961
  0
CIRCLE
  5
108
330
1F
100
AcDbEntity
  8
0
100
AcDbCircle
 10
-421.8812361414
 20
-81.7105719845
 30
0.0
 40
1.631950000000018
  0
CIRCLE
  5
109
330
1F
100
AcDbEntity
  8
0
100
AcDbCircle
 10
-440.32772506
 20
-97.2664688342
 30
0.0
 40
1.631950000000018
  0
CIRCLE
  5
10A
330
1F
100
AcDbEntity
  8
0
100
AcDbCircle
 10
-456.7697766999
 20
-115.1617247895
 30
0.0
 40
1.631950000000018
  0
CIRCLE
  5
10B
330
1F
100
AcDbEntity
  8
0
100
AcDbCircle
 10
-470.4739140315
 20
-134.5817215748
 30
0.0
 40
1.631949999999961
  0
CIRCLE
  5
10C
330
1F
100
AcDbEntity
  8
0
100
AcDbCircle
 10
-391.01
 20
-246.9507215748
 30
0.0
 40
1.631950000000018
  0
CIRCLE
  5
10D
330
1F
100
AcDbEntity
  8
0
100
AcDbCircle
 10
-92.51
 20
-96.9507215748
 30
0.0
 40
2.022499999999994
  0
ARC
  5
10E
330
1F
100
AcDbEntity
  8
0
100
AcDbCircle
 10
78.01
 20
-88.9197215748
 30
0.0
 40
2.999999999999986
100
AcDbArc
 50
0.0
 51
90.0
  0
LINE
  5
10F
330
1F
100
AcDbEntity
  8
0
100
AcDbLine
 10
78.01
 20
-85.9197215748
 30
0.0
 11
-78.01
 21
-85.9197215748
 31
0.0
  0
ARC
  5
110
330
1F
100
AcDbEntity
  8
0
100
AcDbCircle
 10
-78.01
 20
-88.9197215748
 30
0.0
 40
3.0
100
AcDbArc
 50
90.0
 51
180.0
  0
LINE
  5
111
330
1F
100
AcDbEntity
  8
0
100
AcDbLine
 10
-81.01
 20
-88.9197215748
 30
0.0
 11
-81.01
 21
-254.9817215748
 31
0.0
  0
ARC
  5
112
330
1F
100
AcDbEntity
  8
0
100
AcDbCircle
 10
-78.01
 20
-254.9817215748
 30
0.0
 40
3.000000000000014
100
AcDbArc
 50
180.0
 51
270.0
  0
LINE
  5
113
330
1F
100
AcDbEntity
  8
0
100
AcDbLine
 10
-78.01
 20
-257.9817215748
 30
0.0
 11
78.01
 21
-257.9817215748
 31
0.0
  0
ARC
  5
114
330
1F
100
AcDbEntity
  8
0
100
AcDbCircle
 10
78.01
 20
-254.9817215748
 30
0.0
 40
3.0
100
AcDbArc
 50
270.0
 51
0.0
  0
LINE
  5
115
330
1F
100
AcDbEntity
  8
0
100
AcDbLine
 10
81.01
 20
-254.9817215748
 30
0.0
 11
81.01
 21
-88.9197215748
 31
0.0
  0
CIRCLE
  5
116
330
1F
100
AcDbEntity
  8
0
100
AcDbCircle
 10
363.2625859518
 20
-76.0150362558
 30
0.0
 40
1.849999999999966
  0
CIRCLE
  5
117
330
1F
100
AcDbEntity
  8
0
100
AcDbCircle
 10
382.2247541817
 20
-89.0318014461
 30
0.0
 40
1.850000000000023
  0
CIRCLE
  5
118
330
1F
100
AcDbEntity
  8
0
100
AcDbCircle
 10
401.1869224116
 20
-102.0485666365
 30
0.0
 40
1.849999999999909
  0
CIRCLE
  5
119
330
1F
100
AcDbEntity
  8
0
100
AcDbCircle
 10
420.1490906415
 20
-115.0653318268
 30
0.0
 40
1.850000000000023
  0
CIRCLE
  5
11A
330
1F
100
AcDbEntity
  8
0
100
AcDbCircle
 10
439.1112588714
 20
-128.0820970171
 30
0.0
 40
1.849999999999966
  0
CIRCLE
  5
11B
330
1F
100
AcDbEntity
  8
0
100
AcDbCircle
 10
92.51
 20
-186.9507215748
 30
0.0
 40
2.022499999976347
  0
CIRCLE
  5
11C
330
1F
100
AcDbEntity
  8
0
100
AcDbCircle
 10
92.51
 20
-216.9507215748
 30
0.0
 40
2.022499999976347
  0
CIRCLE
  5
11D
330
1F
100
AcDbEntity
  8
0
100
AcDbCircle
 10
92.51
 20
-246.9507215748
 30
0.0
 40
2.022499999976304
  0
CIRCLE
  5
11E
330
1F
100
AcDbEntity
  8
0
100
AcDbCircle
 10
-92.51
 20
-246.9507215748
 30
0.0
 40
2.022499999999994
  0
CIRCLE
  5
11F
330
1F
100
AcDbEntity
  8
0
100
AcDbCircle
 10
-92.51
 20
-216.9507215748
 30
0.0
 40
2.022499999999994
  0
CIRCLE
  5
120
330
1F
100
AcDbEntity
  8
0
100
AcDbCircle
 10
-92.51
 20
-186.9507215748
 30
0.0
 40
2.022499999999994
  0
CIRCLE
  5
121
330
1F
100
AcDbEntity
  8
0
100
AcDbCircle
 10
-92.51
 20
-156.9507215748
 30
0.0
 40
2.02249999999998
  0
CIRCLE
  5
122
330
1F
100
AcDbEntity
  8
0
100
AcDbCircle
 10
-92.51
 20
-126.9507215748
 30
0.0
 40
2.102690021158509
  0
CIRCLE
  5
123
330
1F
100
AcDbEntity
  8
0
100
AcDbCircle
 10
92.51
 20
-156.9507215748
 30
0.0
 40
2.022499999956594
  0
CIRCLE
  5
124
330
1F
100
AcDbEntity
  8
0
100
AcDbCircle
 10
92.51
 20
-126.9507215748
 30
0.0
 40
2.022499999956608
  0
CIRCLE
  5
125
330
1F
100
AcDbEntity
  8
0
100
AcDbCircle
 10
92.51
 20
-96.9507215748
 30
0.0
 40
2.022499999956622
  0
CIRCLE
  5
126
330
1F
100
AcDbEntity
  8
0
100
AcDbCircle
 10
-365.2940305832
 20
-77.4095412219
 30
0.0
 40
1.849999999999966
  0
CIRCLE
  5
127
330
1F
100
AcDbEntity
  8
0
100
AcDbCircle
 10
-384.2561988131
 20
-90.4263064123
 30
0.0
 40
1.849999999999966
  0
CIRCLE
  5
128
330
1F
100
AcDbEntity
  8
0
100
AcDbCircle
 10
-403.218367043
 20
-103.4430716026
 30
0.0
 40
1.850000000000023
  0
CIRCLE
  5
129
330
1F
100
AcDbEntity
  8
0
100
AcDbCircle
 10
-422.1805352729
 20
-116.4598367929
 30
0.0
 40
1.849999999999966
  0
CIRCLE
  5
12A
330
1F
100
AcDbEntity
  8
0
100
AcDbCircle
 10
-441.1427035028
 20
-129.4766019833
 30
0.0
 40
1.849999999999966
  0
CIRCLE
  5
12B
330
1F
100
AcDbEntity
  8
0
100
AcDbCircle
 10
92.51
 20
-66.9507215748
 30
0.0
 40
2.022499999978692
  0
CIRCLE
  5
12C
330
1F
100
AcDbEntity
  8
0
100
AcDbCircle
 10
-254.51
 20
-66.9507215748
 30
0.0
 40
2.022499999978692
  0
CIRCLE
  5
12D
330
1F
100
AcDbEntity
  8
0
100
AcDbCircle
 10
-92.51
 20
-66.9507215748
 30
0.0
 40
2.022499999978706
  0
CIRCLE
  5
12E
330
1F
100
AcDbEntity
  8
0
100
AcDbCircle
 10
-254.51
 20
-156.9507215748
 30
0.0
 40
2.02249999998034
  0
CIRCLE
  5
12F
330
1F
100
AcDbEntity
  8
0
100
AcDbCircle
 10
-254.51
 20
-126.9507215748
 30
0.0
 40
2.022499999980369
  0
CIRCLE
  5
130
330
1F
100
AcDbEntity
  8
0
100
AcDbCircle
 10
-254.51
 20
-96.9507215748
 30
0.0
 40
2.022499999980312
  0
CIRCLE
  5
131
330
1F
100
AcDbEntity
  8
0
100
AcDbCircle
 10
254.51
 20
-66.9507215748
 30
0.0
 40
2.02249999997872
  0
CIRCLE
  5
132
330
1F
100
AcDbEntity
  8
0
100
AcDbCircle
 10
254.51
 20
-96.9507215748
 30
0.0
 40
2.02249999998034
  0
CIRCLE
  5
133
330
1F
100
AcDbEntity
  8
0
100
AcDbCircle
 10
254.51
 20
-126.9507215748
 30
0.0
 40
2.022499999980312
  0
CIRCLE
  5
134
330
1F
100
AcDbEntity
  8
0
100
AcDbCircle
 10
254.51
 20
-156.9507215748
 30
0.0
 40
2.02249999998034
  0
CIRCLE
  5
135
330
1F
100
AcDbEntity
  8
0
100
AcDbCircle
 10
-421.01
 20
-246.9507215748
 30
0.0
 40
1.631949999999961
  0
CIRCLE
  5
136
330
1F
100
AcDbEntity
  8
0
100
AcDbCircle
 10
-361.01
 20
-246.9507215748
 30
0.0
 40
1.631949999999961
  0
CIRCLE
  5
137
330
1F
100
AcDbEntity
  8
0
100
AcDbCircle
 10
-331.01
 20
-246.9507215748
 30
0.0
 40
1.631950000000018
  0
CIRCLE
  5
138
330
1F
100
AcDbEntity
  8
0
100
AcDbCircle
 10
-301.01
 20
-246.9507215748
 30
0.0
 40
1.631949999999961
  0
CIRCLE
  5
139
330
1F
100
AcDbEntity
  8
0
100
AcDbCircle
 10
-271.01
 20
-246.9507215748
 30
0.0
 40
1.631950000000018
  0
CIRCLE
  5
13A
330
1F
100
AcDbEntity
  8
0
100
AcDbCircle
 10
-241.01
 20
-246.9507215748
 30
0.0
 40
1.631949999999989
  0
CIRCLE
  5
13B
330
1F
100
AcDbEntity
  8
0
100
AcDbCircle
 10
-211.01
 20
-246.9507215748
 30
0.0
 40
1.631949999999989
  0
CIRCLE
  5
13C
330
1F
100
AcDbEntity
  8
0
100
AcDbCircle
 10
-181.01
 20
-246.9507215748
 30
0.0
 40
1.631949999999989
  0
CIRCLE
  5
13D
330
1F
100
AcDbEntity
  8
0
100
AcDbCircle
 10
-151.01
 20
-246.9507215748
 30
0.0
 40
1.631949999999989
  0
CIRCLE
  5
13E
330
1F
100
AcDbEntity
  8
0
100
AcDbCircle
 10
-121.01
 20
-246.9507215748
 30
0.0
 40
1.631949999999989
  0
CIRCLE
  5
13F
330
1F
100
AcDbEntity
  8
0
100
AcDbCircle
 10
400.0827604127
 20
-221.0000000201
 30
0.0
 40
1.631949999999961
  0
CIRCLE
  5
140
330
1F
100
AcDbEntity
  8
0
100
AcDbCircle
 10
400.0827604127
 20
-176.6928091733
 30
0.0
 40
1.631949999999961
  0
CIRCLE
  5
141
330
1F
100
AcDbEntity
  8
0
100
AcDbCircle
 10
470.4739140315
 20
-151.614856087
 30
0.0
 40
1.631949999999961
  0
CIRCLE
  5
142
330
1F
100
AcDbEntity
  8
0
100
AcDbCircle
 10
391.01
 20
-246.9507215748
 30
0.0
 40
1.631950000000018
  0
CIRCLE
  5
143
330
1F
100
AcDbEntity
  8
0
100
AcDbCircle
 10
361.01
 20
-246.9507215748
 30
0.0
 40
1.631949999999961
  0
CIRCLE
  5
144
330
1F
100
AcDbEntity
  8
0
100
AcDbCircle
 10
331.01
 20
-246.9507215748
 30
0.0
 40
1.631950000000018
  0
CIRCLE
  5
145
330
1F
100
AcDbEntity
  8
0
100
AcDbCircle
 10
301.01
 20
-246.9507215748
 30
0.0
 40
1.631949999999961
  0
CIRCLE
  5
146
330
1F
100
AcDbEntity
  8
0
100
AcDbCircle
 10
271.01
 20
-246.9507215748
 30
0.0
 40
1.631950000000018
  0
CIRCLE
  5
147
330
1F
100
AcDbEntity
  8
0
100
AcDbCircle
 10
241.01
 20
-246.9507215748
 30
0.0
 40
1.631949999999989
  0
CIRCLE
  5
148
330
1F
100
AcDbEntity
  8
0
100
AcDbCircle
 10
211.01
 20
-246.9507215748
 30
0.0
 40
1.631949999999989
  0
CIRCLE
  5
149
330
1F
100
AcDbEntity
  8
0
100
AcDbCircle
 10
181.01
 20
-246.9507215748
 30
0.0
 40
1.631949999999989
  0
CIRCLE
  5
14A
330
1F
100
AcDbEntity
  8
0
100
AcDbCircle
 10
151.01
 20
-246.9507215748
 30
0.0
 40
1.631949999999989
  0
CIRCLE
  5
14B
330
1F
100
AcDbEntity
  8
0
100
AcDbCircle
 10
121.01
 20
-246.9507215748
 30
0.0
 40
1.631949999999989
  0
MTEXT
  5
14D
330
1F
100
AcDbEntity
  8
0
  6
Continuous
 62
     7
100
AcDbMText
 10
-481.4739140315
 20
-268.0195664117
 30
0.0
 40
4.83362
 41
0.0
 71
     1
 72
     1
  1
SOLIDWORKS Maker Product.
  7
SLDTEXTSTYLE0
 73
     1
 44
1.0
  0
MTEXT
  5
14E
330
1F
100
AcDbEntity
  8
0
  6
Continuous
 62
     7
100
AcDbMText
 10
-481.4739140315
 20
-275.2699964117
 30
0.0
 40
4.83362
 41
0.0
 71
     1
 72
     1
  1
For Personal Use Only.
  7
SLDTEXTSTYLE0
 73
     1
 44
1.0
  0
ENDSEC
  0
SECTION
  2
OBJECTS
  0
DICTIONARY
  5
C
330
0
100
AcDbDictionary
281
     1
  3
ACAD_GROUP
350
D
  3
ACAD_LAYOUT
350
1A
  3
ACAD_MLINESTYLE
350
17
  3
ACAD_PLOTSETTINGS
350
19
  3
ACAD_PLOTSTYLENAME
350
E
  3
ACAD_SCALELIST
350
47
  3
DWGPROPS
350
14F
  0
DICTIONARY
  5
D
102
{ACAD_REACTORS
330
C
102
}
330
C
100
AcDbDictionary
281
     1
  0
DICTIONARY
  5
1A
102
{ACAD_REACTORS
330
C
102
}
330
C
100
AcDbDictionary
281
     1
  3
Layout1
350
1E
  3
Layout2
350
26
  3
Model
350
22
  0
DICTIONARY
  5
17
102
{ACAD_REACTORS
330
C
102
}
330
C
100
AcDbDictionary
281
     1
  3
Standard
350
18
  0
DICTIONARY
  5
19
102
{ACAD_REACTORS
330
C
102
}
330
C
100
AcDbDictionary
281
     1
  0
ACDBDICTIONARYWDFLT
  5
E
102
{ACAD_REACTORS
330
C
102
}
330
C
100
AcDbDictionary
281
     1
  3
Normal
350
F
100
AcDbDictionaryWithDefault
340
F
  0
DICTIONARY
  5
47
102
{ACAD_REACTORS
330
C
102
}
330
C
100
AcDbDictionary
281
     1
  3
A0
350
48
  3
A1
350
49
  3
A2
350
4A
  3
A3
350
4B
  3
A4
350
4C
  3
A5
350
4D
  3
A6
350
4E
  3
A7
350
4F
  3
A8
350
50
  3
A9
350
51
  3
B0
350
52
  3
B1
350
53
  3
B2
350
54
  3
B3
350
55
  3
B4
350
56
  3
B5
350
57
  3
B6
350
58
  0
XRECORD
  5
14F
102
{ACAD_REACTORS
330
C
102
}
330
C
100
AcDbXrecord
280
     1
  1
DWGPROPS COOKIE
  2

  3

  4

  6

  7

  8
george
  9

300
=
301
=
302
=
303
=
304
=
305
=
306
=
307
=
308
=
309
=
 40
0.0
 41
2459897.053728125
 42
2459897.053836516
  1

 90
        0
  0
LAYOUT
  5
1E
102
{ACAD_REACTORS
330
1A
102
}
330
1A
100
AcDbPlotSettings
  1

  2
none_device
  4

  6

 40
0.0
 41
0.0
 42
0.0
 43
0.0
 44
0.0
 45
0.0
 46
0.0
 47
0.0
 48
0.0
 49
0.0
140
0.0
141
0.0
142
1.0
143
1.0
 70
   688
 72
     1
 73
     0
 74
     5
  7

 75
    16
147
1.0
148
0.0
149
0.0
100
AcDbLayout
  1
Layout1
 70
     1
 71
     1
 10
0.0
 20
0.0
 11
420.0
 21
297.0
 12
0.0
 22
0.0
 32
0.0
 14
1.0000000000E+20
 24
1.0000000000E+20
 34
1.0000000000E+20
 15
-1.0000000000E+20
 25
-1.0000000000E+20
 35
-1.0000000000E+20
146
0.0
 13
0.0
 23
0.0
 33
0.0
 16
1.0
 26
0.0
 36
0.0
 17
0.0
 27
1.0
 37
0.0
 76
     0
330
1B
  0
LAYOUT
  5
26
102
{ACAD_REACTORS
330
1A
102
}
330
1A
100
AcDbPlotSettings
  1

  2
none_device
  4

  6

 40
0.0
 41
0.0
 42
0.0
 43
0.0
 44
0.0
 45
0.0
 46
0.0
 47
0.0
 48
0.0
 49
0.0
140
0.0
141
0.0
142
1.0
143
1.0
 70
   688
 72
     1
 73
     0
 74
     5
  7

 75
    16
147
1.0
148
0.0
149
0.0
100
AcDbLayout
  1
Layout2
 70
     1
 71
     2
 10
0.0
 20
0.0
 11
0.0
 21
0.0
 12
0.0
 22
0.0
 32
0.0
 14
0.0
 24
0.0
 34
0.0
 15
0.0
 25
0.0
 35
0.0
146
0.0
 13
0.0
 23
0.0
 33
0.0
 16
1.0
 26
0.0
 36
0.0
 17
0.0
 27
1.0
 37
0.0
 76
     0
330
23
  0
LAYOUT
  5
22
102
{ACAD_REACTORS
330
1A
102
}
330
1A
100
AcDbPlotSettings
  1

  2
none_device
  4
ANSI_A_(11.00_x_8.50_Inches)
  6

 40
6.35
 41
19.05
 42
6.35000508
 43
19.05000254
 44
279.4
 45
215.9
 46
133.34999746
 47
129.6877934512
 48
0.0
 49
0.0
140
0.0
141
0.0
142
0.0113090239
143
1.0
 70
  1696
 72
     0
 73
     0
 74
     0
  7

 75
     0
147
0.0179189148
148
-1300.4909072572
149
0.0
100
AcDbLayout
  1
Model
 70
     1
 71
     0
 10
0.0
 20
0.0
 11
420.0
 21
297.0
 12
0.0
 22
0.0
 32
0.0
 14
-481.4739140315
 24
-267.0000000201
 34
0.0
 15
481.4739140315
 25
-16.9889108368
 35
0.0
146
0.0
 13
0.0
 23
0.0
 33
0.0
 16
1.0
 26
0.0
 36
0.0
 17
0.0
 27
1.0
 37
0.0
 76
     0
330
1F
331
29
  0
MLINESTYLE
  5
18
102
{ACAD_REACTORS
330
17
102
}
330
17
100
AcDbMlineStyle
  2
Standard
 70
     0
  3

 62
   256
 51
90.0
 52
90.0
 71
     2
 49
0.5
 62
   256
  6
BYLAYER
 49
-0.5
 62
   256
  6
BYLAYER
  0
ACDBPLACEHOLDER
  5
F
102
{ACAD_REACTORS
330
E
102
}
330
E
  0
SCALE
  5
48
102
{ACAD_REACTORS
330
47
102
}
330
47
100
AcDbScale
 70
     0
300
1:1
140
1.0
141
1.0
290
     1
  0
SCALE
  5
49
102
{ACAD_REACTORS
330
47
102
}
330
47
100
AcDbScale
 70
     0
300
1:2
140
1.0
141
2.0
290
     0
  0
SCALE
  5
4A
102
{ACAD_REACTORS
330
47
102
}
330
47
100
AcDbScale
 70
     0
300
1:4
140
1.0
141
4.0
290
     0
  0
SCALE
  5
4B
102
{ACAD_REACTORS
330
47
102
}
330
47
100
AcDbScale
 70
     0
300
1:5
140
1.0
141
5.0
290
     0
  0
SCALE
  5
4C
102
{ACAD_REACTORS
330
47
102
}
330
47
100
AcDbScale
 70
     0
300
1:8
140
1.0
141
8.0
290
     0
  0
SCALE
  5
4D
102
{ACAD_REACTORS
330
47
102
}
330
47
100
AcDbScale
 70
     0
300
1:10
140
1.0
141
10.0
290
     0
  0
SCALE
  5
4E
102
{ACAD_REACTORS
330
47
102
}
330
47
100
AcDbScale
 70
     0
300
1:16
140
1.0
141
16.0
290
     0
  0
SCALE
  5
4F
102
{ACAD_REACTORS
330
47
102
}
330
47
100
AcDbScale
 70
     0
300
1:20
140
1.0
141
20.0
290
     0
  0
SCALE
  5
50
102
{ACAD_REACTORS
330
47
102
}
330
47
100
AcDbScale
 70
     0
300
1:30
140
1.0
141
30.0
290
     0
  0
SCALE
  5
51
102
{ACAD_REACTORS
330
47
102
}
330
47
100
AcDbScale
 70
     0
300
1:40
140
1.0
141
40.0
290
     0
  0
SCALE
  5
52
102
{ACAD_REACTORS
330
47
102
}
330
47
100
AcDbScale
 70
     0
300
1:50
140
1.0
141
50.0
290
     0
  0
SCALE
  5
53
102
{ACAD_REACTORS
330
47
102
}
330
47
100
AcDbScale
 70
     0
300
1:100
140
1.0
141
100.0
290
     0
  0
SCALE
  5
54
102
{ACAD_REACTORS
330
47
102
}
330
47
100
AcDbScale
 70
     0
300
2:1
140
2.0
141
1.0
290
     0
  0
SCALE
  5
55
102
{ACAD_REACTORS
330
47
102
}
330
47
100
AcDbScale
 70
     0
300
4:1
140
4.0
141
1.0
290
     0
  0
SCALE
  5
56
102
{ACAD_REACTORS
330
47
102
}
330
47
100
AcDbScale
 70
     0
300
8:1
140
8.0
141
1.0
290
     0
  0
SCALE
  5
57
102
{ACAD_REACTORS
330
47
102
}
330
47
100
AcDbScale
 70
     0
300
10:1
140
10.0
141
1.0
290
     0
  0
SCALE
  5
58
102
{ACAD_REACTORS
330
47
102
}
330
47
100
AcDbScale
 70
     0
300
100:1
140
100.0
141
1.0
290
     0
  0
ENDSEC
  0
EOF
