  0
SECTION
  2
HEADER
  9
$ACADVER
  1
AC1015
  9
$ACADMAINTVER
 70
     6
  9
$DWGCODEPAGE
  3
ANSI_1252
  9
$INSBASE
 10
0.0
 20
0.0
 30
0.0
  9
$EXTMIN
 10
-492.851948
 20
-128.9494373
 30
0.0
  9
$EXTMAX
 10
500.923052
 20
154.8010290495
 30
0.0
  9
$LIMMIN
 10
0.0
 20
0.0
  9
$LIMMAX
 10
420.0
 20
297.0
  9
$ORTHOMODE
 70
     0
  9
$REGENMODE
 70
     1
  9
$FILLMODE
 70
     1
  9
$QTEXTMODE
 70
     0
  9
$MIRRTEXT
 70
     1
  9
$LTSCALE
 40
1.0
  9
$ATTMODE
 70
     1
  9
$TEXTSIZE
 40
3.5
  9
$TRACEWID
 40
1.0
  9
$TEXTSTYLE
  7
Standard
  9
$CLAYER
  8
0
  9
$CELTYPE
  6
ByLayer
  9
$CECOLOR
 62
   256
  9
$CELTSCALE
 40
1.0
  9
$DISPSILH
 70
     0
  9
$DIMSCALE
 40
1.0
  9
$DIMASZ
 40
3.302
  9
$DIMEXO
 40
0.0
  9
$DIMDLI
 40
3.75
  9
$DIMRND
 40
0.0
  9
$DIMDLE
 40
0.0
  9
$DIMEXE
 40
1.0
  9
$DIMTP
 40
0.0
  9
$DIMTM
 40
0.0
  9
$DIMTXT
 40
3.5
  9
$DIMCEN
 40
2.5
  9
$DIMTSZ
 40
0.0
  9
$DIMTOL
 70
     0
  9
$DIMLIM
 70
     0
  9
$DIMTIH
 70
     1
  9
$DIMTOH
 70
     1
  9
$DIMSE1
 70
     0
  9
$DIMSE2
 70
     0
  9
$DIMTAD
 70
     1
  9
$DIMZIN
 70
     1
  9
$DIMBLK
  1

  9
$DIMASO
 70
     1
  9
$DIMSHO
 70
     1
  9
$DIMPOST
  1

  9
$DIMAPOST
  1

  9
$DIMALT
 70
     0
  9
$DIMALTD
 70
     3
  9
$DIMALTF
 40
0.0393700787
  9
$DIMLFAC
 40
1.0
  9
$DIMTOFL
 70
     1
  9
$DIMTVP
 40
0.0
  9
$DIMTIX
 70
     0
  9
$DIMSOXD
 70
     0
  9
$DIMSAH
 70
     0
  9
$DIMBLK1
  1

  9
$DIMBLK2
  1

  9
$DIMSTYLE
  2
ISO-25
  9
$DIMCLRD
 70
     0
  9
$DIMCLRE
 70
     0
  9
$DIMCLRT
 70
     0
  9
$DIMTFAC
 40
1.0
  9
$DIMGAP
 40
1.524
  9
$DIMJUST
 70
     0
  9
$DIMSD1
 70
     0
  9
$DIMSD2
 70
     0
  9
$DIMTOLJ
 70
     0
  9
$DIMTZIN
 70
     1
  9
$DIMALTZ
 70
     0
  9
$DIMALTTZ
 70
     0
  9
$DIMUPT
 70
     0
  9
$DIMDEC
 70
     2
  9
$DIMTDEC
 70
     2
  9
$DIMALTU
 70
     2
  9
$DIMALTTD
 70
     3
  9
$DIMTXSTY
  7
Standard
  9
$DIMAUNIT
 70
     0
  9
$DIMADEC
 70
     2
  9
$DIMALTRND
 40
0.0
  9
$DIMAZIN
 70
     0
  9
$DIMDSEP
 70
    44
  9
$DIMATFIT
 70
     3
  9
$DIMFRAC
 70
     0
  9
$DIMLDRBLK
  1

  9
$DIMLUNIT
 70
     2
  9
$DIMLWD
 70
    -2
  9
$DIMLWE
 70
    -2
  9
$DIMTMOVE
 70
     0
  9
$LUNITS
 70
     2
  9
$LUPREC
 70
     2
  9
$SKETCHINC
 40
1.0
  9
$FILLETRAD
 40
0.0
  9
$AUNITS
 70
     0
  9
$AUPREC
 70
     2
  9
$MENU
  1
.
  9
$ELEVATION
 40
0.0
  9
$PELEVATION
 40
0.0
  9
$THICKNESS
 40
0.0
  9
$LIMCHECK
 70
     0
  9
$CHAMFERA
 40
0.0
  9
$CHAMFERB
 40
0.0
  9
$CHAMFERC
 40
0.0
  9
$CHAMFERD
 40
0.0
  9
$SKPOLY
 70
     0
  9
$TDCREATE
 40
2459897.591372951
  9
$TDUCREATE
 40
2459897.924706285
  9
$TDUPDATE
 40
2459897.591481412
  9
$TDUUPDATE
 40
2459897.924814745
  9
$TDINDWG
 40
0.0000000116
  9
$TDUSRTIMER
 40
0.0000000116
  9
$USRTIMER
 70
     1
  9
$ANGBASE
 50
0.0
  9
$ANGDIR
 70
     0
  9
$PDMODE
 70
     0
  9
$PDSIZE
 40
-1.0
  9
$PLINEWID
 40
0.0
  9
$SPLFRAME
 70
     0
  9
$SPLINETYPE
 70
     6
  9
$SPLINESEGS
 70
     8
  9
$HANDSEED
  5
199
  9
$SURFTAB1
 70
     6
  9
$SURFTAB2
 70
     6
  9
$SURFTYPE
 70
     6
  9
$SURFU
 70
     6
  9
$SURFV
 70
     6
  9
$UCSBASE
  2

  9
$UCSNAME
  2

  9
$UCSORG
 10
0.0
 20
0.0
 30
0.0
  9
$UCSXDIR
 10
1.0
 20
0.0
 30
0.0
  9
$UCSYDIR
 10
0.0
 20
1.0
 30
0.0
  9
$UCSORTHOREF
  2

  9
$UCSORTHOVIEW
 70
     0
  9
$UCSORGTOP
 10
0.0
 20
0.0
 30
0.0
  9
$UCSORGBOTTOM
 10
0.0
 20
0.0
 30
0.0
  9
$UCSORGLEFT
 10
0.0
 20
0.0
 30
0.0
  9
$UCSORGRIGHT
 10
0.0
 20
0.0
 30
0.0
  9
$UCSORGFRONT
 10
0.0
 20
0.0
 30
0.0
  9
$UCSORGBACK
 10
0.0
 20
0.0
 30
0.0
  9
$PUCSBASE
  2

  9
$PUCSNAME
  2

  9
$PUCSORG
 10
0.0
 20
0.0
 30
0.0
  9
$PUCSXDIR
 10
1.0
 20
0.0
 30
0.0
  9
$PUCSYDIR
 10
0.0
 20
1.0
 30
0.0
  9
$PUCSORTHOREF
  2

  9
$PUCSORTHOVIEW
 70
     0
  9
$PUCSORGTOP
 10
0.0
 20
0.0
 30
0.0
  9
$PUCSORGBOTTOM
 10
0.0
 20
0.0
 30
0.0
  9
$PUCSORGLEFT
 10
0.0
 20
0.0
 30
0.0
  9
$PUCSORGRIGHT
 10
0.0
 20
0.0
 30
0.0
  9
$PUCSORGFRONT
 10
0.0
 20
0.0
 30
0.0
  9
$PUCSORGBACK
 10
0.0
 20
0.0
 30
0.0
  9
$USERI1
 70
     0
  9
$USERI2
 70
     0
  9
$USERI3
 70
     0
  9
$USERI4
 70
     0
  9
$USERI5
 70
     0
  9
$USERR1
 40
0.0
  9
$USERR2
 40
0.0
  9
$USERR3
 40
0.0
  9
$USERR4
 40
0.0
  9
$USERR5
 40
0.0
  9
$WORLDVIEW
 70
     1
  9
$SHADEDGE
 70
     3
  9
$SHADEDIF
 70
    70
  9
$TILEMODE
 70
     1
  9
$MAXACTVP
 70
    64
  9
$PINSBASE
 10
0.0
 20
0.0
 30
0.0
  9
$PLIMCHECK
 70
     0
  9
$PEXTMIN
 10
1.0000000000E+20
 20
1.0000000000E+20
 30
1.0000000000E+20
  9
$PEXTMAX
 10
-1.0000000000E+20
 20
-1.0000000000E+20
 30
-1.0000000000E+20
  9
$PLIMMIN
 10
0.0
 20
0.0
  9
$PLIMMAX
 10
420.0
 20
297.0
  9
$UNITMODE
 70
     0
  9
$VISRETAIN
 70
     1
  9
$PLINEGEN
 70
     0
  9
$PSLTSCALE
 70
     1
  9
$TREEDEPTH
 70
  3020
  9
$CMLSTYLE
  2
Standard
  9
$CMLJUST
 70
     0
  9
$CMLSCALE
 40
20.0
  9
$PROXYGRAPHICS
 70
     1
  9
$MEASUREMENT
 70
     1
  9
$CELWEIGHT
370
    -1
  9
$ENDCAPS
280
     0
  9
$JOINSTYLE
280
     0
  9
$LWDISPLAY
290
     1
  9
$INSUNITS
 70
     4
  9
$HYPERLINKBASE
  1

  9
$STYLESHEET
  1

  9
$XEDIT
290
     1
  9
$CEPSNTYPE
380
     0
  9
$PSTYLEMODE
290
     1
  9
$FINGERPRINTGUID
  2
{f32f54f0-de19-4ad9-b1f0-dea6c7577bc9}
  9
$VERSIONGUID
  2
{FAEB1C32-E019-11D5-929B-00C0DF256EC4}
  9
$EXTNAMES
290
     1
  9
$PSVPSCALE
 40
0.0
  9
$OLESTARTUP
290
     0
  0
ENDSEC
  0
SECTION
  2
CLASSES
  0
CLASS
  1
ACDBDICTIONARYWDFLT
  2
AcDbDictionaryWithDefault
  3
ObjectDBX Classes
 90
        0
280
     0
281
     0
  0
CLASS
  1
VISUALSTYLE
  2
AcDbVisualStyle
  3
ObjectDBX Classes
 90
     4095
280
     0
281
     0
  0
CLASS
  1
MATERIAL
  2
AcDbMaterial
  3
ObjectDBX Classes
 90
     1153
280
     0
281
     0
  0
CLASS
  1
SCALE
  2
AcDbScale
  3
ObjectDBX Classes
 90
     1153
280
     0
281
     0
  0
CLASS
  1
TABLESTYLE
  2
AcDbTableStyle
  3
ObjectDBX Classes
 90
     4095
280
     0
281
     0
  0
CLASS
  1
MLEADERSTYLE
  2
AcDbMLeaderStyle
  3
ACDB_MLEADERSTYLE_CLASS
 90
     4095
280
     0
281
     0
  0
CLASS
  1
SUN
  2
AcDbSun
  3
SCENEOE
 90
     1153
280
     0
281
     0
  0
CLASS
  1
ACDBPLACEHOLDER
  2
AcDbPlaceHolder
  3
ObjectDBX Classes
 90
        0
280
     0
281
     0
  0
CLASS
  1
LAYOUT
  2
AcDbLayout
  3
ObjectDBX Classes
 90
        0
280
     0
281
     0
  0
ENDSEC
  0
SECTION
  2
TABLES
  0
TABLE
  2
VPORT
  5
8
330
0
100
AcDbSymbolTable
 70
     1
  0
VPORT
  5
29
330
8
100
AcDbSymbolTableRecord
100
AcDbViewportTableRecord
  2
*Active
 70
     0
 10
0.0
 20
0.0
 11
1.0
 21
1.0
 12
4.035552
 22
12.9257958747
 13
0.0
 23
0.0
 14
10.0
 24
10.0
 15
10.0
 25
10.0
 16
0.0
 26
0.0
 36
1.0
 17
0.0
 27
0.0
 37
0.0
 40
289.4254756765
 41
3.5022849928
 42
50.0
 43
0.0
 44
0.0
 50
0.0
 51
0.0
 71
     0
 72
   100
 73
     1
 74
     3
 75
     0
 76
     0
 77
     0
 78
     0
281
     0
 65
     1
110
0.0
120
0.0
130
0.0
111
1.0
121
0.0
131
0.0
112
0.0
122
1.0
132
0.0
 79
     0
146
0.0
  0
ENDTAB
  0
TABLE
  2
LTYPE
  5
5
330
0
100
AcDbSymbolTable
 70
     6
  0
LTYPE
  5
14
330
5
100
AcDbSymbolTableRecord
100
AcDbLinetypeTableRecord
  2
ByBlock
 70
     0
  3

 72
    65
 73
     0
 40
0.0
  0
LTYPE
  5
15
330
5
100
AcDbSymbolTableRecord
100
AcDbLinetypeTableRecord
  2
ByLayer
 70
     0
  3

 72
    65
 73
     0
 40
0.0
  0
LTYPE
  5
16
330
5
100
AcDbSymbolTableRecord
100
AcDbLinetypeTableRecord
  2
Continuous
 70
     0
  3
Solid line
 72
    65
 73
     0
 40
0.0
  0
LTYPE
  5
5E
330
5
100
AcDbSymbolTableRecord
100
AcDbLinetypeTableRecord
  2
HIDDEN
 70
     0
  3
Hidden __ __ __ __ __ __ __ __ __ __ __ __ __ __
 72
    65
 73
     2
 40
1.905
 49
1.27
 74
     0
 49
-0.635
 74
     0
  0
LTYPE
  5
5F
330
5
100
AcDbSymbolTableRecord
100
AcDbLinetypeTableRecord
  2
PHANTOM
 70
     0
  3
Phantom ______  __  __  ______  __  __  ______
 72
    65
 73
     6
 40
12.7
 49
6.35
 74
     0
 49
-1.27
 74
     0
 49
1.27
 74
     0
 49
-1.27
 74
     0
 49
1.27
 74
     0
 49
-1.27
 74
     0
  0
LTYPE
  5
60
330
5
100
AcDbSymbolTableRecord
100
AcDbLinetypeTableRecord
  2
CENTER
 70
     0
  3
Center ____ _ ____ _ ____ _ ____ _ ____ _ ____
 72
    65
 73
     4
 40
10.16
 49
6.35
 74
     0
 49
-1.27
 74
     0
 49
1.27
 74
     0
 49
-1.27
 74
     0
  0
LTYPE
  5
61
330
5
100
AcDbSymbolTableRecord
100
AcDbLinetypeTableRecord
  2
CENTERX2
 70
     0
  3
Center (2x) ________  __  ________  __  _____
 72
    65
 73
     4
 40
20.32
 49
12.7
 74
     0
 49
-2.54
 74
     0
 49
2.54
 74
     0
 49
-2.54
 74
     0
  0
LTYPE
  5
62
330
5
100
AcDbSymbolTableRecord
100
AcDbLinetypeTableRecord
  2
DOT2
 70
     0
  3
Dot (.5x) ........................................
 72
    65
 73
     2
 40
0.635
 49
0.0
 74
     0
 49
-0.635
 74
     0
  0
ENDTAB
  0
TABLE
  2
LAYER
  5
2
330
0
100
AcDbSymbolTable
 70
     3
  0
LAYER
  5
10
330
2
100
AcDbSymbolTableRecord
100
AcDbLayerTableRecord
  2
0
 70
     0
 62
     7
  6
Continuous
370
    -3
390
F
  0
LAYER
  5
63
330
2
100
AcDbSymbolTableRecord
100
AcDbLayerTableRecord
  2
1
 70
     0
 62
     1
  6
Continuous
370
    -3
390
F
  0
LAYER
  5
64
330
2
100
AcDbSymbolTableRecord
100
AcDbLayerTableRecord
  2
2
 70
     0
 62
     5
  6
Continuous
370
    -3
390
F
  0
ENDTAB
  0
TABLE
  2
STYLE
  5
3
330
0
100
AcDbSymbolTable
 70
     2
  0
STYLE
  5
11
330
3
100
AcDbSymbolTableRecord
100
AcDbTextStyleTableRecord
  2
Standard
 70
     0
 40
0.0
 41
1.0
 50
0.0
 71
     0
 42
3.5
  3
txt
  4

  0
STYLE
  5
195
330
3
100
AcDbSymbolTableRecord
100
AcDbTextStyleTableRecord
  2
SLDTEXTSTYLE0
 70
     0
 40
0.0
 41
0.7
 50
0.0
 71
     0
 42
3.5
  3
TXT
  4

  0
ENDTAB
  0
TABLE
  2
VIEW
  5
6
330
0
100
AcDbSymbolTable
 70
     0
  0
ENDTAB
  0
TABLE
  2
UCS
  5
7
330
0
100
AcDbSymbolTable
 70
     0
  0
ENDTAB
  0
TABLE
  2
APPID
  5
9
330
0
100
AcDbSymbolTable
 70
     1
  0
APPID
  5
12
330
9
100
AcDbSymbolTableRecord
100
AcDbRegAppTableRecord
  2
ACAD
 70
     0
  0
ENDTAB
  0
TABLE
  2
DIMSTYLE
  5
A
330
0
100
AcDbSymbolTable
 70
     1
100
AcDbDimStyleTable
  0
DIMSTYLE
105
27
330
A
100
AcDbSymbolTableRecord
100
AcDbDimStyleTableRecord
  2
ISO-25
 70
     0
 41
2.5
 42
0.625
 43
3.75
 44
1.25
 73
     0
 74
     0
 77
     1
 78
     8
140
2.5
141
2.5
143
0.0393700787
147
0.625
171
     3
172
     1
178
     0
271
     2
272
     2
274
     3
278
    44
283
     0
284
     8
340
11
  0
ENDTAB
  0
TABLE
  2
BLOCK_RECORD
  5
1
330
0
100
AcDbSymbolTable
 70
     1
  0
BLOCK_RECORD
  5
1F
330
1
100
AcDbSymbolTableRecord
100
AcDbBlockTableRecord
  2
*Model_Space
340
22
  0
BLOCK_RECORD
  5
1B
330
1
100
AcDbSymbolTableRecord
100
AcDbBlockTableRecord
  2
*Paper_Space
340
1E
  0
BLOCK_RECORD
  5
23
330
1
100
AcDbSymbolTableRecord
100
AcDbBlockTableRecord
  2
*Paper_Space0
340
26
  0
ENDTAB
  0
ENDSEC
  0
SECTION
  2
BLOCKS
  0
BLOCK
  5
20
330
1F
100
AcDbEntity
  8
0
100
AcDbBlockBegin
  2
*Model_Space
 70
     0
 10
0.0
 20
0.0
 30
0.0
  3
*Model_Space
  1

  0
ENDBLK
  5
21
330
1F
100
AcDbEntity
  8
0
100
AcDbBlockEnd
  0
BLOCK
  5
1C
330
1B
100
AcDbEntity
 67
     1
  8
0
100
AcDbBlockBegin
  2
*Paper_Space
 70
     0
 10
0.0
 20
0.0
 30
0.0
  3
*Paper_Space
  1

  0
ENDBLK
  5
1D
330
1B
100
AcDbEntity
 67
     1
  8
0
100
AcDbBlockEnd
  0
BLOCK
  5
24
330
23
100
AcDbEntity
  8
0
100
AcDbBlockBegin
  2
*Paper_Space0
 70
     0
 10
0.0
 20
0.0
 30
0.0
  3
*Paper_Space0
  1

  0
ENDBLK
  5
25
330
23
100
AcDbEntity
  8
0
100
AcDbBlockEnd
  0
ENDSEC
  0
SECTION
  2
ENTITIES
  0
CIRCLE
  5
65
330
1F
100
AcDbEntity
  8
0
100
AcDbCircle
 10
114.0621399321
 20
-100.9494373
 30
0.0
 40
5.0
  0
CIRCLE
  5
66
330
1F
100
AcDbEntity
  8
0
100
AcDbCircle
 10
151.0621399321
 20
-100.9494373
 30
0.0
 40
5.000000000000028
  0
CIRCLE
  5
67
330
1F
100
AcDbEntity
  8
0
100
AcDbCircle
 10
-463.964448
 20
-100.5478467134
 30
0.0
 40
25.38552277325073
  0
CIRCLE
  5
68
330
1F
100
AcDbEntity
  8
0
100
AcDbCircle
 10
472.035552
 20
-100.5478467134
 30
0.0
 40
25.38552277325073
  0
ARC
  5
69
330
1F
100
AcDbEntity
  8
0
100
AcDbCircle
 10
354.5272148803
 20
-96.8273616651
 30
0.0
 40
6.999999999999999
100
AcDbArc
 50
26.7655005768
 51
153.2344994232
  0
LINE
  5
6A
330
1F
100
AcDbEntity
  8
0
100
AcDbLine
 10
348.2772148803
 20
-99.9797417184
 30
0.0
 11
348.2772148803
 21
-93.6749816119
 31
0.0
  0
ARC
  5
6B
330
1F
100
AcDbEntity
  8
0
100
AcDbCircle
 10
354.5272148803
 20
-96.8273616651
 30
0.0
 40
6.999999999999999
100
AcDbArc
 50
206.7655005768
 51
333.2344994232
  0
LINE
  5
6C
330
1F
100
AcDbEntity
  8
0
100
AcDbLine
 10
360.7772148803
 20
-93.6749816119
 30
0.0
 11
360.7772148803
 21
-99.9797417184
 31
0.0
  0
ARC
  5
6D
330
1F
100
AcDbEntity
  8
0
100
AcDbCircle
 10
-386.1463322312
 20
-97.314275287
 30
0.0
 40
4.950000000000009
100
AcDbArc
 50
216.0911572378
 51
323.9088427622
  0
LINE
  5
6E
330
1F
100
AcDbEntity
  8
0
100
AcDbLine
 10
-382.1463322312
 20
-94.3983706246
 30
0.0
 11
-382.1463322312
 21
-100.2301799493
 31
0.0
  0
ARC
  5
6F
330
1F
100
AcDbEntity
  8
0
100
AcDbCircle
 10
-386.1463322312
 20
-97.314275287
 30
0.0
 40
4.95
100
AcDbArc
 50
36.0911572378
 51
143.9088427622
  0
LINE
  5
70
330
1F
100
AcDbEntity
  8
0
100
AcDbLine
 10
-390.1463322312
 20
-94.3983706246
 30
0.0
 11
-390.1463322312
 21
-100.2301799493
 31
0.0
  0
LINE
  5
71
330
1F
100
AcDbEntity
  8
0
100
AcDbLine
 10
-414.5707334802
 20
-38.3783900425
 30
0.0
 11
-375.7087334802
 21
-38.3783900425
 31
0.0
  0
LINE
  5
72
330
1F
100
AcDbEntity
  8
0
100
AcDbLine
 10
-414.5707334802
 20
-38.3783900425
 30
0.0
 11
-414.5707334802
 21
-55.3963900425
 31
0.0
  0
LINE
  5
73
330
1F
100
AcDbEntity
  8
0
100
AcDbLine
 10
-414.5707334802
 20
-55.3963900425
 30
0.0
 11
-375.7087334802
 21
-55.3963900425
 31
0.0
  0
LINE
  5
74
330
1F
100
AcDbEntity
  8
0
100
AcDbLine
 10
-375.7087334802
 20
-38.3783900425
 30
0.0
 11
-375.7087334802
 21
-55.3963900425
 31
0.0
  0
CIRCLE
  5
75
330
1F
100
AcDbEntity
  8
0
100
AcDbCircle
 10
-372.9147334802
 20
-53.2373900425
 30
0.0
 40
1.587500000000034
  0
CIRCLE
  5
76
330
1F
100
AcDbEntity
  8
0
100
AcDbCircle
 10
-372.9147334802
 20
-40.5373900425
 30
0.0
 40
1.587500000000034
  0
CIRCLE
  5
77
330
1F
100
AcDbEntity
  8
0
100
AcDbCircle
 10
-417.3647334802
 20
-53.2373900425
 30
0.0
 40
1.587500000000034
  0
CIRCLE
  5
78
330
1F
100
AcDbEntity
  8
0
100
AcDbCircle
 10
-417.3647334802
 20
-40.5373900425
 30
0.0
 40
1.587500000000034
  0
LINE
  5
79
330
1F
100
AcDbEntity
  8
0
100
AcDbLine
 10
82.535552
 20
-66.8359464151
 30
0.0
 11
82.535552
 21
-98.6122085631
 31
0.0
  0
ARC
  5
7A
330
1F
100
AcDbEntity
  8
0
100
AcDbCircle
 10
81.8103520091
 20
-65.4095085394
 30
0.0
 40
1.600199999999995
100
AcDbArc
 50
296.9487509971
 51
0.0000000092
  0
LINE
  5
7B
330
1F
100
AcDbEntity
  8
0
100
AcDbLine
 10
83.4105520091
 20
-65.4095085391
 30
0.0
 11
83.410551999
 21
-2.0619085391
 31
0.0
  0
ARC
  5
7C
330
1F
100
AcDbEntity
  8
0
100
AcDbCircle
 10
81.810351999
 20
-2.0619085394
 30
0.0
 40
1.600200000000001
100
AcDbArc
 50
0.0000000092
 51
90.0000000092
  0
LINE
  5
7D
330
1F
100
AcDbEntity
  8
0
100
AcDbLine
 10
81.8103520094
 20
0.6812914607
 30
0.0
 11
81.8103519987
 21
-0.4617085394
 31
0.0
  0
ARC
  5
7E
330
1F
100
AcDbEntity
  8
0
100
AcDbCircle
 10
81.8103520091
 20
2.2814914607
 30
0.0
 40
1.60020000000001
100
AcDbArc
 50
270.0000000092
 51
0.0000000092
  0
LINE
  5
7F
330
1F
100
AcDbEntity
  8
0
100
AcDbLine
 10
83.4105520091
 20
2.2814914609
 30
0.0
 11
83.410551999
 21
65.6290914609
 31
0.0
  0
ARC
  5
80
330
1F
100
AcDbEntity
  8
0
100
AcDbCircle
 10
81.810351999
 20
65.6290914607
 30
0.0
 40
1.600200000000001
100
AcDbArc
 50
0.0000000092
 51
90.0000000092
  0
LINE
  5
81
330
1F
100
AcDbEntity
  8
0
100
AcDbLine
 10
81.8103519987
 20
68.9040847536
 30
0.0
 11
81.8103519987
 21
67.2292914607
 31
0.0
  0
LINE
  5
82
330
1F
100
AcDbEntity
  8
0
100
AcDbLine
 10
-73.7392479987
 20
68.9040847536
 30
0.0
 11
81.8103519987
 21
68.9040847536
 31
0.0
  0
LINE
  5
83
330
1F
100
AcDbEntity
  8
0
100
AcDbLine
 10
-73.7392479987
 20
68.9040847536
 30
0.0
 11
-73.7392480013
 21
67.2292914357
 31
0.0
  0
ARC
  5
84
330
1F
100
AcDbEntity
  8
0
100
AcDbCircle
 10
-73.739248001
 20
65.6290914357
 30
0.0
 40
1.600199999999987
100
AcDbArc
 50
90.0000000092
 51
180.0000000092
  0
LINE
  5
85
330
1F
100
AcDbEntity
  8
0
100
AcDbLine
 10
-75.339448001
 20
65.6290914355
 30
0.0
 11
-75.3394479909
 21
2.2814914355
 31
0.0
  0
ARC
  5
86
330
1F
100
AcDbEntity
  8
0
100
AcDbCircle
 10
-73.7392479909
 20
2.2814914357
 30
0.0
 40
1.600200000000003
100
AcDbArc
 50
180.0000000092
 51
270.0000000092
  0
LINE
  5
87
330
1F
100
AcDbEntity
  8
0
100
AcDbLine
 10
-73.7392479906
 20
0.6812914357
 30
0.0
 11
-73.7392480013
 21
-0.4617085644
 31
0.0
  0
ARC
  5
88
330
1F
100
AcDbEntity
  8
0
100
AcDbCircle
 10
-73.739248001
 20
-2.0619085644
 30
0.0
 40
1.6002
100
AcDbArc
 50
90.0000000092
 51
180.0000000092
  0
LINE
  5
89
330
1F
100
AcDbEntity
  8
0
100
AcDbLine
 10
-75.339448001
 20
-2.0619085646
 30
0.0
 11
-75.3394479909
 21
-65.4095085646
 31
0.0
  0
ARC
  5
8A
330
1F
100
AcDbEntity
  8
0
100
AcDbCircle
 10
-73.7392479909
 20
-65.4095085644
 30
0.0
 40
1.600200000000015
100
AcDbArc
 50
180.0000000092
 51
243.0512482685
  0
LINE
  5
8B
330
1F
100
AcDbEntity
  8
0
100
AcDbLine
 10
-74.464448
 20
-98.6122085631
 30
0.0
 11
-74.464448
 21
-66.8359464308
 31
0.0
  0
ARC
  5
8C
330
1F
100
AcDbEntity
  8
0
100
AcDbCircle
 10
-73.464448
 20
-98.6122085631
 30
0.0
 40
1.000000000000014
100
AcDbArc
 50
180.0
 51
270.0
  0
LINE
  5
8D
330
1F
100
AcDbEntity
  8
0
100
AcDbLine
 10
81.535552
 20
-99.6122085631
 30
0.0
 11
-73.464448
 21
-99.6122085631
 31
0.0
  0
ARC
  5
8E
330
1F
100
AcDbEntity
  8
0
100
AcDbCircle
 10
81.535552
 20
-98.6122085631
 30
0.0
 40
1.0
100
AcDbArc
 50
270.0
 51
0.0
  0
CIRCLE
  5
8F
330
1F
100
AcDbEntity
  8
0
100
AcDbCircle
 10
-381.7999334802
 20
48.7121005602
 30
0.0
 40
1.90500000000003
  0
CIRCLE
  5
90
330
1F
100
AcDbEntity
  8
0
100
AcDbCircle
 10
-444.6395334802
 20
-14.1274994398
 30
0.0
 40
1.904999999999973
  0
CIRCLE
  5
91
330
1F
100
AcDbEntity
  8
0
100
AcDbCircle
 10
-444.6395334802
 20
48.7121005602
 30
0.0
 40
1.904999999999973
  0
CIRCLE
  5
92
330
1F
100
AcDbEntity
  8
0
100
AcDbCircle
 10
-413.2197334802
 20
17.2923005602
 30
0.0
 40
39.87799999999993
  0
LINE
  5
93
330
1F
100
AcDbEntity
  8
0
100
AcDbLine
 10
-314.4714711809
 20
-104.8382370093
 30
0.0
 11
-308.4714711809
 21
-104.8382370093
 31
0.0
  0
ARC
  5
94
330
1F
100
AcDbEntity
  8
0
100
AcDbCircle
 10
-311.4714711809
 20
-97.314275287
 30
0.0
 40
8.100000000000009
100
AcDbArc
 50
291.7384607915
 51
248.2615392085
  0
LINE
  5
95
330
1F
100
AcDbEntity
  8
0
100
AcDbLine
 10
-139.4345223907
 20
-83.864275287
 30
0.0
 11
-139.4345223907
 21
-110.764275287
 31
0.0
  0
LINE
  5
96
330
1F
100
AcDbEntity
  8
0
100
AcDbLine
 10
-139.4345223907
 20
-110.764275287
 30
0.0
 11
-127.2845223907
 21
-110.764275287
 31
0.0
  0
LINE
  5
97
330
1F
100
AcDbEntity
  8
0
100
AcDbLine
 10
-127.2845223907
 20
-110.764275287
 30
0.0
 11
-127.2845223907
 21
-83.864275287
 31
0.0
  0
LINE
  5
98
330
1F
100
AcDbEntity
  8
0
100
AcDbLine
 10
-127.2845223907
 20
-83.864275287
 30
0.0
 11
-139.4345223907
 21
-83.864275287
 31
0.0
  0
LINE
  5
99
330
1F
100
AcDbEntity
  8
0
100
AcDbLine
 10
-121.4345223907
 20
-83.864275287
 30
0.0
 11
-121.4345223907
 21
-110.764275287
 31
0.0
  0
LINE
  5
9A
330
1F
100
AcDbEntity
  8
0
100
AcDbLine
 10
-121.4345223907
 20
-110.764275287
 30
0.0
 11
-109.2845223907
 21
-110.764275287
 31
0.0
  0
LINE
  5
9B
330
1F
100
AcDbEntity
  8
0
100
AcDbLine
 10
-109.2845223907
 20
-110.764275287
 30
0.0
 11
-109.2845223907
 21
-83.864275287
 31
0.0
  0
LINE
  5
9C
330
1F
100
AcDbEntity
  8
0
100
AcDbLine
 10
-109.2845223907
 20
-83.864275287
 30
0.0
 11
-121.4345223907
 21
-83.864275287
 31
0.0
  0
LINE
  5
9D
330
1F
100
AcDbEntity
  8
0
100
AcDbLine
 10
-103.4345223907
 20
-83.864275287
 30
0.0
 11
-103.4345223907
 21
-110.764275287
 31
0.0
  0
LINE
  5
9E
330
1F
100
AcDbEntity
  8
0
100
AcDbLine
 10
-103.4345223907
 20
-110.764275287
 30
0.0
 11
-91.2845223907
 21
-110.764275287
 31
0.0
  0
LINE
  5
9F
330
1F
100
AcDbEntity
  8
0
100
AcDbLine
 10
-91.2845223907
 20
-110.764275287
 30
0.0
 11
-91.2845223907
 21
-83.864275287
 31
0.0
  0
LINE
  5
A0
330
1F
100
AcDbEntity
  8
0
100
AcDbLine
 10
-91.2845223907
 20
-83.864275287
 30
0.0
 11
-103.4345223907
 21
-83.864275287
 31
0.0
  0
LINE
  5
A1
330
1F
100
AcDbEntity
  8
0
100
AcDbLine
 10
298.4653336851
 20
-83.864275287
 30
0.0
 11
298.4653336851
 21
-110.764275287
 31
0.0
  0
LINE
  5
A2
330
1F
100
AcDbEntity
  8
0
100
AcDbLine
 10
298.4653336851
 20
-110.764275287
 30
0.0
 11
310.6153336851
 21
-110.764275287
 31
0.0
  0
LINE
  5
A3
330
1F
100
AcDbEntity
  8
0
100
AcDbLine
 10
310.6153336851
 20
-110.764275287
 30
0.0
 11
310.6153336851
 21
-83.864275287
 31
0.0
  0
LINE
  5
A4
330
1F
100
AcDbEntity
  8
0
100
AcDbLine
 10
310.6153336851
 20
-83.864275287
 30
0.0
 11
298.4653336851
 21
-83.864275287
 31
0.0
  0
LINE
  5
A5
330
1F
100
AcDbEntity
  8
0
100
AcDbLine
 10
280.4653336851
 20
-83.864275287
 30
0.0
 11
280.4653336851
 21
-110.764275287
 31
0.0
  0
LINE
  5
A6
330
1F
100
AcDbEntity
  8
0
100
AcDbLine
 10
280.4653336851
 20
-110.764275287
 30
0.0
 11
292.6153336851
 21
-110.764275287
 31
0.0
  0
LINE
  5
A7
330
1F
100
AcDbEntity
  8
0
100
AcDbLine
 10
292.6153336851
 20
-110.764275287
 30
0.0
 11
292.6153336851
 21
-83.864275287
 31
0.0
  0
LINE
  5
A8
330
1F
100
AcDbEntity
  8
0
100
AcDbLine
 10
292.6153336851
 20
-83.864275287
 30
0.0
 11
280.4653336851
 21
-83.864275287
 31
0.0
  0
LINE
  5
A9
330
1F
100
AcDbEntity
  8
0
100
AcDbLine
 10
262.4653336851
 20
-83.864275287
 30
0.0
 11
262.4653336851
 21
-110.764275287
 31
0.0
  0
LINE
  5
AA
330
1F
100
AcDbEntity
  8
0
100
AcDbLine
 10
262.4653336851
 20
-110.764275287
 30
0.0
 11
274.6153336851
 21
-110.764275287
 31
0.0
  0
LINE
  5
AB
330
1F
100
AcDbEntity
  8
0
100
AcDbLine
 10
274.6153336851
 20
-110.764275287
 30
0.0
 11
274.6153336851
 21
-83.864275287
 31
0.0
  0
LINE
  5
AC
330
1F
100
AcDbEntity
  8
0
100
AcDbLine
 10
274.6153336851
 20
-83.864275287
 30
0.0
 11
262.4653336851
 21
-83.864275287
 31
0.0
  0
LINE
  5
AD
330
1F
100
AcDbEntity
  8
0
100
AcDbLine
 10
244.4653336851
 20
-83.864275287
 30
0.0
 11
244.4653336851
 21
-110.764275287
 31
0.0
  0
LINE
  5
AE
330
1F
100
AcDbEntity
  8
0
100
AcDbLine
 10
244.4653336851
 20
-110.764275287
 30
0.0
 11
256.6153336851
 21
-110.764275287
 31
0.0
  0
LINE
  5
AF
330
1F
100
AcDbEntity
  8
0
100
AcDbLine
 10
256.6153336851
 20
-110.764275287
 30
0.0
 11
256.6153336851
 21
-83.864275287
 31
0.0
  0
LINE
  5
B0
330
1F
100
AcDbEntity
  8
0
100
AcDbLine
 10
256.6153336851
 20
-83.864275287
 30
0.0
 11
244.4653336851
 21
-83.864275287
 31
0.0
  0
LINE
  5
B1
330
1F
100
AcDbEntity
  8
0
100
AcDbLine
 10
226.4653336851
 20
-83.864275287
 30
0.0
 11
226.4653336851
 21
-110.764275287
 31
0.0
  0
LINE
  5
B2
330
1F
100
AcDbEntity
  8
0
100
AcDbLine
 10
226.4653336851
 20
-110.764275287
 30
0.0
 11
238.6153336851
 21
-110.764275287
 31
0.0
  0
LINE
  5
B3
330
1F
100
AcDbEntity
  8
0
100
AcDbLine
 10
238.6153336851
 20
-110.764275287
 30
0.0
 11
238.6153336851
 21
-83.864275287
 31
0.0
  0
LINE
  5
B4
330
1F
100
AcDbEntity
  8
0
100
AcDbLine
 10
238.6153336851
 20
-83.864275287
 30
0.0
 11
226.4653336851
 21
-83.864275287
 31
0.0
  0
LINE
  5
B5
330
1F
100
AcDbEntity
  8
0
100
AcDbLine
 10
-362.6557820027
 20
-83.864275287
 30
0.0
 11
-362.6557820027
 21
-110.764275287
 31
0.0
  0
LINE
  5
B6
330
1F
100
AcDbEntity
  8
0
100
AcDbLine
 10
-362.6557820027
 20
-110.764275287
 30
0.0
 11
-350.5057820027
 21
-110.764275287
 31
0.0
  0
LINE
  5
B7
330
1F
100
AcDbEntity
  8
0
100
AcDbLine
 10
-350.5057820027
 20
-110.764275287
 30
0.0
 11
-350.5057820027
 21
-83.864275287
 31
0.0
  0
LINE
  5
B8
330
1F
100
AcDbEntity
  8
0
100
AcDbLine
 10
-350.5057820027
 20
-83.864275287
 30
0.0
 11
-362.6557820027
 21
-83.864275287
 31
0.0
  0
LINE
  5
B9
330
1F
100
AcDbEntity
  8
0
100
AcDbLine
 10
190.4653336851
 20
-83.864275287
 30
0.0
 11
190.4653336851
 21
-110.764275287
 31
0.0
  0
LINE
  5
BA
330
1F
100
AcDbEntity
  8
0
100
AcDbLine
 10
190.4653336851
 20
-110.764275287
 30
0.0
 11
202.6153336851
 21
-110.764275287
 31
0.0
  0
LINE
  5
BB
330
1F
100
AcDbEntity
  8
0
100
AcDbLine
 10
202.6153336851
 20
-110.764275287
 30
0.0
 11
202.6153336851
 21
-83.864275287
 31
0.0
  0
LINE
  5
BC
330
1F
100
AcDbEntity
  8
0
100
AcDbLine
 10
202.6153336851
 20
-83.864275287
 30
0.0
 11
190.4653336851
 21
-83.864275287
 31
0.0
  0
LINE
  5
BD
330
1F
100
AcDbEntity
  8
0
100
AcDbLine
 10
-344.6557820027
 20
-83.864275287
 30
0.0
 11
-344.6557820027
 21
-110.764275287
 31
0.0
  0
LINE
  5
BE
330
1F
100
AcDbEntity
  8
0
100
AcDbLine
 10
-344.6557820027
 20
-110.764275287
 30
0.0
 11
-332.5057820027
 21
-110.764275287
 31
0.0
  0
LINE
  5
BF
330
1F
100
AcDbEntity
  8
0
100
AcDbLine
 10
-332.5057820027
 20
-110.764275287
 30
0.0
 11
-332.5057820027
 21
-83.864275287
 31
0.0
  0
LINE
  5
C0
330
1F
100
AcDbEntity
  8
0
100
AcDbLine
 10
-332.5057820027
 20
-83.864275287
 30
0.0
 11
-344.6557820027
 21
-83.864275287
 31
0.0
  0
LINE
  5
C1
330
1F
100
AcDbEntity
  8
0
100
AcDbLine
 10
316.4653336851
 20
-83.864275287
 30
0.0
 11
316.4653336851
 21
-110.764275287
 31
0.0
  0
LINE
  5
C2
330
1F
100
AcDbEntity
  8
0
100
AcDbLine
 10
316.4653336851
 20
-110.764275287
 30
0.0
 11
328.6153336851
 21
-110.764275287
 31
0.0
  0
LINE
  5
C3
330
1F
100
AcDbEntity
  8
0
100
AcDbLine
 10
328.6153336851
 20
-110.764275287
 30
0.0
 11
328.6153336851
 21
-83.864275287
 31
0.0
  0
LINE
  5
C4
330
1F
100
AcDbEntity
  8
0
100
AcDbLine
 10
328.6153336851
 20
-83.864275287
 30
0.0
 11
316.4653336851
 21
-83.864275287
 31
0.0
  0
LINE
  5
C5
330
1F
100
AcDbEntity
  8
0
100
AcDbLine
 10
-211.4345223907
 20
-83.864275287
 30
0.0
 11
-211.4345223907
 21
-110.764275287
 31
0.0
  0
LINE
  5
C6
330
1F
100
AcDbEntity
  8
0
100
AcDbLine
 10
-211.4345223907
 20
-110.764275287
 30
0.0
 11
-199.2845223907
 21
-110.764275287
 31
0.0
  0
LINE
  5
C7
330
1F
100
AcDbEntity
  8
0
100
AcDbLine
 10
-199.2845223907
 20
-110.764275287
 30
0.0
 11
-199.2845223907
 21
-83.864275287
 31
0.0
  0
LINE
  5
C8
330
1F
100
AcDbEntity
  8
0
100
AcDbLine
 10
-199.2845223907
 20
-83.864275287
 30
0.0
 11
-211.4345223907
 21
-83.864275287
 31
0.0
  0
LINE
  5
C9
330
1F
100
AcDbEntity
  8
0
100
AcDbLine
 10
-193.4345223907
 20
-83.864275287
 30
0.0
 11
-193.4345223907
 21
-110.764275287
 31
0.0
  0
LINE
  5
CA
330
1F
100
AcDbEntity
  8
0
100
AcDbLine
 10
-193.4345223907
 20
-110.764275287
 30
0.0
 11
-181.2845223907
 21
-110.764275287
 31
0.0
  0
LINE
  5
CB
330
1F
100
AcDbEntity
  8
0
100
AcDbLine
 10
-181.2845223907
 20
-110.764275287
 30
0.0
 11
-181.2845223907
 21
-83.864275287
 31
0.0
  0
LINE
  5
CC
330
1F
100
AcDbEntity
  8
0
100
AcDbLine
 10
-181.2845223907
 20
-83.864275287
 30
0.0
 11
-193.4345223907
 21
-83.864275287
 31
0.0
  0
LINE
  5
CD
330
1F
100
AcDbEntity
  8
0
100
AcDbLine
 10
-175.4345223907
 20
-83.864275287
 30
0.0
 11
-175.4345223907
 21
-110.764275287
 31
0.0
  0
LINE
  5
CE
330
1F
100
AcDbEntity
  8
0
100
AcDbLine
 10
-175.4345223907
 20
-110.764275287
 30
0.0
 11
-163.2845223907
 21
-110.764275287
 31
0.0
  0
LINE
  5
CF
330
1F
100
AcDbEntity
  8
0
100
AcDbLine
 10
-163.2845223907
 20
-110.764275287
 30
0.0
 11
-163.2845223907
 21
-83.864275287
 31
0.0
  0
LINE
  5
D0
330
1F
100
AcDbEntity
  8
0
100
AcDbLine
 10
-163.2845223907
 20
-83.864275287
 30
0.0
 11
-175.4345223907
 21
-83.864275287
 31
0.0
  0
LINE
  5
D1
330
1F
100
AcDbEntity
  8
0
100
AcDbLine
 10
-157.4345223907
 20
-83.864275287
 30
0.0
 11
-157.4345223907
 21
-110.764275287
 31
0.0
  0
LINE
  5
D2
330
1F
100
AcDbEntity
  8
0
100
AcDbLine
 10
-157.4345223907
 20
-110.764275287
 30
0.0
 11
-145.2845223907
 21
-110.764275287
 31
0.0
  0
LINE
  5
D3
330
1F
100
AcDbEntity
  8
0
100
AcDbLine
 10
-145.2845223907
 20
-110.764275287
 30
0.0
 11
-145.2845223907
 21
-83.864275287
 31
0.0
  0
LINE
  5
D4
330
1F
100
AcDbEntity
  8
0
100
AcDbLine
 10
-145.2845223907
 20
-83.864275287
 30
0.0
 11
-157.4345223907
 21
-83.864275287
 31
0.0
  0
LINE
  5
D5
330
1F
100
AcDbEntity
  8
0
100
AcDbLine
 10
208.4653336851
 20
-83.864275287
 30
0.0
 11
208.4653336851
 21
-110.764275287
 31
0.0
  0
LINE
  5
D6
330
1F
100
AcDbEntity
  8
0
100
AcDbLine
 10
208.4653336851
 20
-110.764275287
 30
0.0
 11
220.6153336851
 21
-110.764275287
 31
0.0
  0
LINE
  5
D7
330
1F
100
AcDbEntity
  8
0
100
AcDbLine
 10
220.6153336851
 20
-110.764275287
 30
0.0
 11
220.6153336851
 21
-83.864275287
 31
0.0
  0
LINE
  5
D8
330
1F
100
AcDbEntity
  8
0
100
AcDbLine
 10
220.6153336851
 20
-83.864275287
 30
0.0
 11
208.4653336851
 21
-83.864275287
 31
0.0
  0
CIRCLE
  5
D9
330
1F
100
AcDbEntity
  8
0
100
AcDbCircle
 10
-95.064448
 20
-72.6519342725
 30
0.0
 40
1.898650000000004
  0
CIRCLE
  5
DA
330
1F
100
AcDbEntity
  8
0
100
AcDbCircle
 10
-95.064448
 20
114.2480657275
 30
0.0
 40
1.898650000000004
  0
CIRCLE
  5
DB
330
1F
100
AcDbEntity
  8
0
100
AcDbCircle
 10
-358.864448
 20
114.2480657275
 30
0.0
 40
1.898649999999975
  0
ARC
  5
DC
330
1F
100
AcDbEntity
  8
0
100
AcDbCircle
 10
-103.314448
 20
105.9980657275
 30
0.0
 40
7.350000000000009
100
AcDbArc
 50
0.0
 51
90.0
  0
LINE
  5
DD
330
1F
100
AcDbEntity
  8
0
100
AcDbLine
 10
-103.314448
 20
113.3480657275
 30
0.0
 11
-350.614448
 21
113.3480657275
 31
0.0
  0
ARC
  5
DE
330
1F
100
AcDbEntity
  8
0
100
AcDbCircle
 10
-350.614448
 20
105.9980657275
 30
0.0
 40
7.350000000000023
100
AcDbArc
 50
90.0
 51
180.0
  0
LINE
  5
DF
330
1F
100
AcDbEntity
  8
0
100
AcDbLine
 10
-357.964448
 20
105.9980657275
 30
0.0
 11
-357.964448
 21
-64.4019342725
 31
0.0
  0
ARC
  5
E0
330
1F
100
AcDbEntity
  8
0
100
AcDbCircle
 10
-350.614448
 20
-64.4019342725
 30
0.0
 40
7.349999999999994
100
AcDbArc
 50
180.0
 51
270.0
  0
LINE
  5
E1
330
1F
100
AcDbEntity
  8
0
100
AcDbLine
 10
-350.614448
 20
-71.7519342725
 30
0.0
 11
-103.314448
 21
-71.7519342725
 31
0.0
  0
ARC
  5
E2
330
1F
100
AcDbEntity
  8
0
100
AcDbCircle
 10
-103.314448
 20
-64.4019342725
 30
0.0
 40
7.350000000000023
100
AcDbArc
 50
270.0
 51
0.0
  0
LINE
  5
E3
330
1F
100
AcDbEntity
  8
0
100
AcDbLine
 10
-95.964448
 20
-64.4019342725
 30
0.0
 11
-95.964448
 21
105.9980657275
 31
0.0
  0
ARC
  5
E4
330
1F
100
AcDbEntity
  8
0
100
AcDbCircle
 10
358.685552
 20
105.9980657275
 30
0.0
 40
7.350000000000023
100
AcDbArc
 50
0.0
 51
90.0
  0
LINE
  5
E5
330
1F
100
AcDbEntity
  8
0
100
AcDbLine
 10
358.685552
 20
113.3480657275
 30
0.0
 11
111.385552
 21
113.3480657275
 31
0.0
  0
ARC
  5
E6
330
1F
100
AcDbEntity
  8
0
100
AcDbCircle
 10
111.385552
 20
105.9980657275
 30
0.0
 40
7.350000000000009
100
AcDbArc
 50
90.0
 51
180.0
  0
LINE
  5
E7
330
1F
100
AcDbEntity
  8
0
100
AcDbLine
 10
104.035552
 20
105.9980657275
 30
0.0
 11
104.035552
 21
-64.4019342725
 31
0.0
  0
ARC
  5
E8
330
1F
100
AcDbEntity
  8
0
100
AcDbCircle
 10
111.385552
 20
-64.4019342725
 30
0.0
 40
7.350000000000009
100
AcDbArc
 50
180.0
 51
270.0
  0
LINE
  5
E9
330
1F
100
AcDbEntity
  8
0
100
AcDbLine
 10
111.385552
 20
-71.7519342725
 30
0.0
 11
358.685552
 21
-71.7519342725
 31
0.0
  0
ARC
  5
EA
330
1F
100
AcDbEntity
  8
0
100
AcDbCircle
 10
358.685552
 20
-64.4019342725
 30
0.0
 40
7.350000000000023
100
AcDbArc
 50
270.0
 51
0.0
  0
LINE
  5
EB
330
1F
100
AcDbEntity
  8
0
100
AcDbLine
 10
366.035552
 20
-64.4019342725
 30
0.0
 11
366.035552
 21
105.9980657275
 31
0.0
  0
CIRCLE
  5
EC
330
1F
100
AcDbEntity
  8
0
100
AcDbCircle
 10
366.935552
 20
114.2480657275
 30
0.0
 40
1.898649999999975
  0
CIRCLE
  5
ED
330
1F
100
AcDbEntity
  8
0
100
AcDbCircle
 10
103.135552
 20
114.2480657275
 30
0.0
 40
1.898650000000004
  0
CIRCLE
  5
EE
330
1F
100
AcDbEntity
  8
0
100
AcDbCircle
 10
103.135552
 20
-72.6519342725
 30
0.0
 40
1.898650000000004
  0
CIRCLE
  5
EF
330
1F
100
AcDbEntity
  8
0
100
AcDbCircle
 10
366.935552
 20
-72.6519342725
 30
0.0
 40
1.898650000000032
  0
CIRCLE
  5
F0
330
1F
100
AcDbEntity
  8
0
100
AcDbCircle
 10
-358.864448
 20
-72.6519342725
 30
0.0
 40
1.898649999999975
  0
CIRCLE
  5
F1
330
1F
100
AcDbEntity
  8
0
100
AcDbCircle
 10
14.035552
 20
134.1141317
 30
0.0
 40
6.500000000000407
  0
ARC
  5
F2
330
1F
100
AcDbEntity
  8
0
100
AcDbCircle
 10
-70.418448
 20
116.891291437
 30
0.0
 40
2.0
100
AcDbArc
 50
90.0
 51
180.0
  0
LINE
  5
F3
330
1F
100
AcDbEntity
  8
0
100
AcDbLine
 10
-72.418448
 20
71.869291437
 30
0.0
 11
-72.418448
 21
116.891291437
 31
0.0
  0
ARC
  5
F4
330
1F
100
AcDbEntity
  8
0
100
AcDbCircle
 10
-70.418448
 20
71.869291437
 30
0.0
 40
2.0
100
AcDbArc
 50
180.0
 51
270.0
  0
LINE
  5
F5
330
1F
100
AcDbEntity
  8
0
100
AcDbLine
 10
78.489552
 20
69.869291437
 30
0.0
 11
-70.418448
 21
69.869291437
 31
0.0
  0
ARC
  5
F6
330
1F
100
AcDbEntity
  8
0
100
AcDbCircle
 10
78.489552
 20
71.869291437
 30
0.0
 40
2.0
100
AcDbArc
 50
270.0
 51
0.0
  0
LINE
  5
F7
330
1F
100
AcDbEntity
  8
0
100
AcDbLine
 10
80.489552
 20
116.891291437
 30
0.0
 11
80.489552
 21
71.869291437
 31
0.0
  0
ARC
  5
F8
330
1F
100
AcDbEntity
  8
0
100
AcDbCircle
 10
78.489552
 20
116.891291437
 30
0.0
 40
2.0
100
AcDbArc
 50
0.0
 51
90.0
  0
LINE
  5
F9
330
1F
100
AcDbEntity
  8
0
100
AcDbLine
 10
-70.418448
 20
118.891291437
 30
0.0
 11
78.489552
 21
118.891291437
 31
0.0
  0
CIRCLE
  5
FA
330
1F
100
AcDbEntity
  8
0
100
AcDbCircle
 10
-83.464448
 20
-70.9937664832
 30
0.0
 40
2.705100000000002
  0
CIRCLE
  5
FB
330
1F
100
AcDbEntity
  8
0
100
AcDbCircle
 10
-83.464448
 20
-105.1019751232
 30
0.0
 40
2.705100000000002
  0
CIRCLE
  5
FC
330
1F
100
AcDbEntity
  8
0
100
AcDbCircle
 10
-83.464448
 20
73.0062335168
 30
0.0
 40
2.705100000000002
  0
CIRCLE
  5
FD
330
1F
100
AcDbEntity
  8
0
100
AcDbCircle
 10
-83.464448
 20
49.0062335168
 30
0.0
 40
2.705100000000002
  0
CIRCLE
  5
FE
330
1F
100
AcDbEntity
  8
0
100
AcDbCircle
 10
-83.464448
 20
25.0062335168
 30
0.0
 40
2.705100000000002
  0
CIRCLE
  5
FF
330
1F
100
AcDbEntity
  8
0
100
AcDbCircle
 10
-83.464448
 20
1.0062335168
 30
0.0
 40
2.705100000000002
  0
CIRCLE
  5
100
330
1F
100
AcDbEntity
  8
0
100
AcDbCircle
 10
-83.464448
 20
-22.9937664832
 30
0.0
 40
2.705100000000002
  0
CIRCLE
  5
101
330
1F
100
AcDbEntity
  8
0
100
AcDbCircle
 10
-83.464448
 20
-46.9937664832
 30
0.0
 40
2.705100000000002
  0
CIRCLE
  5
102
330
1F
100
AcDbEntity
  8
0
100
AcDbCircle
 10
91.535552
 20
-70.9937664832
 30
0.0
 40
2.705100000000002
  0
CIRCLE
  5
103
330
1F
100
AcDbEntity
  8
0
100
AcDbCircle
 10
91.535552
 20
-105.1019751232
 30
0.0
 40
2.705100000000002
  0
CIRCLE
  5
104
330
1F
100
AcDbEntity
  8
0
100
AcDbCircle
 10
91.535552
 20
73.0062335168
 30
0.0
 40
2.705100000000002
  0
CIRCLE
  5
105
330
1F
100
AcDbEntity
  8
0
100
AcDbCircle
 10
91.535552
 20
49.0062335168
 30
0.0
 40
2.705100000000002
  0
CIRCLE
  5
106
330
1F
100
AcDbEntity
  8
0
100
AcDbCircle
 10
91.535552
 20
25.0062335168
 30
0.0
 40
2.705100000000002
  0
CIRCLE
  5
107
330
1F
100
AcDbEntity
  8
0
100
AcDbCircle
 10
91.535552
 20
1.0062335168
 30
0.0
 40
2.705100000000002
  0
CIRCLE
  5
108
330
1F
100
AcDbEntity
  8
0
100
AcDbCircle
 10
91.535552
 20
-22.9937664832
 30
0.0
 40
2.705100000000002
  0
CIRCLE
  5
109
330
1F
100
AcDbEntity
  8
0
100
AcDbCircle
 10
91.535552
 20
-46.9937664832
 30
0.0
 40
2.705100000000002
  0
CIRCLE
  5
10A
330
1F
100
AcDbEntity
  8
0
100
AcDbCircle
 10
467.1411660771
 20
32.0190555277
 30
0.0
 40
2.705100000000016
  0
CIRCLE
  5
10B
330
1F
100
AcDbEntity
  8
0
100
AcDbCircle
 10
385.1411660771
 20
-104.9809444723
 30
0.0
 40
2.705100000000016
  0
CIRCLE
  5
10C
330
1F
100
AcDbEntity
  8
0
100
AcDbCircle
 10
431.1411660771
 20
-104.9809444723
 30
0.0
 40
2.705100000000016
  0
CIRCLE
  5
10D
330
1F
100
AcDbEntity
  8
0
100
AcDbCircle
 10
434.9565387477
 20
55.0190555277
 30
0.0
 40
2.705100000000016
  0
CIRCLE
  5
10E
330
1F
100
AcDbEntity
  8
0
100
AcDbCircle
 10
433.1411660771
 20
-28.9809444723
 30
0.0
 40
2.705100000000016
  0
CIRCLE
  5
10F
330
1F
100
AcDbEntity
  8
0
100
AcDbCircle
 10
467.1411660771
 20
-26.6451712723
 30
0.0
 40
2.705100000000016
  0
CIRCLE
  5
110
330
1F
100
AcDbEntity
  8
0
100
AcDbCircle
 10
400.8796391495
 20
80.8499415205
 30
0.0
 40
2.705100000000016
  0
CIRCLE
  5
111
330
1F
100
AcDbEntity
  8
0
100
AcDbCircle
 10
384.4359653133
 20
60.6296165288
 30
0.0
 40
5.715000000000032
  0
CIRCLE
  5
112
330
1F
100
AcDbEntity
  8
0
100
AcDbCircle
 10
401.4359653133
 20
60.6296165288
 30
0.0
 40
5.715000000000032
  0
CIRCLE
  5
113
330
1F
100
AcDbEntity
  8
0
100
AcDbCircle
 10
418.4359653133
 20
60.6296165288
 30
0.0
 40
5.715000000000032
  0
CIRCLE
  5
114
330
1F
100
AcDbEntity
  8
0
100
AcDbCircle
 10
384.4359653133
 20
37.8796165288
 30
0.0
 40
5.715000000000032
  0
CIRCLE
  5
115
330
1F
100
AcDbEntity
  8
0
100
AcDbCircle
 10
401.4359653133
 20
37.8796165288
 30
0.0
 40
5.715000000000032
  0
CIRCLE
  5
116
330
1F
100
AcDbEntity
  8
0
100
AcDbCircle
 10
418.4359653133
 20
37.8796165288
 30
0.0
 40
5.715000000000032
  0
CIRCLE
  5
117
330
1F
100
AcDbEntity
  8
0
100
AcDbCircle
 10
435.4359653133
 20
37.8796165288
 30
0.0
 40
5.715000000000032
  0
CIRCLE
  5
118
330
1F
100
AcDbEntity
  8
0
100
AcDbCircle
 10
452.4359653133
 20
37.8796165288
 30
0.0
 40
5.715000000000032
  0
CIRCLE
  5
119
330
1F
100
AcDbEntity
  8
0
100
AcDbCircle
 10
384.4359653133
 20
15.1296165288
 30
0.0
 40
5.715000000000032
  0
CIRCLE
  5
11A
330
1F
100
AcDbEntity
  8
0
100
AcDbCircle
 10
401.4359653133
 20
15.1296165288
 30
0.0
 40
5.715000000000032
  0
CIRCLE
  5
11B
330
1F
100
AcDbEntity
  8
0
100
AcDbCircle
 10
418.4359653133
 20
15.1296165288
 30
0.0
 40
5.715000000000032
  0
CIRCLE
  5
11C
330
1F
100
AcDbEntity
  8
0
100
AcDbCircle
 10
435.4359653133
 20
15.1296165288
 30
0.0
 40
5.715000000000032
  0
CIRCLE
  5
11D
330
1F
100
AcDbEntity
  8
0
100
AcDbCircle
 10
452.4359653133
 20
15.1296165288
 30
0.0
 40
5.715000000000032
  0
CIRCLE
  5
11E
330
1F
100
AcDbEntity
  8
0
100
AcDbCircle
 10
469.4359653133
 20
15.1296165288
 30
0.0
 40
5.715000000000032
  0
CIRCLE
  5
11F
330
1F
100
AcDbEntity
  8
0
100
AcDbCircle
 10
384.4359653133
 20
-7.6203834712
 30
0.0
 40
5.715000000000032
  0
CIRCLE
  5
120
330
1F
100
AcDbEntity
  8
0
100
AcDbCircle
 10
401.4359653133
 20
-7.6203834712
 30
0.0
 40
5.715000000000032
  0
CIRCLE
  5
121
330
1F
100
AcDbEntity
  8
0
100
AcDbCircle
 10
418.4359653133
 20
-7.6203834712
 30
0.0
 40
5.715000000000032
  0
CIRCLE
  5
122
330
1F
100
AcDbEntity
  8
0
100
AcDbCircle
 10
435.4359653133
 20
-7.6203834712
 30
0.0
 40
5.715000000000032
  0
CIRCLE
  5
123
330
1F
100
AcDbEntity
  8
0
100
AcDbCircle
 10
452.4359653133
 20
-7.6203834712
 30
0.0
 40
5.715000000000032
  0
CIRCLE
  5
124
330
1F
100
AcDbEntity
  8
0
100
AcDbCircle
 10
469.4359653133
 20
-7.6203834712
 30
0.0
 40
5.715000000000032
  0
CIRCLE
  5
125
330
1F
100
AcDbEntity
  8
0
100
AcDbCircle
 10
384.4359653133
 20
-30.3703834712
 30
0.0
 40
5.715000000000032
  0
CIRCLE
  5
126
330
1F
100
AcDbEntity
  8
0
100
AcDbCircle
 10
401.4359653133
 20
-30.3703834712
 30
0.0
 40
5.715000000000032
  0
CIRCLE
  5
127
330
1F
100
AcDbEntity
  8
0
100
AcDbCircle
 10
418.4359653133
 20
-30.3703834712
 30
0.0
 40
5.715000000000032
  0
CIRCLE
  5
128
330
1F
100
AcDbEntity
  8
0
100
AcDbCircle
 10
384.4359653133
 20
-53.1203834712
 30
0.0
 40
5.715000000000032
  0
CIRCLE
  5
129
330
1F
100
AcDbEntity
  8
0
100
AcDbCircle
 10
401.4359653133
 20
-53.1203834712
 30
0.0
 40
5.715000000000032
  0
CIRCLE
  5
12A
330
1F
100
AcDbEntity
  8
0
100
AcDbCircle
 10
418.4359653133
 20
-53.1203834712
 30
0.0
 40
5.715000000000032
  0
CIRCLE
  5
12B
330
1F
100
AcDbEntity
  8
0
100
AcDbCircle
 10
384.4359653133
 20
-75.8703834712
 30
0.0
 40
5.715000000000032
  0
CIRCLE
  5
12C
330
1F
100
AcDbEntity
  8
0
100
AcDbCircle
 10
401.4359653133
 20
-75.8703834712
 30
0.0
 40
5.715000000000032
  0
CIRCLE
  5
12D
330
1F
100
AcDbEntity
  8
0
100
AcDbCircle
 10
418.4359653133
 20
-75.8703834712
 30
0.0
 40
5.715000000000032
  0
CIRCLE
  5
12E
330
1F
100
AcDbEntity
  8
0
100
AcDbCircle
 10
401.4359653133
 20
-98.6203834712
 30
0.0
 40
5.715000000000032
  0
CIRCLE
  5
12F
330
1F
100
AcDbEntity
  8
0
100
AcDbCircle
 10
418.4359653133
 20
-98.6203834712
 30
0.0
 40
5.715000000000032
  0
CIRCLE
  5
130
330
1F
100
AcDbEntity
  8
0
100
AcDbCircle
 10
-482.0730674402
 20
-3.5387319184
 30
0.0
 40
2.705100000000011
  0
CIRCLE
  5
131
330
1F
100
AcDbEntity
  8
0
100
AcDbCircle
 10
-441.8346657805
 20
74.3490187111
 30
0.0
 40
2.705099999999956
  0
CIRCLE
  5
132
330
1F
100
AcDbEntity
  8
0
100
AcDbCircle
 10
-422.8724975506
 20
87.3657839014
 30
0.0
 40
2.705099999999955
  0
CIRCLE
  5
133
330
1F
100
AcDbEntity
  8
0
100
AcDbCircle
 10
-460.7968340104
 20
61.3322535208
 30
0.0
 40
2.705100000000013
  0
CIRCLE
  5
134
330
1F
100
AcDbEntity
  8
0
100
AcDbCircle
 10
-256.474448
 20
142.6727286389
 30
0.0
 40
2.705099999999962
  0
CIRCLE
  5
135
330
1F
100
AcDbEntity
  8
0
100
AcDbCircle
 10
-403.9103293206
 20
100.3825490918
 30
0.0
 40
2.705100000000013
  0
CIRCLE
  5
136
330
1F
100
AcDbEntity
  8
0
100
AcDbCircle
 10
-384.9481610907
 20
113.3993142821
 30
0.0
 40
2.705100000000013
  0
CIRCLE
  5
137
330
1F
100
AcDbEntity
  8
0
100
AcDbCircle
 10
-483.5123584594
 20
-24.4893510349
 30
0.0
 40
2.705100000000011
  0
CIRCLE
  5
138
330
1F
100
AcDbEntity
  8
0
100
AcDbCircle
 10
-480.6337764209
 20
17.411887198
 30
0.0
 40
2.705100000000013
  0
CIRCLE
  5
139
330
1F
100
AcDbEntity
  8
0
100
AcDbCircle
 10
-140.474448
 20
142.6727286389
 30
0.0
 40
2.705099999999987
  0
CIRCLE
  5
13A
330
1F
100
AcDbEntity
  8
0
100
AcDbCircle
 10
-198.474448
 20
142.6727286389
 30
0.0
 40
2.705099999999987
  0
CIRCLE
  5
13B
330
1F
100
AcDbEntity
  8
0
100
AcDbCircle
 10
-227.474448
 20
142.6727286389
 30
0.0
 40
2.705099999999987
  0
CIRCLE
  5
13C
330
1F
100
AcDbEntity
  8
0
100
AcDbCircle
 10
-169.474448
 20
142.6727286389
 30
0.0
 40
2.705099999999987
  0
CIRCLE
  5
13D
330
1F
100
AcDbEntity
  8
0
100
AcDbCircle
 10
-111.474448
 20
142.6727286389
 30
0.0
 40
2.705100000000002
  0
CIRCLE
  5
13E
330
1F
100
AcDbEntity
  8
0
100
AcDbCircle
 10
-82.474448
 20
142.6727286389
 30
0.0
 40
2.705100000000002
  0
CIRCLE
  5
13F
330
1F
100
AcDbEntity
  8
0
100
AcDbCircle
 10
490.1441714402
 20
-3.5387319184
 30
0.0
 40
2.705100000000011
  0
CIRCLE
  5
140
330
1F
100
AcDbEntity
  8
0
100
AcDbCircle
 10
449.9057697805
 20
74.3490187111
 30
0.0
 40
2.705099999999956
  0
CIRCLE
  5
141
330
1F
100
AcDbEntity
  8
0
100
AcDbCircle
 10
430.9436015506
 20
87.3657839014
 30
0.0
 40
2.705099999999956
  0
CIRCLE
  5
142
330
1F
100
AcDbEntity
  8
0
100
AcDbCircle
 10
468.8679380104
 20
61.3322535208
 30
0.0
 40
2.705100000000013
  0
CIRCLE
  5
143
330
1F
100
AcDbEntity
  8
0
100
AcDbCircle
 10
264.545552
 20
142.6727286389
 30
0.0
 40
2.705099999999989
  0
CIRCLE
  5
144
330
1F
100
AcDbEntity
  8
0
100
AcDbCircle
 10
411.9814333206
 20
100.3825490918
 30
0.0
 40
2.705099999999955
  0
CIRCLE
  5
145
330
1F
100
AcDbEntity
  8
0
100
AcDbCircle
 10
393.0192650907
 20
113.3993142821
 30
0.0
 40
2.705100000000013
  0
CIRCLE
  5
146
330
1F
100
AcDbEntity
  8
0
100
AcDbCircle
 10
491.5834624594
 20
-24.4893510349
 30
0.0
 40
2.705100000000011
  0
CIRCLE
  5
147
330
1F
100
AcDbEntity
  8
0
100
AcDbCircle
 10
488.7048804209
 20
17.411887198
 30
0.0
 40
2.705100000000011
  0
CIRCLE
  5
148
330
1F
100
AcDbEntity
  8
0
100
AcDbCircle
 10
148.545552
 20
142.6727286389
 30
0.0
 40
2.705099999999987
  0
CIRCLE
  5
149
330
1F
100
AcDbEntity
  8
0
100
AcDbCircle
 10
206.545552
 20
142.6727286389
 30
0.0
 40
2.705099999999987
  0
CIRCLE
  5
14A
330
1F
100
AcDbEntity
  8
0
100
AcDbCircle
 10
235.545552
 20
142.6727286389
 30
0.0
 40
2.705099999999987
  0
CIRCLE
  5
14B
330
1F
100
AcDbEntity
  8
0
100
AcDbCircle
 10
177.545552
 20
142.6727286389
 30
0.0
 40
2.705099999999987
  0
CIRCLE
  5
14C
330
1F
100
AcDbEntity
  8
0
100
AcDbCircle
 10
119.545552
 20
142.6727286389
 30
0.0
 40
2.705100000000002
  0
CIRCLE
  5
14D
330
1F
100
AcDbEntity
  8
0
100
AcDbCircle
 10
90.545552
 20
142.6727286389
 30
0.0
 40
2.705100000000002
  0
LINE
  5
14E
330
1F
100
AcDbEntity
  8
0
100
AcDbLine
 10
-290.6557820027
 20
-83.864275287
 30
0.0
 11
-290.6557820027
 21
-110.764275287
 31
0.0
  0
LINE
  5
14F
330
1F
100
AcDbEntity
  8
0
100
AcDbLine
 10
-290.6557820027
 20
-110.764275287
 30
0.0
 11
-278.5057820027
 21
-110.764275287
 31
0.0
  0
LINE
  5
150
330
1F
100
AcDbEntity
  8
0
100
AcDbLine
 10
-278.5057820027
 20
-110.764275287
 30
0.0
 11
-278.5057820027
 21
-83.864275287
 31
0.0
  0
LINE
  5
151
330
1F
100
AcDbEntity
  8
0
100
AcDbLine
 10
-278.5057820027
 20
-83.864275287
 30
0.0
 11
-290.6557820027
 21
-83.864275287
 31
0.0
  0
LINE
  5
152
330
1F
100
AcDbEntity
  8
0
100
AcDbLine
 10
-272.6557820027
 20
-83.864275287
 30
0.0
 11
-272.6557820027
 21
-110.764275287
 31
0.0
  0
LINE
  5
153
330
1F
100
AcDbEntity
  8
0
100
AcDbLine
 10
-272.6557820027
 20
-110.764275287
 30
0.0
 11
-260.5057820027
 21
-110.764275287
 31
0.0
  0
LINE
  5
154
330
1F
100
AcDbEntity
  8
0
100
AcDbLine
 10
-260.5057820027
 20
-110.764275287
 30
0.0
 11
-260.5057820027
 21
-83.864275287
 31
0.0
  0
LINE
  5
155
330
1F
100
AcDbEntity
  8
0
100
AcDbLine
 10
-260.5057820027
 20
-83.864275287
 30
0.0
 11
-272.6557820027
 21
-83.864275287
 31
0.0
  0
CIRCLE
  5
156
330
1F
100
AcDbEntity
  8
0
100
AcDbCircle
 10
4.035552
 20
-123.9494373
 30
0.0
 40
2.705100000000008
  0
CIRCLE
  5
157
330
1F
100
AcDbEntity
  8
0
100
AcDbCircle
 10
385.035552
 20
-123.9494373
 30
0.0
 40
2.705100000000016
  0
CIRCLE
  5
158
330
1F
100
AcDbEntity
  8
0
100
AcDbCircle
 10
359.635552
 20
-123.9494373
 30
0.0
 40
2.705100000000016
  0
CIRCLE
  5
159
330
1F
100
AcDbEntity
  8
0
100
AcDbCircle
 10
334.235552
 20
-123.9494373
 30
0.0
 40
2.705100000000016
  0
CIRCLE
  5
15A
330
1F
100
AcDbEntity
  8
0
100
AcDbCircle
 10
308.835552
 20
-123.9494373
 30
0.0
 40
2.705100000000016
  0
CIRCLE
  5
15B
330
1F
100
AcDbEntity
  8
0
100
AcDbCircle
 10
283.435552
 20
-123.9494373
 30
0.0
 40
2.705100000000016
  0
CIRCLE
  5
15C
330
1F
100
AcDbEntity
  8
0
100
AcDbCircle
 10
258.035552
 20
-123.9494373
 30
0.0
 40
2.705100000000016
  0
CIRCLE
  5
15D
330
1F
100
AcDbEntity
  8
0
100
AcDbCircle
 10
232.635552
 20
-123.9494373
 30
0.0
 40
2.705100000000016
  0
CIRCLE
  5
15E
330
1F
100
AcDbEntity
  8
0
100
AcDbCircle
 10
207.235552
 20
-123.9494373
 30
0.0
 40
2.705099999999987
  0
CIRCLE
  5
15F
330
1F
100
AcDbEntity
  8
0
100
AcDbCircle
 10
181.835552
 20
-123.9494373
 30
0.0
 40
2.705100000000016
  0
CIRCLE
  5
160
330
1F
100
AcDbEntity
  8
0
100
AcDbCircle
 10
156.435552
 20
-123.9494373
 30
0.0
 40
2.705100000000016
  0
CIRCLE
  5
161
330
1F
100
AcDbEntity
  8
0
100
AcDbCircle
 10
131.035552
 20
-123.9494373
 30
0.0
 40
2.705099999999987
  0
CIRCLE
  5
162
330
1F
100
AcDbEntity
  8
0
100
AcDbCircle
 10
105.635552
 20
-123.9494373
 30
0.0
 40
2.705100000000002
  0
CIRCLE
  5
163
330
1F
100
AcDbEntity
  8
0
100
AcDbCircle
 10
80.235552
 20
-123.9494373
 30
0.0
 40
2.705100000000002
  0
CIRCLE
  5
164
330
1F
100
AcDbEntity
  8
0
100
AcDbCircle
 10
54.835552
 20
-123.9494373
 30
0.0
 40
2.705100000000002
  0
CIRCLE
  5
165
330
1F
100
AcDbEntity
  8
0
100
AcDbCircle
 10
29.435552
 20
-123.9494373
 30
0.0
 40
2.705100000000009
  0
CIRCLE
  5
166
330
1F
100
AcDbEntity
  8
0
100
AcDbCircle
 10
-427.764448
 20
-123.9494373
 30
0.0
 40
2.705100000000016
  0
CIRCLE
  5
167
330
1F
100
AcDbEntity
  8
0
100
AcDbCircle
 10
-402.364448
 20
-123.9494373
 30
0.0
 40
2.705100000000016
  0
CIRCLE
  5
168
330
1F
100
AcDbEntity
  8
0
100
AcDbCircle
 10
-376.964448
 20
-123.9494373
 30
0.0
 40
2.705100000000016
  0
CIRCLE
  5
169
330
1F
100
AcDbEntity
  8
0
100
AcDbCircle
 10
-351.564448
 20
-123.9494373
 30
0.0
 40
2.705100000000016
  0
CIRCLE
  5
16A
330
1F
100
AcDbEntity
  8
0
100
AcDbCircle
 10
-326.164448
 20
-123.9494373
 30
0.0
 40
2.705100000000016
  0
CIRCLE
  5
16B
330
1F
100
AcDbEntity
  8
0
100
AcDbCircle
 10
-300.764448
 20
-123.9494373
 30
0.0
 40
2.705100000000016
  0
CIRCLE
  5
16C
330
1F
100
AcDbEntity
  8
0
100
AcDbCircle
 10
-275.364448
 20
-123.9494373
 30
0.0
 40
2.705100000000016
  0
CIRCLE
  5
16D
330
1F
100
AcDbEntity
  8
0
100
AcDbCircle
 10
-249.964448
 20
-123.9494373
 30
0.0
 40
2.705100000000016
  0
CIRCLE
  5
16E
330
1F
100
AcDbEntity
  8
0
100
AcDbCircle
 10
-224.564448
 20
-123.9494373
 30
0.0
 40
2.705100000000016
  0
CIRCLE
  5
16F
330
1F
100
AcDbEntity
  8
0
100
AcDbCircle
 10
-199.164448
 20
-123.9494373
 30
0.0
 40
2.705099999999987
  0
CIRCLE
  5
170
330
1F
100
AcDbEntity
  8
0
100
AcDbCircle
 10
-173.764448
 20
-123.9494373
 30
0.0
 40
2.705100000000016
  0
CIRCLE
  5
171
330
1F
100
AcDbEntity
  8
0
100
AcDbCircle
 10
-148.364448
 20
-123.9494373
 30
0.0
 40
2.705100000000016
  0
CIRCLE
  5
172
330
1F
100
AcDbEntity
  8
0
100
AcDbCircle
 10
-122.964448
 20
-123.9494373
 30
0.0
 40
2.705100000000002
  0
CIRCLE
  5
173
330
1F
100
AcDbEntity
  8
0
100
AcDbCircle
 10
-97.564448
 20
-123.9494373
 30
0.0
 40
2.705100000000002
  0
CIRCLE
  5
174
330
1F
100
AcDbEntity
  8
0
100
AcDbCircle
 10
-72.164448
 20
-123.9494373
 30
0.0
 40
2.705100000000002
  0
CIRCLE
  5
175
330
1F
100
AcDbEntity
  8
0
100
AcDbCircle
 10
-46.764448
 20
-123.9494373
 30
0.0
 40
2.705100000000002
  0
CIRCLE
  5
176
330
1F
100
AcDbEntity
  8
0
100
AcDbCircle
 10
-21.364448
 20
-123.9494373
 30
0.0
 40
2.705100000000005
  0
CIRCLE
  5
177
330
1F
100
AcDbEntity
  8
0
100
AcDbCircle
 10
410.435552
 20
-123.9494373
 30
0.0
 40
2.705100000000016
  0
CIRCLE
  5
178
330
1F
100
AcDbEntity
  8
0
100
AcDbCircle
 10
435.835552
 20
-123.9494373
 30
0.0
 40
2.705100000000016
  0
ARC
  5
179
330
1F
100
AcDbEntity
  8
0
100
AcDbCircle
 10
-386.1463322312
 20
-72.314275287
 30
0.0
 40
4.950000000000046
100
AcDbArc
 50
216.0911572378
 51
323.9088427622
  0
LINE
  5
17A
330
1F
100
AcDbEntity
  8
0
100
AcDbLine
 10
-382.1463322312
 20
-69.3983706246
 30
0.0
 11
-382.1463322312
 21
-75.2301799493
 31
0.0
  0
ARC
  5
17B
330
1F
100
AcDbEntity
  8
0
100
AcDbCircle
 10
-386.1463322312
 20
-72.314275287
 30
0.0
 40
4.950000000000055
100
AcDbArc
 50
36.0911572378
 51
143.9088427622
  0
LINE
  5
17C
330
1F
100
AcDbEntity
  8
0
100
AcDbLine
 10
-390.1463322312
 20
-69.3983706246
 30
0.0
 11
-390.1463322312
 21
-75.2301799493
 31
0.0
  0
ARC
  5
17D
330
1F
100
AcDbEntity
  8
0
100
AcDbCircle
 10
-413.1463322312
 20
-72.3142752869
 30
0.0
 40
4.950000000000009
100
AcDbArc
 50
216.0911572378
 51
323.9088427622
  0
LINE
  5
17E
330
1F
100
AcDbEntity
  8
0
100
AcDbLine
 10
-409.1463322312
 20
-69.3983706246
 30
0.0
 11
-409.1463322312
 21
-75.2301799493
 31
0.0
  0
ARC
  5
17F
330
1F
100
AcDbEntity
  8
0
100
AcDbCircle
 10
-413.1463322312
 20
-72.3142752869
 30
0.0
 40
4.95
100
AcDbArc
 50
36.0911572378
 51
143.9088427622
  0
LINE
  5
180
330
1F
100
AcDbEntity
  8
0
100
AcDbLine
 10
-417.1463322312
 20
-69.3983706246
 30
0.0
 11
-417.1463322312
 21
-75.2301799493
 31
0.0
  0
ARC
  5
181
330
1F
100
AcDbEntity
  8
0
100
AcDbCircle
 10
-413.1283446023
 20
-96.8273616651
 30
0.0
 40
6.999999999999999
100
AcDbArc
 50
26.7655005768
 51
153.2344994232
  0
LINE
  5
182
330
1F
100
AcDbEntity
  8
0
100
AcDbLine
 10
-419.3783446023
 20
-99.9797417184
 30
0.0
 11
-419.3783446023
 21
-93.6749816119
 31
0.0
  0
ARC
  5
183
330
1F
100
AcDbEntity
  8
0
100
AcDbCircle
 10
-413.1283446023
 20
-96.8273616651
 30
0.0
 40
6.999999999999999
100
AcDbArc
 50
206.7655005768
 51
333.2344994232
  0
LINE
  5
184
330
1F
100
AcDbEntity
  8
0
100
AcDbLine
 10
-406.8783446023
 20
-93.6749816119
 30
0.0
 11
-406.8783446023
 21
-99.9797417184
 31
0.0
  0
SPLINE
  5
185
330
1F
100
AcDbEntity
  8
0
100
AcDbSpline
210
0.0
220
0.0
230
1.0
 70
     8
 71
     4
 72
    10
 73
     5
 74
     0
 42
0.00000001
 43
0.00000001
 40
0.0
 40
0.0
 40
0.0
 40
0.0
 40
0.0
 40
1.0
 40
1.0
 40
1.0
 40
1.0
 40
1.0
 10
-492.851948
 20
8.627905801756384
 30
0.0
 10
-492.851948
 20
22.21990826848699
 30
0.0
 10
-474.9527322258106
 20
55.13243191430367
 30
0.0
 10
-473.3512244929694
 20
57.10551056678513
 30
0.0
 10
-471.9398252869844
 20
58.80903452087833
 30
0.0
  0
SPLINE
  5
186
330
1F
100
AcDbEntity
  8
0
100
AcDbSpline
210
0.0
220
0.0
230
1.0
 70
     8
 71
     8
 72
    18
 73
     9
 74
     0
 42
0.00000001
 43
0.00000001
 40
0.1471012988215429
 40
0.1471012988215429
 40
0.1471012988215429
 40
0.1471012988215429
 40
0.1471012988215429
 40
0.1471012988215429
 40
0.1471012988215429
 40
0.1471012988215429
 40
0.1471012988215429
 40
1.0
 40
1.0
 40
1.0
 40
1.0
 40
1.0
 40
1.0
 40
1.0
 40
1.0
 40
1.0
 10
-471.9398252869841
 20
58.80903452087831
 30
0.0
 10
-452.5079970370529
 20
82.04231856702171
 30
0.0
 10
-425.7601495415349
 20
107.183085518433
 30
0.0
 10
-388.5002172757083
 20
134.1347345718911
 30
0.0
 10
-328.2910441212425
 20
155.1143738200962
 30
0.0
 10
-240.6340165118361
 20
151.6983644213701
 30
0.0
 10
-140.1070437671837
 20
155.3320657488219
 30
0.0
 10
-75.5193972849936
 20
154.801029049497
 30
0.0
 10
4.035551999999924
 20
154.801029049497
 30
0.0
  0
SPLINE
  5
187
330
1F
100
AcDbEntity
  8
0
100
AcDbSpline
210
0.0
220
0.0
230
1.0
 70
     8
 71
     8
 72
    18
 73
     9
 74
     0
 42
0.00000001
 43
0.00000001
 40
0.0
 40
0.0
 40
0.0
 40
0.0
 40
0.0
 40
0.0
 40
0.0
 40
0.0
 40
0.0
 40
0.8528987011784573
 40
0.8528987011784573
 40
0.8528987011784573
 40
0.8528987011784573
 40
0.8528987011784573
 40
0.8528987011784573
 40
0.8528987011784573
 40
0.8528987011784573
 40
0.8528987011784573
 10
4.035551999999924
 20
154.801029049497
 30
0.0
 10
83.59050128499348
 20
154.801029049497
 30
0.0
 10
148.1781477671836
 20
155.332065748822
 30
0.0
 10
248.7051205118361
 20
151.6983644213701
 30
0.0
 10
336.3621481212426
 20
155.1143738200964
 30
0.0
 10
396.5713212757083
 20
134.1347345718912
 30
0.0
 10
433.8312535415351
 20
107.183085518433
 30
0.0
 10
460.579101037053
 20
82.0423185670218
 30
0.0
 10
480.0109292869843
 20
58.80903452087839
 30
0.0
  0
SPLINE
  5
188
330
1F
100
AcDbEntity
  8
0
100
AcDbSpline
210
0.0
220
0.0
230
1.0
 70
    24
 71
     8
 72
    18
 73
     9
 74
     0
 42
0.00000001
 43
0.00000001
 40
0.8528987011784573
 40
0.8528987011784573
 40
0.8528987011784573
 40
0.8528987011784573
 40
0.8528987011784573
 40
0.8528987011784573
 40
0.8528987011784573
 40
0.8528987011784573
 40
0.8528987011784573
 40
0.8528994625690083
 40
0.8528994625690083
 40
0.8528994625690083
 40
0.8528994625690083
 40
0.8528994625690083
 40
0.8528994625690083
 40
0.8528994625690083
 40
0.8528994625690083
 40
0.8528994625690083
 10
480.0109292869843
 20
58.80903452087839
 30
0.0
 10
480.0109466339569
 20
58.80901378031107
 30
0.0
 10
480.0109639809237
 20
58.80899303974526
 30
0.0
 10
480.0109813278847
 20
58.80897229918097
 30
0.0
 10
480.0109986748398
 20
58.8089515586182
 30
0.0
 10
480.0110160217891
 20
58.80893081805696
 30
0.0
 10
480.0110333687326
 20
58.80891007749723
 30
0.0
 10
480.0110507156703
 20
58.80888933693902
 30
0.0
 10
480.0110680626021
 20
58.80886859638233
 30
0.0
  0
SPLINE
  5
189
330
1F
100
AcDbEntity
  8
0
100
AcDbSpline
210
0.0
220
0.0
230
1.0
 70
     8
 71
     4
 72
    10
 73
     5
 74
     0
 42
0.00000001
 43
0.00000001
 40
0.0
 40
0.0
 40
0.0
 40
0.0
 40
0.0
 40
0.9999755559118175
 40
0.9999755559118175
 40
0.9999755559118175
 40
0.9999755559118175
 40
0.9999755559118175
 10
500.9230519999999
 20
8.627905801756505
 30
0.0
 10
500.9230519999999
 20
22.21957602438023
 30
0.0
 10
483.024711275133
 20
55.13082289258745
 30
0.0
 10
481.4224459643719
 20
57.10536582100006
 30
0.0
 10
480.0110672891333
 20
58.80886795555126
 30
0.0
  0
LINE
  5
18A
330
1F
100
AcDbEntity
  8
0
100
AcDbLine
 10
500.923052
 20
8.6279058018
 30
0.0
 11
500.923052
 21
-35.8504109616
 31
0.0
  0
LINE
  5
18B
330
1F
100
AcDbEntity
  8
0
100
AcDbLine
 10
500.923052
 20
-35.8504109616
 30
0.0
 11
440.9832912127
 21
-39.9682252811
 31
0.0
  0
LINE
  5
18C
330
1F
100
AcDbEntity
  8
0
100
AcDbLine
 10
440.9832912127
 20
-39.9682252811
 30
0.0
 11
443.1815075277
 21
-71.9659186832
 31
0.0
  0
LINE
  5
18D
330
1F
100
AcDbEntity
  8
0
100
AcDbLine
 10
443.1815075277
 20
-71.9659186832
 30
0.0
 11
500.923052
 21
-67.9991200918
 31
0.0
  0
LINE
  5
18E
330
1F
100
AcDbEntity
  8
0
100
AcDbLine
 10
500.923052
 20
-67.9991200918
 30
0.0
 11
500.923052
 21
-128.9494373
 31
0.0
  0
LINE
  5
18F
330
1F
100
AcDbEntity
  8
0
100
AcDbLine
 10
500.923052
 20
-128.9494373
 30
0.0
 11
-492.851948
 21
-128.9494373
 31
0.0
  0
LINE
  5
190
330
1F
100
AcDbEntity
  8
0
100
AcDbLine
 10
-492.851948
 20
-128.9494373
 30
0.0
 11
-492.851948
 21
-67.9991200918
 31
0.0
  0
LINE
  5
191
330
1F
100
AcDbEntity
  8
0
100
AcDbLine
 10
-492.851948
 20
-67.9991200918
 30
0.0
 11
-435.1104035277
 21
-71.9659186832
 31
0.0
  0
LINE
  5
192
330
1F
100
AcDbEntity
  8
0
100
AcDbLine
 10
-435.1104035277
 20
-71.9659186832
 30
0.0
 11
-432.9121872127
 21
-39.9682252811
 31
0.0
  0
LINE
  5
193
330
1F
100
AcDbEntity
  8
0
100
AcDbLine
 10
-432.9121872127
 20
-39.9682252811
 30
0.0
 11
-492.851948
 21
-35.8504109616
 31
0.0
  0
LINE
  5
194
330
1F
100
AcDbEntity
  8
0
100
AcDbLine
 10
-492.851948
 20
-35.8504109616
 30
0.0
 11
-492.851948
 21
8.6279058018
 31
0.0
  0
MTEXT
  5
196
330
1F
100
AcDbEntity
  8
0
  6
Continuous
 62
     7
100
AcDbMText
 10
-492.851948
 20
-129.9690036917
 30
0.0
 40
4.83362
 41
0.0
 71
     1
 72
     1
  1
SOLIDWORKS Maker Product.
  7
SLDTEXTSTYLE0
 73
     1
 44
1.0
  0
MTEXT
  5
197
330
1F
100
AcDbEntity
  8
0
  6
Continuous
 62
     7
100
AcDbMText
 10
-492.851948
 20
-137.2194336917
 30
0.0
 40
4.83362
 41
0.0
 71
     1
 72
     1
  1
For Personal Use Only.
  7
SLDTEXTSTYLE0
 73
     1
 44
1.0
  0
ENDSEC
  0
SECTION
  2
OBJECTS
  0
DICTIONARY
  5
C
330
0
100
AcDbDictionary
281
     1
  3
ACAD_GROUP
350
D
  3
ACAD_LAYOUT
350
1A
  3
ACAD_MLINESTYLE
350
17
  3
ACAD_PLOTSETTINGS
350
19
  3
ACAD_PLOTSTYLENAME
350
E
  3
ACAD_SCALELIST
350
47
  3
DWGPROPS
350
198
  0
DICTIONARY
  5
D
102
{ACAD_REACTORS
330
C
102
}
330
C
100
AcDbDictionary
281
     1
  0
DICTIONARY
  5
1A
102
{ACAD_REACTORS
330
C
102
}
330
C
100
AcDbDictionary
281
     1
  3
Layout1
350
1E
  3
Layout2
350
26
  3
Model
350
22
  0
DICTIONARY
  5
17
102
{ACAD_REACTORS
330
C
102
}
330
C
100
AcDbDictionary
281
     1
  3
Standard
350
18
  0
DICTIONARY
  5
19
102
{ACAD_REACTORS
330
C
102
}
330
C
100
AcDbDictionary
281
     1
  0
ACDBDICTIONARYWDFLT
  5
E
102
{ACAD_REACTORS
330
C
102
}
330
C
100
AcDbDictionary
281
     1
  3
Normal
350
F
100
AcDbDictionaryWithDefault
340
F
  0
DICTIONARY
  5
47
102
{ACAD_REACTORS
330
C
102
}
330
C
100
AcDbDictionary
281
     1
  3
A0
350
48
  3
A1
350
49
  3
A2
350
4A
  3
A3
350
4B
  3
A4
350
4C
  3
A5
350
4D
  3
A6
350
4E
  3
A7
350
4F
  3
A8
350
50
  3
A9
350
51
  3
B0
350
52
  3
B1
350
53
  3
B2
350
54
  3
B3
350
55
  3
B4
350
56
  3
B5
350
57
  3
B6
350
58
  0
XRECORD
  5
198
102
{ACAD_REACTORS
330
C
102
}
330
C
100
AcDbXrecord
280
     1
  1
DWGPROPS COOKIE
  2

  3

  4

  6

  7

  8
george
  9

300
=
301
=
302
=
303
=
304
=
305
=
306
=
307
=
308
=
309
=
 40
0.0
 41
2459897.924706285
 42
2459897.924814745
  1

 90
        0
  0
LAYOUT
  5
1E
102
{ACAD_REACTORS
330
1A
102
}
330
1A
100
AcDbPlotSettings
  1

  2
none_device
  4

  6

 40
0.0
 41
0.0
 42
0.0
 43
0.0
 44
0.0
 45
0.0
 46
0.0
 47
0.0
 48
0.0
 49
0.0
140
0.0
141
0.0
142
1.0
143
1.0
 70
   688
 72
     1
 73
     0
 74
     5
  7

 75
    16
147
1.0
148
0.0
149
0.0
100
AcDbLayout
  1
Layout1
 70
     1
 71
     1
 10
0.0
 20
0.0
 11
420.0
 21
297.0
 12
0.0
 22
0.0
 32
0.0
 14
1.0000000000E+20
 24
1.0000000000E+20
 34
1.0000000000E+20
 15
-1.0000000000E+20
 25
-1.0000000000E+20
 35
-1.0000000000E+20
146
0.0
 13
0.0
 23
0.0
 33
0.0
 16
1.0
 26
0.0
 36
0.0
 17
0.0
 27
1.0
 37
0.0
 76
     0
330
1B
  0
LAYOUT
  5
26
102
{ACAD_REACTORS
330
1A
102
}
330
1A
100
AcDbPlotSettings
  1

  2
none_device
  4

  6

 40
0.0
 41
0.0
 42
0.0
 43
0.0
 44
0.0
 45
0.0
 46
0.0
 47
0.0
 48
0.0
 49
0.0
140
0.0
141
0.0
142
1.0
143
1.0
 70
   688
 72
     1
 73
     0
 74
     5
  7

 75
    16
147
1.0
148
0.0
149
0.0
100
AcDbLayout
  1
Layout2
 70
     1
 71
     2
 10
0.0
 20
0.0
 11
0.0
 21
0.0
 12
0.0
 22
0.0
 32
0.0
 14
0.0
 24
0.0
 34
0.0
 15
0.0
 25
0.0
 35
0.0
146
0.0
 13
0.0
 23
0.0
 33
0.0
 16
1.0
 26
0.0
 36
0.0
 17
0.0
 27
1.0
 37
0.0
 76
     0
330
23
  0
LAYOUT
  5
22
102
{ACAD_REACTORS
330
1A
102
}
330
1A
100
AcDbPlotSettings
  1

  2
none_device
  4
ANSI_A_(11.00_x_8.50_Inches)
  6

 40
6.35
 41
19.05
 42
6.35000508
 43
19.05000254
 44
279.4
 45
215.9
 46
132.2267473314
 47
85.3022500507
 48
0.0
 49
0.0
140
0.0
141
0.0
142
0.0109582149
143
1.0
 70
  1696
 72
     0
 73
     0
 74
     0
  7

 75
     0
147
0.0179189148
148
-1300.4909072572
149
0.0
100
AcDbLayout
  1
Model
 70
     1
 71
     0
 10
0.0
 20
0.0
 11
420.0
 21
297.0
 12
0.0
 22
0.0
 32
0.0
 14
-492.851948
 24
-128.9494373
 34
0.0
 15
500.923052
 25
154.8010290495
 35
0.0
146
0.0
 13
0.0
 23
0.0
 33
0.0
 16
1.0
 26
0.0
 36
0.0
 17
0.0
 27
1.0
 37
0.0
 76
     0
330
1F
331
29
  0
MLINESTYLE
  5
18
102
{ACAD_REACTORS
330
17
102
}
330
17
100
AcDbMlineStyle
  2
Standard
 70
     0
  3

 62
   256
 51
90.0
 52
90.0
 71
     2
 49
0.5
 62
   256
  6
BYLAYER
 49
-0.5
 62
   256
  6
BYLAYER
  0
ACDBPLACEHOLDER
  5
F
102
{ACAD_REACTORS
330
E
102
}
330
E
  0
SCALE
  5
48
102
{ACAD_REACTORS
330
47
102
}
330
47
100
AcDbScale
 70
     0
300
1:1
140
1.0
141
1.0
290
     1
  0
SCALE
  5
49
102
{ACAD_REACTORS
330
47
102
}
330
47
100
AcDbScale
 70
     0
300
1:2
140
1.0
141
2.0
290
     0
  0
SCALE
  5
4A
102
{ACAD_REACTORS
330
47
102
}
330
47
100
AcDbScale
 70
     0
300
1:4
140
1.0
141
4.0
290
     0
  0
SCALE
  5
4B
102
{ACAD_REACTORS
330
47
102
}
330
47
100
AcDbScale
 70
     0
300
1:5
140
1.0
141
5.0
290
     0
  0
SCALE
  5
4C
102
{ACAD_REACTORS
330
47
102
}
330
47
100
AcDbScale
 70
     0
300
1:8
140
1.0
141
8.0
290
     0
  0
SCALE
  5
4D
102
{ACAD_REACTORS
330
47
102
}
330
47
100
AcDbScale
 70
     0
300
1:10
140
1.0
141
10.0
290
     0
  0
SCALE
  5
4E
102
{ACAD_REACTORS
330
47
102
}
330
47
100
AcDbScale
 70
     0
300
1:16
140
1.0
141
16.0
290
     0
  0
SCALE
  5
4F
102
{ACAD_REACTORS
330
47
102
}
330
47
100
AcDbScale
 70
     0
300
1:20
140
1.0
141
20.0
290
     0
  0
SCALE
  5
50
102
{ACAD_REACTORS
330
47
102
}
330
47
100
AcDbScale
 70
     0
300
1:30
140
1.0
141
30.0
290
     0
  0
SCALE
  5
51
102
{ACAD_REACTORS
330
47
102
}
330
47
100
AcDbScale
 70
     0
300
1:40
140
1.0
141
40.0
290
     0
  0
SCALE
  5
52
102
{ACAD_REACTORS
330
47
102
}
330
47
100
AcDbScale
 70
     0
300
1:50
140
1.0
141
50.0
290
     0
  0
SCALE
  5
53
102
{ACAD_REACTORS
330
47
102
}
330
47
100
AcDbScale
 70
     0
300
1:100
140
1.0
141
100.0
290
     0
  0
SCALE
  5
54
102
{ACAD_REACTORS
330
47
102
}
330
47
100
AcDbScale
 70
     0
300
2:1
140
2.0
141
1.0
290
     0
  0
SCALE
  5
55
102
{ACAD_REACTORS
330
47
102
}
330
47
100
AcDbScale
 70
     0
300
4:1
140
4.0
141
1.0
290
     0
  0
SCALE
  5
56
102
{ACAD_REACTORS
330
47
102
}
330
47
100
AcDbScale
 70
     0
300
8:1
140
8.0
141
1.0
290
     0
  0
SCALE
  5
57
102
{ACAD_REACTORS
330
47
102
}
330
47
100
AcDbScale
 70
     0
300
10:1
140
10.0
141
1.0
290
     0
  0
SCALE
  5
58
102
{ACAD_REACTORS
330
47
102
}
330
47
100
AcDbScale
 70
     0
300
100:1
140
100.0
141
1.0
290
     0
  0
ENDSEC
  0
EOF
