  0
SECTION
  2
HEADER
  9
$ACADVER
  1
AC1015
  9
$ACADMAINTVER
 70
     6
  9
$DWGCODEPAGE
  3
ANSI_1252
  9
$INSBASE
 10
0.0
 20
0.0
 30
0.0
  9
$EXTMIN
 10
-374.65
 20
-6.0
 30
0.0
  9
$EXTMAX
 10
374.65
 20
125.247490026
 30
0.0
  9
$LIMMIN
 10
0.0
 20
0.0
  9
$LIMMAX
 10
420.0
 20
297.0
  9
$ORTHOMODE
 70
     0
  9
$REGENMODE
 70
     1
  9
$FILLMODE
 70
     1
  9
$QTEXTMODE
 70
     0
  9
$MIRRTEXT
 70
     1
  9
$LTSCALE
 40
1.0
  9
$ATTMODE
 70
     1
  9
$TEXTSIZE
 40
6.35
  9
$TRACEWID
 40
1.0
  9
$TEXTSTYLE
  7
Standard
  9
$CLAYER
  8
0
  9
$CELTYPE
  6
ByLayer
  9
$CECOLOR
 62
   256
  9
$CELTSCALE
 40
1.0
  9
$DISPSILH
 70
     0
  9
$DIMSCALE
 40
1.0
  9
$DIMASZ
 40
5.9944
  9
$DIMEXO
 40
0.0
  9
$DIMDLI
 40
3.75
  9
$DIMRND
 40
0.0
  9
$DIMDLE
 40
0.0
  9
$DIMEXE
 40
0.9906
  9
$DIMTP
 40
0.0
  9
$DIMTM
 40
0.0
  9
$DIMTXT
 40
6.35
  9
$DIMCEN
 40
2.5
  9
$DIMTSZ
 40
0.0
  9
$DIMTOL
 70
     0
  9
$DIMLIM
 70
     0
  9
$DIMTIH
 70
     1
  9
$DIMTOH
 70
     1
  9
$DIMSE1
 70
     0
  9
$DIMSE2
 70
     0
  9
$DIMTAD
 70
     1
  9
$DIMZIN
 70
     1
  9
$DIMBLK
  1

  9
$DIMASO
 70
     1
  9
$DIMSHO
 70
     1
  9
$DIMPOST
  1

  9
$DIMAPOST
  1

  9
$DIMALT
 70
     0
  9
$DIMALTD
 70
     3
  9
$DIMALTF
 40
0.0393700787
  9
$DIMLFAC
 40
1.0
  9
$DIMTOFL
 70
     1
  9
$DIMTVP
 40
0.0
  9
$DIMTIX
 70
     0
  9
$DIMSOXD
 70
     0
  9
$DIMSAH
 70
     0
  9
$DIMBLK1
  1

  9
$DIMBLK2
  1

  9
$DIMSTYLE
  2
ISO-25
  9
$DIMCLRD
 70
     0
  9
$DIMCLRE
 70
     0
  9
$DIMCLRT
 70
     0
  9
$DIMTFAC
 40
1.0
  9
$DIMGAP
 40
1.524
  9
$DIMJUST
 70
     0
  9
$DIMSD1
 70
     0
  9
$DIMSD2
 70
     0
  9
$DIMTOLJ
 70
     0
  9
$DIMTZIN
 70
     1
  9
$DIMALTZ
 70
     0
  9
$DIMALTTZ
 70
     0
  9
$DIMUPT
 70
     0
  9
$DIMDEC
 70
     2
  9
$DIMTDEC
 70
     2
  9
$DIMALTU
 70
     2
  9
$DIMALTTD
 70
     3
  9
$DIMTXSTY
  7
Standard
  9
$DIMAUNIT
 70
     0
  9
$DIMADEC
 70
     2
  9
$DIMALTRND
 40
0.0
  9
$DIMAZIN
 70
     0
  9
$DIMDSEP
 70
    44
  9
$DIMATFIT
 70
     3
  9
$DIMFRAC
 70
     0
  9
$DIMLDRBLK
  1

  9
$DIMLUNIT
 70
     2
  9
$DIMLWD
 70
    -2
  9
$DIMLWE
 70
    -2
  9
$DIMTMOVE
 70
     0
  9
$LUNITS
 70
     2
  9
$LUPREC
 70
     2
  9
$SKETCHINC
 40
1.0
  9
$FILLETRAD
 40
0.0
  9
$AUNITS
 70
     0
  9
$AUPREC
 70
     2
  9
$MENU
  1
.
  9
$ELEVATION
 40
0.0
  9
$PELEVATION
 40
0.0
  9
$THICKNESS
 40
0.0
  9
$LIMCHECK
 70
     0
  9
$CHAMFERA
 40
0.0
  9
$CHAMFERB
 40
0.0
  9
$CHAMFERC
 40
0.0
  9
$CHAMFERD
 40
0.0
  9
$SKPOLY
 70
     0
  9
$TDCREATE
 40
2459907.929929884
  9
$TDUCREATE
 40
2459908.263263218
  9
$TDUPDATE
 40
2459907.93002603
  9
$TDUUPDATE
 40
2459908.263359364
  9
$TDINDWG
 40
0.0000000116
  9
$TDUSRTIMER
 40
0.0000000116
  9
$USRTIMER
 70
     1
  9
$ANGBASE
 50
0.0
  9
$ANGDIR
 70
     0
  9
$PDMODE
 70
     0
  9
$PDSIZE
 40
-1.0
  9
$PLINEWID
 40
0.0
  9
$SPLFRAME
 70
     0
  9
$SPLINETYPE
 70
     6
  9
$SPLINESEGS
 70
     8
  9
$HANDSEED
  5
20B
  9
$SURFTAB1
 70
     6
  9
$SURFTAB2
 70
     6
  9
$SURFTYPE
 70
     6
  9
$SURFU
 70
     6
  9
$SURFV
 70
     6
  9
$UCSBASE
  2

  9
$UCSNAME
  2

  9
$UCSORG
 10
0.0
 20
0.0
 30
0.0
  9
$UCSXDIR
 10
1.0
 20
0.0
 30
0.0
  9
$UCSYDIR
 10
0.0
 20
1.0
 30
0.0
  9
$UCSORTHOREF
  2

  9
$UCSORTHOVIEW
 70
     0
  9
$UCSORGTOP
 10
0.0
 20
0.0
 30
0.0
  9
$UCSORGBOTTOM
 10
0.0
 20
0.0
 30
0.0
  9
$UCSORGLEFT
 10
0.0
 20
0.0
 30
0.0
  9
$UCSORGRIGHT
 10
0.0
 20
0.0
 30
0.0
  9
$UCSORGFRONT
 10
0.0
 20
0.0
 30
0.0
  9
$UCSORGBACK
 10
0.0
 20
0.0
 30
0.0
  9
$PUCSBASE
  2

  9
$PUCSNAME
  2

  9
$PUCSORG
 10
0.0
 20
0.0
 30
0.0
  9
$PUCSXDIR
 10
1.0
 20
0.0
 30
0.0
  9
$PUCSYDIR
 10
0.0
 20
1.0
 30
0.0
  9
$PUCSORTHOREF
  2

  9
$PUCSORTHOVIEW
 70
     0
  9
$PUCSORGTOP
 10
0.0
 20
0.0
 30
0.0
  9
$PUCSORGBOTTOM
 10
0.0
 20
0.0
 30
0.0
  9
$PUCSORGLEFT
 10
0.0
 20
0.0
 30
0.0
  9
$PUCSORGRIGHT
 10
0.0
 20
0.0
 30
0.0
  9
$PUCSORGFRONT
 10
0.0
 20
0.0
 30
0.0
  9
$PUCSORGBACK
 10
0.0
 20
0.0
 30
0.0
  9
$USERI1
 70
     0
  9
$USERI2
 70
     0
  9
$USERI3
 70
     0
  9
$USERI4
 70
     0
  9
$USERI5
 70
     0
  9
$USERR1
 40
0.0
  9
$USERR2
 40
0.0
  9
$USERR3
 40
0.0
  9
$USERR4
 40
0.0
  9
$USERR5
 40
0.0
  9
$WORLDVIEW
 70
     1
  9
$SHADEDGE
 70
     3
  9
$SHADEDIF
 70
    70
  9
$TILEMODE
 70
     1
  9
$MAXACTVP
 70
    64
  9
$PINSBASE
 10
0.0
 20
0.0
 30
0.0
  9
$PLIMCHECK
 70
     0
  9
$PEXTMIN
 10
1.0000000000E+20
 20
1.0000000000E+20
 30
1.0000000000E+20
  9
$PEXTMAX
 10
-1.0000000000E+20
 20
-1.0000000000E+20
 30
-1.0000000000E+20
  9
$PLIMMIN
 10
0.0
 20
0.0
  9
$PLIMMAX
 10
420.0
 20
297.0
  9
$UNITMODE
 70
     0
  9
$VISRETAIN
 70
     1
  9
$PLINEGEN
 70
     0
  9
$PSLTSCALE
 70
     1
  9
$TREEDEPTH
 70
  3020
  9
$CMLSTYLE
  2
Standard
  9
$CMLJUST
 70
     0
  9
$CMLSCALE
 40
20.0
  9
$PROXYGRAPHICS
 70
     1
  9
$MEASUREMENT
 70
     1
  9
$CELWEIGHT
370
    -1
  9
$ENDCAPS
280
     0
  9
$JOINSTYLE
280
     0
  9
$LWDISPLAY
290
     1
  9
$INSUNITS
 70
     4
  9
$HYPERLINKBASE
  1

  9
$STYLESHEET
  1

  9
$XEDIT
290
     1
  9
$CEPSNTYPE
380
     0
  9
$PSTYLEMODE
290
     1
  9
$FINGERPRINTGUID
  2
{f4c4ccf7-d088-4e0b-964b-f149515c055b}
  9
$VERSIONGUID
  2
{FAEB1C32-E019-11D5-929B-00C0DF256EC4}
  9
$EXTNAMES
290
     1
  9
$PSVPSCALE
 40
0.0
  9
$OLESTARTUP
290
     0
  0
ENDSEC
  0
SECTION
  2
CLASSES
  0
CLASS
  1
ACDBDICTIONARYWDFLT
  2
AcDbDictionaryWithDefault
  3
ObjectDBX Classes
 90
        0
280
     0
281
     0
  0
CLASS
  1
VISUALSTYLE
  2
AcDbVisualStyle
  3
ObjectDBX Classes
 90
     4095
280
     0
281
     0
  0
CLASS
  1
MATERIAL
  2
AcDbMaterial
  3
ObjectDBX Classes
 90
     1153
280
     0
281
     0
  0
CLASS
  1
SCALE
  2
AcDbScale
  3
ObjectDBX Classes
 90
     1153
280
     0
281
     0
  0
CLASS
  1
TABLESTYLE
  2
AcDbTableStyle
  3
ObjectDBX Classes
 90
     4095
280
     0
281
     0
  0
CLASS
  1
MLEADERSTYLE
  2
AcDbMLeaderStyle
  3
ACDB_MLEADERSTYLE_CLASS
 90
     4095
280
     0
281
     0
  0
CLASS
  1
SUN
  2
AcDbSun
  3
SCENEOE
 90
     1153
280
     0
281
     0
  0
CLASS
  1
ACDBPLACEHOLDER
  2
AcDbPlaceHolder
  3
ObjectDBX Classes
 90
        0
280
     0
281
     0
  0
CLASS
  1
LAYOUT
  2
AcDbLayout
  3
ObjectDBX Classes
 90
        0
280
     0
281
     0
  0
ENDSEC
  0
SECTION
  2
TABLES
  0
TABLE
  2
VPORT
  5
8
330
0
100
AcDbSymbolTable
 70
     1
  0
VPORT
  5
29
330
8
100
AcDbSymbolTableRecord
100
AcDbViewportTableRecord
  2
*Active
 70
     0
 10
0.0
 20
0.0
 11
1.0
 21
1.0
 12
0.0
 22
59.623745013
 13
0.0
 23
0.0
 14
10.0
 24
10.0
 15
10.0
 25
10.0
 16
0.0
 26
0.0
 36
1.0
 17
0.0
 27
0.0
 37
0.0
 40
133.8724398266
 41
5.7090615588
 42
50.0
 43
0.0
 44
0.0
 50
0.0
 51
0.0
 71
     0
 72
   100
 73
     1
 74
     3
 75
     0
 76
     0
 77
     0
 78
     0
281
     0
 65
     1
110
0.0
120
0.0
130
0.0
111
1.0
121
0.0
131
0.0
112
0.0
122
1.0
132
0.0
 79
     0
146
0.0
  0
ENDTAB
  0
TABLE
  2
LTYPE
  5
5
330
0
100
AcDbSymbolTable
 70
     6
  0
LTYPE
  5
14
330
5
100
AcDbSymbolTableRecord
100
AcDbLinetypeTableRecord
  2
ByBlock
 70
     0
  3

 72
    65
 73
     0
 40
0.0
  0
LTYPE
  5
15
330
5
100
AcDbSymbolTableRecord
100
AcDbLinetypeTableRecord
  2
ByLayer
 70
     0
  3

 72
    65
 73
     0
 40
0.0
  0
LTYPE
  5
16
330
5
100
AcDbSymbolTableRecord
100
AcDbLinetypeTableRecord
  2
Continuous
 70
     0
  3
Solid line
 72
    65
 73
     0
 40
0.0
  0
LTYPE
  5
5E
330
5
100
AcDbSymbolTableRecord
100
AcDbLinetypeTableRecord
  2
HIDDEN
 70
     0
  3
Hidden __ __ __ __ __ __ __ __ __ __ __ __ __ __
 72
    65
 73
     2
 40
1.905
 49
1.27
 74
     0
 49
-0.635
 74
     0
  0
LTYPE
  5
5F
330
5
100
AcDbSymbolTableRecord
100
AcDbLinetypeTableRecord
  2
PHANTOM
 70
     0
  3
Phantom ______  __  __  ______  __  __  ______
 72
    65
 73
     6
 40
12.7
 49
6.35
 74
     0
 49
-1.27
 74
     0
 49
1.27
 74
     0
 49
-1.27
 74
     0
 49
1.27
 74
     0
 49
-1.27
 74
     0
  0
LTYPE
  5
60
330
5
100
AcDbSymbolTableRecord
100
AcDbLinetypeTableRecord
  2
CENTER
 70
     0
  3
Center ____ _ ____ _ ____ _ ____ _ ____ _ ____
 72
    65
 73
     4
 40
10.16
 49
6.35
 74
     0
 49
-1.27
 74
     0
 49
1.27
 74
     0
 49
-1.27
 74
     0
  0
LTYPE
  5
61
330
5
100
AcDbSymbolTableRecord
100
AcDbLinetypeTableRecord
  2
CENTERX2
 70
     0
  3
Center (2x) ________  __  ________  __  _____
 72
    65
 73
     4
 40
20.32
 49
12.7
 74
     0
 49
-2.54
 74
     0
 49
2.54
 74
     0
 49
-2.54
 74
     0
  0
LTYPE
  5
62
330
5
100
AcDbSymbolTableRecord
100
AcDbLinetypeTableRecord
  2
DOT2
 70
     0
  3
Dot (.5x) ........................................
 72
    65
 73
     2
 40
0.635
 49
0.0
 74
     0
 49
-0.635
 74
     0
  0
ENDTAB
  0
TABLE
  2
LAYER
  5
2
330
0
100
AcDbSymbolTable
 70
     3
  0
LAYER
  5
10
330
2
100
AcDbSymbolTableRecord
100
AcDbLayerTableRecord
  2
0
 70
     0
 62
     7
  6
Continuous
370
    -3
390
F
  0
LAYER
  5
63
330
2
100
AcDbSymbolTableRecord
100
AcDbLayerTableRecord
  2
1
 70
     0
 62
     1
  6
Continuous
370
    -3
390
F
  0
LAYER
  5
64
330
2
100
AcDbSymbolTableRecord
100
AcDbLayerTableRecord
  2
2
 70
     0
 62
     5
  6
Continuous
370
    -3
390
F
  0
ENDTAB
  0
TABLE
  2
STYLE
  5
3
330
0
100
AcDbSymbolTable
 70
     2
  0
STYLE
  5
11
330
3
100
AcDbSymbolTableRecord
100
AcDbTextStyleTableRecord
  2
Standard
 70
     0
 40
0.0
 41
1.0
 50
0.0
 71
     0
 42
6.35
  3
txt
  4

  0
STYLE
  5
207
330
3
100
AcDbSymbolTableRecord
100
AcDbTextStyleTableRecord
  2
SLDTEXTSTYLE0
 70
     0
 40
0.0
 41
0.7
 50
0.0
 71
     0
 42
6.35
  3
TXT
  4

  0
ENDTAB
  0
TABLE
  2
VIEW
  5
6
330
0
100
AcDbSymbolTable
 70
     0
  0
ENDTAB
  0
TABLE
  2
UCS
  5
7
330
0
100
AcDbSymbolTable
 70
     0
  0
ENDTAB
  0
TABLE
  2
APPID
  5
9
330
0
100
AcDbSymbolTable
 70
     1
  0
APPID
  5
12
330
9
100
AcDbSymbolTableRecord
100
AcDbRegAppTableRecord
  2
ACAD
 70
     0
  0
ENDTAB
  0
TABLE
  2
DIMSTYLE
  5
A
330
0
100
AcDbSymbolTable
 70
     1
100
AcDbDimStyleTable
  0
DIMSTYLE
105
27
330
A
100
AcDbSymbolTableRecord
100
AcDbDimStyleTableRecord
  2
ISO-25
 70
     0
 41
2.5
 42
0.625
 43
3.75
 44
1.25
 73
     0
 74
     0
 77
     1
 78
     8
140
2.5
141
2.5
143
0.0393700787
147
0.625
171
     3
172
     1
178
     0
271
     2
272
     2
274
     3
278
    44
283
     0
284
     8
340
11
  0
ENDTAB
  0
TABLE
  2
BLOCK_RECORD
  5
1
330
0
100
AcDbSymbolTable
 70
     1
  0
BLOCK_RECORD
  5
1F
330
1
100
AcDbSymbolTableRecord
100
AcDbBlockTableRecord
  2
*Model_Space
340
22
  0
BLOCK_RECORD
  5
1B
330
1
100
AcDbSymbolTableRecord
100
AcDbBlockTableRecord
  2
*Paper_Space
340
1E
  0
BLOCK_RECORD
  5
23
330
1
100
AcDbSymbolTableRecord
100
AcDbBlockTableRecord
  2
*Paper_Space0
340
26
  0
ENDTAB
  0
ENDSEC
  0
SECTION
  2
BLOCKS
  0
BLOCK
  5
20
330
1F
100
AcDbEntity
  8
0
100
AcDbBlockBegin
  2
*Model_Space
 70
     0
 10
0.0
 20
0.0
 30
0.0
  3
*Model_Space
  1

  0
ENDBLK
  5
21
330
1F
100
AcDbEntity
  8
0
100
AcDbBlockEnd
  0
BLOCK
  5
1C
330
1B
100
AcDbEntity
 67
     1
  8
0
100
AcDbBlockBegin
  2
*Paper_Space
 70
     0
 10
0.0
 20
0.0
 30
0.0
  3
*Paper_Space
  1

  0
ENDBLK
  5
1D
330
1B
100
AcDbEntity
 67
     1
  8
0
100
AcDbBlockEnd
  0
BLOCK
  5
24
330
23
100
AcDbEntity
  8
0
100
AcDbBlockBegin
  2
*Paper_Space0
 70
     0
 10
0.0
 20
0.0
 30
0.0
  3
*Paper_Space0
  1

  0
ENDBLK
  5
25
330
23
100
AcDbEntity
  8
0
100
AcDbBlockEnd
  0
ENDSEC
  0
SECTION
  2
ENTITIES
  0
CIRCLE
  5
65
330
1F
100
AcDbEntity
  8
0
100
AcDbCircle
 10
157.7535115905
 20
-1.0
 30
0.0
 40
1.27000000000001
  0
CIRCLE
  5
66
330
1F
100
AcDbEntity
  8
0
100
AcDbCircle
 10
184.0457635222
 20
-1.0
 30
0.0
 40
1.269999999999953
  0
CIRCLE
  5
67
330
1F
100
AcDbEntity
  8
0
100
AcDbCircle
 10
210.3380154539
 20
-1.0
 30
0.0
 40
1.269999999999982
  0
CIRCLE
  5
68
330
1F
100
AcDbEntity
  8
0
100
AcDbCircle
 10
236.6302673857
 20
-1.0
 30
0.0
 40
1.269999999999982
  0
CIRCLE
  5
69
330
1F
100
AcDbEntity
  8
0
100
AcDbCircle
 10
262.9225193174
 20
-1.0
 30
0.0
 40
1.269999999999925
  0
CIRCLE
  5
6A
330
1F
100
AcDbEntity
  8
0
100
AcDbCircle
 10
289.2147712492
 20
-1.0
 30
0.0
 40
1.269999999999982
  0
CIRCLE
  5
6B
330
1F
100
AcDbEntity
  8
0
100
AcDbCircle
 10
315.5070231809
 20
-1.0
 30
0.0
 40
1.269999999999982
  0
CIRCLE
  5
6C
330
1F
100
AcDbEntity
  8
0
100
AcDbCircle
 10
341.7992751126
 20
-1.0
 30
0.0
 40
1.269999999999982
  0
CIRCLE
  5
6D
330
1F
100
AcDbEntity
  8
0
100
AcDbCircle
 10
368.0915270444
 20
-1.0
 30
0.0
 40
1.269999999999925
  0
CIRCLE
  5
6E
330
1F
100
AcDbEntity
  8
0
100
AcDbCircle
 10
-262.9225193174
 20
-1.0
 30
0.0
 40
1.269999999999925
  0
CIRCLE
  5
6F
330
1F
100
AcDbEntity
  8
0
100
AcDbCircle
 10
-289.2147712492
 20
-1.0
 30
0.0
 40
1.269999999999925
  0
CIRCLE
  5
70
330
1F
100
AcDbEntity
  8
0
100
AcDbCircle
 10
-315.5070231809
 20
-1.0
 30
0.0
 40
1.269999999999982
  0
CIRCLE
  5
71
330
1F
100
AcDbEntity
  8
0
100
AcDbCircle
 10
-341.7992751126
 20
-1.0
 30
0.0
 40
1.269999999999982
  0
CIRCLE
  5
72
330
1F
100
AcDbEntity
  8
0
100
AcDbCircle
 10
-368.0915270444
 20
-1.0
 30
0.0
 40
1.269999999999925
  0
CIRCLE
  5
73
330
1F
100
AcDbEntity
  8
0
100
AcDbCircle
 10
-236.6302673857
 20
-1.0
 30
0.0
 40
1.269999999999982
  0
CIRCLE
  5
74
330
1F
100
AcDbEntity
  8
0
100
AcDbCircle
 10
-210.3380154539
 20
-1.0
 30
0.0
 40
1.269999999999953
  0
CIRCLE
  5
75
330
1F
100
AcDbEntity
  8
0
100
AcDbCircle
 10
-184.0457635222
 20
-1.0
 30
0.0
 40
1.270000000000039
  0
CIRCLE
  5
76
330
1F
100
AcDbEntity
  8
0
100
AcDbCircle
 10
-157.7535115905
 20
-1.0
 30
0.0
 40
1.27000000000001
  0
CIRCLE
  5
77
330
1F
100
AcDbEntity
  8
0
100
AcDbCircle
 10
131.4612596587
 20
-1.0
 30
0.0
 40
1.269999999999982
  0
CIRCLE
  5
78
330
1F
100
AcDbEntity
  8
0
100
AcDbCircle
 10
-131.4612596587
 20
-1.0
 30
0.0
 40
1.27000000000001
  0
CIRCLE
  5
79
330
1F
100
AcDbEntity
  8
0
100
AcDbCircle
 10
-105.169007727
 20
-1.0
 30
0.0
 40
1.269999999999968
  0
CIRCLE
  5
7A
330
1F
100
AcDbEntity
  8
0
100
AcDbCircle
 10
-78.8767557952
 20
-1.0
 30
0.0
 40
1.269999999999996
  0
CIRCLE
  5
7B
330
1F
100
AcDbEntity
  8
0
100
AcDbCircle
 10
-52.5845038635
 20
-1.0
 30
0.0
 40
1.269999999999996
  0
CIRCLE
  5
7C
330
1F
100
AcDbEntity
  8
0
100
AcDbCircle
 10
-26.2922519317
 20
-1.0
 30
0.0
 40
1.269999999999996
  0
CIRCLE
  5
7D
330
1F
100
AcDbEntity
  8
0
100
AcDbCircle
 10
0.0
 20
-1.0
 30
0.0
 40
1.269999999999998
  0
CIRCLE
  5
7E
330
1F
100
AcDbEntity
  8
0
100
AcDbCircle
 10
26.2922519317
 20
-1.0
 30
0.0
 40
1.27
  0
CIRCLE
  5
7F
330
1F
100
AcDbEntity
  8
0
100
AcDbCircle
 10
52.5845038635
 20
-1.0
 30
0.0
 40
1.270000000000003
  0
CIRCLE
  5
80
330
1F
100
AcDbEntity
  8
0
100
AcDbCircle
 10
78.8767557952
 20
-1.0
 30
0.0
 40
1.269999999999982
  0
CIRCLE
  5
81
330
1F
100
AcDbEntity
  8
0
100
AcDbCircle
 10
364.8
 20
121.247490026
 30
0.0
 40
1.269999999999982
  0
CIRCLE
  5
82
330
1F
100
AcDbEntity
  8
0
100
AcDbCircle
 10
304.8
 20
121.247490026
 30
0.0
 40
1.269999999999982
  0
CIRCLE
  5
83
330
1F
100
AcDbEntity
  8
0
100
AcDbCircle
 10
244.8
 20
121.247490026
 30
0.0
 40
1.269999999999982
  0
CIRCLE
  5
84
330
1F
100
AcDbEntity
  8
0
100
AcDbCircle
 10
184.8
 20
121.247490026
 30
0.0
 40
1.270000000000039
  0
CIRCLE
  5
85
330
1F
100
AcDbEntity
  8
0
100
AcDbCircle
 10
-364.8
 20
121.247490026
 30
0.0
 40
1.269999999999982
  0
CIRCLE
  5
86
330
1F
100
AcDbEntity
  8
0
100
AcDbCircle
 10
-304.8
 20
121.247490026
 30
0.0
 40
1.269999999999982
  0
CIRCLE
  5
87
330
1F
100
AcDbEntity
  8
0
100
AcDbCircle
 10
-244.8
 20
121.247490026
 30
0.0
 40
1.27000000000001
  0
CIRCLE
  5
88
330
1F
100
AcDbEntity
  8
0
100
AcDbCircle
 10
-184.8
 20
121.247490026
 30
0.0
 40
1.27000000000001
  0
CIRCLE
  5
89
330
1F
100
AcDbEntity
  8
0
100
AcDbCircle
 10
-120.0
 20
121.247490026
 30
0.0
 40
1.27000000000001
  0
CIRCLE
  5
8A
330
1F
100
AcDbEntity
  8
0
100
AcDbCircle
 10
-60.0
 20
121.247490026
 30
0.0
 40
1.269999999999996
  0
CIRCLE
  5
8B
330
1F
100
AcDbEntity
  8
0
100
AcDbCircle
 10
120.0
 20
121.247490026
 30
0.0
 40
1.269999999999968
  0
CIRCLE
  5
8C
330
1F
100
AcDbEntity
  8
0
100
AcDbCircle
 10
0.0
 20
121.247490026
 30
0.0
 40
1.26999999999999
  0
CIRCLE
  5
8D
330
1F
100
AcDbEntity
  8
0
100
AcDbCircle
 10
60.0
 20
121.247490026
 30
0.0
 40
1.270000000000003
  0
CIRCLE
  5
148
330
1F
100
AcDbEntity
  8
0
100
AcDbCircle
 10
105.169007727
 20
-1.0
 30
0.0
 40
1.27000000000001
  0
LINE
  5
149
330
1F
100
AcDbEntity
  8
0
100
AcDbLine
 10
54.8252489766
 20
25.473745013
 30
0.0
 11
54.8252489766
 21
76.6391581122
 31
0.0
  0
LINE
  5
14A
330
1F
100
AcDbEntity
  8
0
100
AcDbLine
 10
51.1607452849
 20
77.7479536119
 30
0.0
 11
17.0773244647
 21
26.5825405127
 31
0.0
  0
LINE
  5
14B
330
1F
100
AcDbEntity
  8
0
100
AcDbLine
 10
18.7418281564
 20
23.473745013
 30
0.0
 11
52.8252489766
 21
23.473745013
 31
0.0
  0
LINE
  5
14C
330
1F
100
AcDbEntity
  8
0
100
AcDbLine
 10
100.9086697968
 20
23.473745013
 30
0.0
 11
66.8252489766
 21
23.473745013
 31
0.0
  0
LINE
  5
14D
330
1F
100
AcDbEntity
  8
0
100
AcDbLine
 10
68.4897526684
 20
77.7479536119
 30
0.0
 11
102.5731734886
 21
26.5825405127
 31
0.0
  0
LINE
  5
14E
330
1F
100
AcDbEntity
  8
0
100
AcDbLine
 10
64.8252489766
 20
25.473745013
 30
0.0
 11
64.8252489766
 21
76.6391581122
 31
0.0
  0
LINE
  5
14F
330
1F
100
AcDbEntity
  8
0
100
AcDbLine
 10
72.8991571964
 20
94.773745013
 30
0.0
 11
106.9825780166
 21
94.773745013
 31
0.0
  0
LINE
  5
150
330
1F
100
AcDbEntity
  8
0
100
AcDbLine
 10
105.3180743249
 20
40.4995364141
 30
0.0
 11
71.2346535047
 21
91.6649495133
 31
0.0
  0
LINE
  5
151
330
1F
100
AcDbEntity
  8
0
100
AcDbLine
 10
108.9825780166
 20
92.773745013
 30
0.0
 11
108.9825780166
 21
41.6083319138
 31
0.0
  0
LINE
  5
152
330
1F
100
AcDbEntity
  8
0
100
AcDbLine
 10
152.0686697968
 20
23.473745013
 30
0.0
 11
117.9852489766
 21
23.473745013
 31
0.0
  0
LINE
  5
153
330
1F
100
AcDbEntity
  8
0
100
AcDbLine
 10
119.6497526684
 20
77.7479536119
 30
0.0
 11
153.7331734886
 21
26.5825405127
 31
0.0
  0
LINE
  5
154
330
1F
100
AcDbEntity
  8
0
100
AcDbLine
 10
115.9852489766
 20
25.473745013
 30
0.0
 11
115.9852489766
 21
76.6391581122
 31
0.0
  0
LINE
  5
155
330
1F
100
AcDbEntity
  8
0
100
AcDbLine
 10
-64.8252489766
 20
25.473745013
 30
0.0
 11
-64.8252489766
 21
76.6391581122
 31
0.0
  0
LINE
  5
156
330
1F
100
AcDbEntity
  8
0
100
AcDbLine
 10
-68.4897526684
 20
77.7479536119
 30
0.0
 11
-102.5731734886
 21
26.5825405127
 31
0.0
  0
LINE
  5
157
330
1F
100
AcDbEntity
  8
0
100
AcDbLine
 10
-100.9086697968
 20
23.473745013
 30
0.0
 11
-66.8252489766
 21
23.473745013
 31
0.0
  0
LINE
  5
158
330
1F
100
AcDbEntity
  8
0
100
AcDbLine
 10
-18.7418281564
 20
23.473745013
 30
0.0
 11
-52.8252489766
 21
23.473745013
 31
0.0
  0
LINE
  5
159
330
1F
100
AcDbEntity
  8
0
100
AcDbLine
 10
-51.1607452849
 20
77.7479536119
 30
0.0
 11
-17.0773244647
 21
26.5825405127
 31
0.0
  0
LINE
  5
15A
330
1F
100
AcDbEntity
  8
0
100
AcDbLine
 10
-54.8252489766
 20
25.473745013
 30
0.0
 11
-54.8252489766
 21
76.6391581122
 31
0.0
  0
LINE
  5
15B
330
1F
100
AcDbEntity
  8
0
100
AcDbLine
 10
-46.7513407568
 20
94.773745013
 30
0.0
 11
-12.6679199366
 21
94.773745013
 31
0.0
  0
LINE
  5
15C
330
1F
100
AcDbEntity
  8
0
100
AcDbLine
 10
-14.3324236284
 20
40.4995364141
 30
0.0
 11
-48.4158444486
 21
91.6649495133
 31
0.0
  0
LINE
  5
15D
330
1F
100
AcDbEntity
  8
0
100
AcDbLine
 10
-10.6679199366
 20
92.773745013
 30
0.0
 11
-10.6679199366
 21
41.6083319138
 31
0.0
  0
LINE
  5
15E
330
1F
100
AcDbEntity
  8
0
100
AcDbLine
 10
10.6679199366
 20
92.773745013
 30
0.0
 11
10.6679199366
 21
41.6083319138
 31
0.0
  0
LINE
  5
15F
330
1F
100
AcDbEntity
  8
0
100
AcDbLine
 10
14.3324236284
 20
40.4995364141
 30
0.0
 11
48.4158444486
 21
91.6649495133
 31
0.0
  0
LINE
  5
160
330
1F
100
AcDbEntity
  8
0
100
AcDbLine
 10
46.7513407568
 20
94.773745013
 30
0.0
 11
12.6679199366
 21
94.773745013
 31
0.0
  0
LINE
  5
161
330
1F
100
AcDbEntity
  8
0
100
AcDbLine
 10
258.7980743249
 20
40.4995364141
 30
0.0
 11
235.4290252885
 21
75.5807289385
 31
0.0
  0
LINE
  5
162
330
1F
100
AcDbEntity
  8
0
100
AcDbLine
 10
262.4625780166
 20
76.6895244382
 30
0.0
 11
262.4625780166
 21
41.6083319138
 31
0.0
  0
LINE
  5
163
330
1F
100
AcDbEntity
  8
0
100
AcDbLine
 10
237.0935289803
 20
78.6895244382
 30
0.0
 11
260.4625780166
 21
78.6895244382
 31
0.0
  0
LINE
  5
164
330
1F
100
AcDbEntity
  8
0
100
AcDbLine
 10
305.5486697968
 20
23.473745013
 30
0.0
 11
271.4652489766
 21
23.473745013
 31
0.0
  0
LINE
  5
165
330
1F
100
AcDbEntity
  8
0
100
AcDbLine
 10
273.1297526684
 20
77.7479536119
 30
0.0
 11
307.2131734886
 21
26.5825405127
 31
0.0
  0
LINE
  5
166
330
1F
100
AcDbEntity
  8
0
100
AcDbLine
 10
269.4652489766
 20
25.473745013
 30
0.0
 11
269.4652489766
 21
76.6391581122
 31
0.0
  0
LINE
  5
167
330
1F
100
AcDbEntity
  8
0
100
AcDbLine
 10
277.5391571964
 20
94.773745013
 30
0.0
 11
311.6225780166
 21
94.773745013
 31
0.0
  0
LINE
  5
168
330
1F
100
AcDbEntity
  8
0
100
AcDbLine
 10
309.9580743249
 20
40.4995364141
 30
0.0
 11
275.8746535047
 21
91.6649495133
 31
0.0
  0
LINE
  5
169
330
1F
100
AcDbEntity
  8
0
100
AcDbLine
 10
313.6225780166
 20
92.773745013
 30
0.0
 11
313.6225780166
 21
41.6083319138
 31
0.0
  0
LINE
  5
16A
330
1F
100
AcDbEntity
  8
0
100
AcDbLine
 10
356.7086697968
 20
23.473745013
 30
0.0
 11
322.6252489766
 21
23.473745013
 31
0.0
  0
LINE
  5
16B
330
1F
100
AcDbEntity
  8
0
100
AcDbLine
 10
324.2897526684
 20
77.7479536119
 30
0.0
 11
358.3731734886
 21
26.5825405127
 31
0.0
  0
LINE
  5
16C
330
1F
100
AcDbEntity
  8
0
100
AcDbLine
 10
320.6252489766
 20
25.473745013
 30
0.0
 11
320.6252489766
 21
76.6391581122
 31
0.0
  0
LINE
  5
16D
330
1F
100
AcDbEntity
  8
0
100
AcDbLine
 10
124.0591571964
 20
94.773745013
 30
0.0
 11
158.1425780166
 21
94.773745013
 31
0.0
  0
LINE
  5
16E
330
1F
100
AcDbEntity
  8
0
100
AcDbLine
 10
156.4780743249
 20
40.4995364141
 30
0.0
 11
122.3946535047
 21
91.6649495133
 31
0.0
  0
LINE
  5
16F
330
1F
100
AcDbEntity
  8
0
100
AcDbLine
 10
160.1425780166
 20
92.773745013
 30
0.0
 11
160.1425780166
 21
41.6083319138
 31
0.0
  0
LINE
  5
170
330
1F
100
AcDbEntity
  8
0
100
AcDbLine
 10
203.2286697968
 20
23.473745013
 30
0.0
 11
169.1452489766
 21
23.473745013
 31
0.0
  0
LINE
  5
171
330
1F
100
AcDbEntity
  8
0
100
AcDbLine
 10
170.8097526684
 20
77.7479536119
 30
0.0
 11
204.8931734886
 21
26.5825405127
 31
0.0
  0
LINE
  5
172
330
1F
100
AcDbEntity
  8
0
100
AcDbLine
 10
167.1452489766
 20
25.473745013
 30
0.0
 11
167.1452489766
 21
76.6391581122
 31
0.0
  0
LINE
  5
173
330
1F
100
AcDbEntity
  8
0
100
AcDbLine
 10
175.2191571964
 20
94.773745013
 30
0.0
 11
209.3025780166
 21
94.773745013
 31
0.0
  0
LINE
  5
174
330
1F
100
AcDbEntity
  8
0
100
AcDbLine
 10
207.6380743249
 20
40.4995364141
 30
0.0
 11
173.5546535047
 21
91.6649495133
 31
0.0
  0
LINE
  5
175
330
1F
100
AcDbEntity
  8
0
100
AcDbLine
 10
211.3025780166
 20
92.773745013
 30
0.0
 11
211.3025780166
 21
41.6083319138
 31
0.0
  0
LINE
  5
176
330
1F
100
AcDbEntity
  8
0
100
AcDbLine
 10
254.3886697968
 20
23.473745013
 30
0.0
 11
220.3052489766
 21
23.473745013
 31
0.0
  0
LINE
  5
177
330
1F
100
AcDbEntity
  8
0
100
AcDbLine
 10
221.9697526684
 20
77.7479536119
 30
0.0
 11
256.0531734886
 21
26.5825405127
 31
0.0
  0
LINE
  5
178
330
1F
100
AcDbEntity
  8
0
100
AcDbLine
 10
218.3052489766
 20
25.473745013
 30
0.0
 11
218.3052489766
 21
76.6391581122
 31
0.0
  0
LINE
  5
179
330
1F
100
AcDbEntity
  8
0
100
AcDbLine
 10
-313.6225780166
 20
92.773745013
 30
0.0
 11
-313.6225780166
 21
41.6083319138
 31
0.0
  0
LINE
  5
17A
330
1F
100
AcDbEntity
  8
0
100
AcDbLine
 10
-309.9580743249
 20
40.4995364141
 30
0.0
 11
-275.8746535047
 21
91.6649495133
 31
0.0
  0
LINE
  5
17B
330
1F
100
AcDbEntity
  8
0
100
AcDbLine
 10
-277.5391571964
 20
94.773745013
 30
0.0
 11
-311.6225780166
 21
94.773745013
 31
0.0
  0
LINE
  5
17C
330
1F
100
AcDbEntity
  8
0
100
AcDbLine
 10
-320.6252489766
 20
25.473745013
 30
0.0
 11
-320.6252489766
 21
76.6391581122
 31
0.0
  0
LINE
  5
17D
330
1F
100
AcDbEntity
  8
0
100
AcDbLine
 10
-324.2897526684
 20
77.7479536119
 30
0.0
 11
-358.3731734886
 21
26.5825405127
 31
0.0
  0
LINE
  5
17E
330
1F
100
AcDbEntity
  8
0
100
AcDbLine
 10
-356.7086697968
 20
23.473745013
 30
0.0
 11
-322.6252489766
 21
23.473745013
 31
0.0
  0
LINE
  5
17F
330
1F
100
AcDbEntity
  8
0
100
AcDbLine
 10
-327.0346535047
 20
91.6649495133
 30
0.0
 11
-337.3960881536
 21
76.1105517635
 31
0.0
  0
LINE
  5
180
330
1F
100
AcDbEntity
  8
0
100
AcDbLine
 10
-328.6991571964
 20
94.773745013
 30
0.0
 11
-362.7825780166
 21
94.773745013
 31
0.0
  0
LINE
  5
181
330
1F
100
AcDbEntity
  8
0
100
AcDbLine
 10
-364.7825780166
 20
77.773745013
 30
0.0
 11
-364.7825780166
 21
92.773745013
 31
0.0
  0
LINE
  5
182
330
1F
100
AcDbEntity
  8
0
100
AcDbLine
 10
-339.8928436912
 20
74.773745013
 30
0.0
 11
-361.7825780166
 21
74.773745013
 31
0.0
  0
LINE
  5
183
330
1F
100
AcDbEntity
  8
0
100
AcDbLine
 10
-350.3586697968
 20
62.0695046774
 30
0.0
 11
-350.3586697968
 21
56.1779853487
 31
0.0
  0
LINE
  5
184
330
1F
100
AcDbEntity
  8
0
100
AcDbLine
 10
-363.0586697968
 20
62.0695046774
 30
0.0
 11
-363.0586697968
 21
56.1779853487
 31
0.0
  0
LINE
  5
185
330
1F
100
AcDbEntity
  8
0
100
AcDbLine
 10
-167.1452489766
 20
25.473745013
 30
0.0
 11
-167.1452489766
 21
76.6391581122
 31
0.0
  0
LINE
  5
186
330
1F
100
AcDbEntity
  8
0
100
AcDbLine
 10
-170.8097526684
 20
77.7479536119
 30
0.0
 11
-204.8931734886
 21
26.5825405127
 31
0.0
  0
LINE
  5
187
330
1F
100
AcDbEntity
  8
0
100
AcDbLine
 10
-203.2286697968
 20
23.473745013
 30
0.0
 11
-169.1452489766
 21
23.473745013
 31
0.0
  0
LINE
  5
188
330
1F
100
AcDbEntity
  8
0
100
AcDbLine
 10
-160.1425780166
 20
92.773745013
 30
0.0
 11
-160.1425780166
 21
41.6083319138
 31
0.0
  0
LINE
  5
189
330
1F
100
AcDbEntity
  8
0
100
AcDbLine
 10
-156.4780743249
 20
40.4995364141
 30
0.0
 11
-122.3946535047
 21
91.6649495133
 31
0.0
  0
LINE
  5
18A
330
1F
100
AcDbEntity
  8
0
100
AcDbLine
 10
-124.0591571964
 20
94.773745013
 30
0.0
 11
-158.1425780166
 21
94.773745013
 31
0.0
  0
LINE
  5
18B
330
1F
100
AcDbEntity
  8
0
100
AcDbLine
 10
-115.9852489766
 20
25.473745013
 30
0.0
 11
-115.9852489766
 21
76.6391581122
 31
0.0
  0
LINE
  5
18C
330
1F
100
AcDbEntity
  8
0
100
AcDbLine
 10
-119.6497526684
 20
77.7479536119
 30
0.0
 11
-153.7331734886
 21
26.5825405127
 31
0.0
  0
LINE
  5
18D
330
1F
100
AcDbEntity
  8
0
100
AcDbLine
 10
-152.0686697968
 20
23.473745013
 30
0.0
 11
-117.9852489766
 21
23.473745013
 31
0.0
  0
LINE
  5
18E
330
1F
100
AcDbEntity
  8
0
100
AcDbLine
 10
-108.9825780166
 20
92.773745013
 30
0.0
 11
-108.9825780166
 21
41.6083319138
 31
0.0
  0
LINE
  5
18F
330
1F
100
AcDbEntity
  8
0
100
AcDbLine
 10
-105.3180743249
 20
40.4995364141
 30
0.0
 11
-71.2346535047
 21
91.6649495133
 31
0.0
  0
LINE
  5
190
330
1F
100
AcDbEntity
  8
0
100
AcDbLine
 10
-72.8991571964
 20
94.773745013
 30
0.0
 11
-106.9825780166
 21
94.773745013
 31
0.0
  0
LINE
  5
191
330
1F
100
AcDbEntity
  8
0
100
AcDbLine
 10
-269.4652489766
 20
25.473745013
 30
0.0
 11
-269.4652489766
 21
76.6391581122
 31
0.0
  0
LINE
  5
192
330
1F
100
AcDbEntity
  8
0
100
AcDbLine
 10
-273.1297526684
 20
77.7479536119
 30
0.0
 11
-307.2131734886
 21
26.5825405127
 31
0.0
  0
LINE
  5
193
330
1F
100
AcDbEntity
  8
0
100
AcDbLine
 10
-305.5486697968
 20
23.473745013
 30
0.0
 11
-271.4652489766
 21
23.473745013
 31
0.0
  0
LINE
  5
194
330
1F
100
AcDbEntity
  8
0
100
AcDbLine
 10
-262.4625780166
 20
92.773745013
 30
0.0
 11
-262.4625780166
 21
41.6083319138
 31
0.0
  0
LINE
  5
195
330
1F
100
AcDbEntity
  8
0
100
AcDbLine
 10
-258.7980743249
 20
40.4995364141
 30
0.0
 11
-224.7146535047
 21
91.6649495133
 31
0.0
  0
LINE
  5
196
330
1F
100
AcDbEntity
  8
0
100
AcDbLine
 10
-226.3791571964
 20
94.773745013
 30
0.0
 11
-260.4625780166
 21
94.773745013
 31
0.0
  0
LINE
  5
197
330
1F
100
AcDbEntity
  8
0
100
AcDbLine
 10
-218.3052489766
 20
25.473745013
 30
0.0
 11
-218.3052489766
 21
76.6391581122
 31
0.0
  0
LINE
  5
198
330
1F
100
AcDbEntity
  8
0
100
AcDbLine
 10
-221.9697526684
 20
77.7479536119
 30
0.0
 11
-256.0531734886
 21
26.5825405127
 31
0.0
  0
LINE
  5
199
330
1F
100
AcDbEntity
  8
0
100
AcDbLine
 10
-254.3886697968
 20
23.473745013
 30
0.0
 11
-220.3052489766
 21
23.473745013
 31
0.0
  0
LINE
  5
19A
330
1F
100
AcDbEntity
  8
0
100
AcDbLine
 10
-211.3025780166
 20
92.773745013
 30
0.0
 11
-211.3025780166
 21
41.6083319138
 31
0.0
  0
LINE
  5
19B
330
1F
100
AcDbEntity
  8
0
100
AcDbLine
 10
-207.6380743249
 20
40.4995364141
 30
0.0
 11
-173.5546535047
 21
91.6649495133
 31
0.0
  0
LINE
  5
19C
330
1F
100
AcDbEntity
  8
0
100
AcDbLine
 10
-175.2191571964
 20
94.773745013
 30
0.0
 11
-209.3025780166
 21
94.773745013
 31
0.0
  0
LINE
  5
19D
330
1F
100
AcDbEntity
  8
0
100
AcDbLine
 10
328.6991571964
 20
94.773745013
 30
0.0
 11
362.7825780166
 21
94.773745013
 31
0.0
  0
LINE
  5
19E
330
1F
100
AcDbEntity
  8
0
100
AcDbLine
 10
361.1180743249
 20
40.4995364141
 30
0.0
 11
327.0346535047
 21
91.6649495133
 31
0.0
  0
LINE
  5
19F
330
1F
100
AcDbEntity
  8
0
100
AcDbLine
 10
364.7825780166
 20
92.773745013
 30
0.0
 11
364.7825780166
 21
41.6083319138
 31
0.0
  0
LINE
  5
1A0
330
1F
100
AcDbEntity
  8
0
100
AcDbLine
 10
374.65
 20
125.247490026
 30
0.0
 11
-374.65
 21
125.247490026
 31
0.0
  0
LINE
  5
1A1
330
1F
100
AcDbEntity
  8
0
100
AcDbLine
 10
374.65
 20
125.247490026
 30
0.0
 11
374.65
 21
-6.0
 31
0.0
  0
LINE
  5
1A2
330
1F
100
AcDbEntity
  8
0
100
AcDbLine
 10
-374.65
 20
-6.0
 30
0.0
 11
374.65
 21
-6.0
 31
0.0
  0
LINE
  5
1A3
330
1F
100
AcDbEntity
  8
0
100
AcDbLine
 10
-374.65
 20
-6.0
 30
0.0
 11
-374.65
 21
125.247490026
 31
0.0
  0
LINE
  5
1A4
330
1F
100
AcDbEntity
  8
0
100
AcDbLine
 10
223.8093999144
 20
91.1587625292
 30
0.0
 11
223.8093999144
 21
96.5289086277
 31
0.0
  0
LINE
  5
1A5
330
1F
100
AcDbEntity
  8
0
100
AcDbLine
 10
235.0265999144
 20
91.1587625292
 30
0.0
 11
235.0265999144
 21
96.5289086277
 31
0.0
  0
LINE
  5
1A6
330
1F
100
AcDbEntity
  8
0
100
AcDbLine
 10
251.8093999144
 20
91.1587625292
 30
0.0
 11
251.8093999144
 21
96.5289086277
 31
0.0
  0
LINE
  5
1A7
330
1F
100
AcDbEntity
  8
0
100
AcDbLine
 10
263.0265999144
 20
91.1587625292
 30
0.0
 11
263.0265999144
 21
96.5289086277
 31
0.0
  0
ARC
  5
1A8
330
1F
100
AcDbEntity
  8
0
100
AcDbCircle
 10
52.8252489766
 20
25.473745013
 30
0.0
 40
1.999999999999986
100
AcDbArc
 50
270.0
 51
0.0
  0
ARC
  5
1A9
330
1F
100
AcDbEntity
  8
0
100
AcDbCircle
 10
52.8252489766
 20
76.6391581122
 30
0.0
 40
2.000000000000007
100
AcDbArc
 50
0.0
 51
146.3307566994
  0
ARC
  5
1AA
330
1F
100
AcDbEntity
  8
0
100
AcDbCircle
 10
18.7418281564
 20
25.473745013
 30
0.0
 40
2.000000000000014
100
AcDbArc
 50
146.3307566994
 51
270.0
  0
ARC
  5
1AB
330
1F
100
AcDbEntity
  8
0
100
AcDbCircle
 10
100.9086697968
 20
25.473745013
 30
0.0
 40
2.000000000000004
100
AcDbArc
 50
270.0
 51
33.6692433006
  0
ARC
  5
1AC
330
1F
100
AcDbEntity
  8
0
100
AcDbCircle
 10
66.8252489766
 20
76.6391581122
 30
0.0
 40
2.000000000000014
100
AcDbArc
 50
33.6692433006
 51
180.0
  0
ARC
  5
1AD
330
1F
100
AcDbEntity
  8
0
100
AcDbCircle
 10
66.8252489766
 20
25.473745013
 30
0.0
 40
1.999999999999986
100
AcDbArc
 50
180.0
 51
270.0
  0
ARC
  5
1AE
330
1F
100
AcDbEntity
  8
0
100
AcDbCircle
 10
72.8991571964
 20
92.773745013
 30
0.0
 40
1.999999999999986
100
AcDbArc
 50
90.0
 51
213.6692433006
  0
ARC
  5
1AF
330
1F
100
AcDbEntity
  8
0
100
AcDbCircle
 10
106.9825780166
 20
41.6083319138
 30
0.0
 40
2.0
100
AcDbArc
 50
213.6692433006
 51
0.0
  0
ARC
  5
1B0
330
1F
100
AcDbEntity
  8
0
100
AcDbCircle
 10
106.9825780166
 20
92.773745013
 30
0.0
 40
1.999999999999972
100
AcDbArc
 50
0.0
 51
90.0
  0
ARC
  5
1B1
330
1F
100
AcDbEntity
  8
0
100
AcDbCircle
 10
152.0686697968
 20
25.473745013
 30
0.0
 40
2.000000000000014
100
AcDbArc
 50
270.0
 51
33.6692433006
  0
ARC
  5
1B2
330
1F
100
AcDbEntity
  8
0
100
AcDbCircle
 10
117.9852489766
 20
76.6391581122
 30
0.0
 40
2.000000000000014
100
AcDbArc
 50
33.6692433006
 51
180.0
  0
ARC
  5
1B3
330
1F
100
AcDbEntity
  8
0
100
AcDbCircle
 10
117.9852489766
 20
25.473745013
 30
0.0
 40
2.0
100
AcDbArc
 50
180.0
 51
270.0
  0
ARC
  5
1B4
330
1F
100
AcDbEntity
  8
0
100
AcDbCircle
 10
-66.8252489766
 20
25.473745013
 30
0.0
 40
1.999999999999989
100
AcDbArc
 50
270.0
 51
0.0
  0
ARC
  5
1B5
330
1F
100
AcDbEntity
  8
0
100
AcDbCircle
 10
-66.8252489766
 20
76.6391581122
 30
0.0
 40
2.000000000000014
100
AcDbArc
 50
0.0
 51
146.3307566994
  0
ARC
  5
1B6
330
1F
100
AcDbEntity
  8
0
100
AcDbCircle
 10
-100.9086697968
 20
25.473745013
 30
0.0
 40
2.0
100
AcDbArc
 50
146.3307566994
 51
270.0
  0
ARC
  5
1B7
330
1F
100
AcDbEntity
  8
0
100
AcDbCircle
 10
-18.7418281564
 20
25.473745013
 30
0.0
 40
2.000000000000014
100
AcDbArc
 50
270.0
 51
33.6692433006
  0
ARC
  5
1B8
330
1F
100
AcDbEntity
  8
0
100
AcDbCircle
 10
-52.8252489766
 20
76.6391581122
 30
0.0
 40
2.000000000000021
100
AcDbArc
 50
33.6692433006
 51
180.0
  0
ARC
  5
1B9
330
1F
100
AcDbEntity
  8
0
100
AcDbCircle
 10
-52.8252489766
 20
25.473745013
 30
0.0
 40
1.999999999999996
100
AcDbArc
 50
180.0
 51
270.0
  0
ARC
  5
1BA
330
1F
100
AcDbEntity
  8
0
100
AcDbCircle
 10
-46.7513407568
 20
92.773745013
 30
0.0
 40
2.0
100
AcDbArc
 50
90.0
 51
213.6692433006
  0
ARC
  5
1BB
330
1F
100
AcDbEntity
  8
0
100
AcDbCircle
 10
-12.6679199366
 20
41.6083319138
 30
0.0
 40
2.0
100
AcDbArc
 50
213.6692433006
 51
0.0
  0
ARC
  5
1BC
330
1F
100
AcDbEntity
  8
0
100
AcDbCircle
 10
-12.6679199366
 20
92.773745013
 30
0.0
 40
2.000000000000014
100
AcDbArc
 50
0.0
 51
90.0
  0
ARC
  5
1BD
330
1F
100
AcDbEntity
  8
0
100
AcDbCircle
 10
12.6679199366
 20
92.773745013
 30
0.0
 40
2.000000000000014
100
AcDbArc
 50
90.0
 51
180.0
  0
ARC
  5
1BE
330
1F
100
AcDbEntity
  8
0
100
AcDbCircle
 10
12.6679199366
 20
41.6083319138
 30
0.0
 40
2.000000000000002
100
AcDbArc
 50
180.0
 51
326.3307566994
  0
ARC
  5
1BF
330
1F
100
AcDbEntity
  8
0
100
AcDbCircle
 10
46.7513407568
 20
92.773745013
 30
0.0
 40
2.000000000000002
100
AcDbArc
 50
326.3307566994
 51
90.0
  0
ARC
  5
1C0
330
1F
100
AcDbEntity
  8
0
100
AcDbCircle
 10
237.0935289803
 20
76.6895244382
 30
0.0
 40
2.000000000000004
100
AcDbArc
 50
90.0
 51
213.6692433006
  0
ARC
  5
1C1
330
1F
100
AcDbEntity
  8
0
100
AcDbCircle
 10
260.4625780166
 20
41.6083319138
 30
0.0
 40
2.000000000000099
100
AcDbArc
 50
213.6692433006
 51
0.0
  0
ARC
  5
1C2
330
1F
100
AcDbEntity
  8
0
100
AcDbCircle
 10
260.4625780166
 20
76.6895244382
 30
0.0
 40
2.000000000000057
100
AcDbArc
 50
0.0
 51
90.0
  0
ARC
  5
1C3
330
1F
100
AcDbEntity
  8
0
100
AcDbCircle
 10
305.5486697968
 20
25.473745013
 30
0.0
 40
2.000000000000036
100
AcDbArc
 50
270.0
 51
33.6692433006
  0
ARC
  5
1C4
330
1F
100
AcDbEntity
  8
0
100
AcDbCircle
 10
271.4652489766
 20
76.6391581122
 30
0.0
 40
2.000000000000057
100
AcDbArc
 50
33.6692433006
 51
180.0
  0
ARC
  5
1C5
330
1F
100
AcDbEntity
  8
0
100
AcDbCircle
 10
271.4652489766
 20
25.473745013
 30
0.0
 40
2.000000000000028
100
AcDbArc
 50
180.0
 51
270.0
  0
ARC
  5
1C6
330
1F
100
AcDbEntity
  8
0
100
AcDbCircle
 10
277.5391571964
 20
92.773745013
 30
0.0
 40
2.00000000000013
100
AcDbArc
 50
90.0
 51
213.6692433006
  0
ARC
  5
1C7
330
1F
100
AcDbEntity
  8
0
100
AcDbCircle
 10
311.6225780166
 20
41.6083319138
 30
0.0
 40
2.000000000000057
100
AcDbArc
 50
213.6692433006
 51
360.0
  0
ARC
  5
1C8
330
1F
100
AcDbEntity
  8
0
100
AcDbCircle
 10
311.6225780166
 20
92.773745013
 30
0.0
 40
2.000000000000071
100
AcDbArc
 50
0.0
 51
90.0
  0
ARC
  5
1C9
330
1F
100
AcDbEntity
  8
0
100
AcDbCircle
 10
356.7086697968
 20
25.473745013
 30
0.0
 40
2.000000000000064
100
AcDbArc
 50
270.0
 51
33.6692433006
  0
ARC
  5
1CA
330
1F
100
AcDbEntity
  8
0
100
AcDbCircle
 10
322.6252489766
 20
76.6391581122
 30
0.0
 40
2.000000000000057
100
AcDbArc
 50
33.6692433006
 51
180.0
  0
ARC
  5
1CB
330
1F
100
AcDbEntity
  8
0
100
AcDbCircle
 10
322.6252489766
 20
25.473745013
 30
0.0
 40
2.00000000000006
100
AcDbArc
 50
180.0
 51
270.0
  0
ARC
  5
1CC
330
1F
100
AcDbEntity
  8
0
100
AcDbCircle
 10
124.0591571964
 20
92.773745013
 30
0.0
 40
1.999999999999976
100
AcDbArc
 50
90.0
 51
213.6692433006
  0
ARC
  5
1CD
330
1F
100
AcDbEntity
  8
0
100
AcDbCircle
 10
158.1425780166
 20
41.6083319138
 30
0.0
 40
2.000000000000012
100
AcDbArc
 50
213.6692433006
 51
0.0
  0
ARC
  5
1CE
330
1F
100
AcDbEntity
  8
0
100
AcDbCircle
 10
158.1425780166
 20
92.773745013
 30
0.0
 40
2.0
100
AcDbArc
 50
0.0
 51
90.0
  0
ARC
  5
1CF
330
1F
100
AcDbEntity
  8
0
100
AcDbCircle
 10
203.2286697968
 20
25.473745013
 30
0.0
 40
1.999999999999979
100
AcDbArc
 50
270.0
 51
33.6692433006
  0
ARC
  5
1D0
330
1F
100
AcDbEntity
  8
0
100
AcDbCircle
 10
169.1452489766
 20
76.6391581122
 30
0.0
 40
2.0
100
AcDbArc
 50
33.6692433006
 51
180.0
  0
ARC
  5
1D1
330
1F
100
AcDbEntity
  8
0
100
AcDbCircle
 10
169.1452489766
 20
25.473745013
 30
0.0
 40
2.0
100
AcDbArc
 50
180.0
 51
270.0
  0
ARC
  5
1D2
330
1F
100
AcDbEntity
  8
0
100
AcDbCircle
 10
175.2191571964
 20
92.773745013
 30
0.0
 40
2.000000000000028
100
AcDbArc
 50
90.0
 51
213.6692433006
  0
ARC
  5
1D3
330
1F
100
AcDbEntity
  8
0
100
AcDbCircle
 10
209.3025780166
 20
41.6083319138
 30
0.0
 40
2.000000000000028
100
AcDbArc
 50
213.6692433006
 51
0.0
  0
ARC
  5
1D4
330
1F
100
AcDbEntity
  8
0
100
AcDbCircle
 10
209.3025780166
 20
92.773745013
 30
0.0
 40
2.000000000000085
100
AcDbArc
 50
0.0
 51
90.0
  0
ARC
  5
1D5
330
1F
100
AcDbEntity
  8
0
100
AcDbCircle
 10
254.3886697968
 20
25.473745013
 30
0.0
 40
1.999999999999972
100
AcDbArc
 50
270.0
 51
33.6692433006
  0
ARC
  5
1D6
330
1F
100
AcDbEntity
  8
0
100
AcDbCircle
 10
220.3052489766
 20
76.6391581122
 30
0.0
 40
2.000000000000028
100
AcDbArc
 50
33.6692433006
 51
180.0
  0
ARC
  5
1D7
330
1F
100
AcDbEntity
  8
0
100
AcDbCircle
 10
220.3052489766
 20
25.473745013
 30
0.0
 40
2.000000000000036
100
AcDbArc
 50
180.0
 51
270.0
  0
ARC
  5
1D8
330
1F
100
AcDbEntity
  8
0
100
AcDbCircle
 10
-311.6225780166
 20
92.773745013
 30
0.0
 40
2.000000000000057
100
AcDbArc
 50
90.0
 51
180.0
  0
ARC
  5
1D9
330
1F
100
AcDbEntity
  8
0
100
AcDbCircle
 10
-311.6225780166
 20
41.6083319138
 30
0.0
 40
2.000000000000063
100
AcDbArc
 50
180.0
 51
326.3307566994
  0
ARC
  5
1DA
330
1F
100
AcDbEntity
  8
0
100
AcDbCircle
 10
-277.5391571964
 20
92.773745013
 30
0.0
 40
2.000000000000036
100
AcDbArc
 50
326.3307566994
 51
90.0
  0
ARC
  5
1DB
330
1F
100
AcDbEntity
  8
0
100
AcDbCircle
 10
-322.6252489766
 20
25.473745013
 30
0.0
 40
2.000000000000064
100
AcDbArc
 50
270.0
 51
360.0
  0
ARC
  5
1DC
330
1F
100
AcDbEntity
  8
0
100
AcDbCircle
 10
-322.6252489766
 20
76.6391581122
 30
0.0
 40
2.00000000000006
100
AcDbArc
 50
0.0
 51
146.3307566994
  0
ARC
  5
1DD
330
1F
100
AcDbEntity
  8
0
100
AcDbCircle
 10
-356.7086697968
 20
25.473745013
 30
0.0
 40
2.000000000000057
100
AcDbArc
 50
146.3307566994
 51
270.0
  0
ARC
  5
1DE
330
1F
100
AcDbEntity
  8
0
100
AcDbCircle
 10
-339.8928436912
 20
77.773745013
 30
0.0
 40
3.000000000000002
100
AcDbArc
 50
270.0
 51
326.3307566994
  0
ARC
  5
1DF
330
1F
100
AcDbEntity
  8
0
100
AcDbCircle
 10
-328.6991571964
 20
92.773745013
 30
0.0
 40
2.0
100
AcDbArc
 50
326.3307566994
 51
90.0
  0
ARC
  5
1E0
330
1F
100
AcDbEntity
  8
0
100
AcDbCircle
 10
-362.7825780166
 20
92.773745013
 30
0.0
 40
1.999999999999943
100
AcDbArc
 50
90.0
 51
180.0
  0
ARC
  5
1E1
330
1F
100
AcDbEntity
  8
0
100
AcDbCircle
 10
-361.7825780166
 20
77.773745013
 30
0.0
 40
3.0
100
AcDbArc
 50
180.0
 51
270.0
  0
ARC
  5
1E2
330
1F
100
AcDbEntity
  8
0
100
AcDbCircle
 10
-356.7086697968
 20
59.123745013
 30
0.0
 40
7.000000000000438
100
AcDbArc
 50
204.8865457737
 51
335.1134542263
  0
ARC
  5
1E3
330
1F
100
AcDbEntity
  8
0
100
AcDbCircle
 10
-356.7086697968
 20
59.123745013
 30
0.0
 40
7.000000000000438
100
AcDbArc
 50
24.8865457737
 51
155.1134542263
  0
ARC
  5
1E4
330
1F
100
AcDbEntity
  8
0
100
AcDbCircle
 10
-169.1452489766
 20
25.473745013
 30
0.0
 40
2.0
100
AcDbArc
 50
270.0
 51
0.0
  0
ARC
  5
1E5
330
1F
100
AcDbEntity
  8
0
100
AcDbCircle
 10
-169.1452489766
 20
76.6391581122
 30
0.0
 40
2.000000000000012
100
AcDbArc
 50
0.0
 51
146.3307566994
  0
ARC
  5
1E6
330
1F
100
AcDbEntity
  8
0
100
AcDbCircle
 10
-203.2286697968
 20
25.473745013
 30
0.0
 40
2.000000000000008
100
AcDbArc
 50
146.3307566994
 51
270.0
  0
ARC
  5
1E7
330
1F
100
AcDbEntity
  8
0
100
AcDbCircle
 10
-158.1425780166
 20
92.773745013
 30
0.0
 40
2.000000000000028
100
AcDbArc
 50
90.0
 51
180.0
  0
ARC
  5
1E8
330
1F
100
AcDbEntity
  8
0
100
AcDbCircle
 10
-158.1425780166
 20
41.6083319138
 30
0.0
 40
2.000000000000008
100
AcDbArc
 50
180.0
 51
326.3307566994
  0
ARC
  5
1E9
330
1F
100
AcDbEntity
  8
0
100
AcDbCircle
 10
-124.0591571964
 20
92.773745013
 30
0.0
 40
1.999999999999986
100
AcDbArc
 50
326.3307566994
 51
90.0
  0
ARC
  5
1EA
330
1F
100
AcDbEntity
  8
0
100
AcDbCircle
 10
-117.9852489766
 20
25.473745013
 30
0.0
 40
1.999999999999986
100
AcDbArc
 50
270.0
 51
0.0
  0
ARC
  5
1EB
330
1F
100
AcDbEntity
  8
0
100
AcDbCircle
 10
-117.9852489766
 20
76.6391581122
 30
0.0
 40
2.000000000000028
100
AcDbArc
 50
0.0
 51
146.3307566994
  0
ARC
  5
1EC
330
1F
100
AcDbEntity
  8
0
100
AcDbCircle
 10
-152.0686697968
 20
25.473745013
 30
0.0
 40
2.000000000000042
100
AcDbArc
 50
146.3307566994
 51
270.0
  0
ARC
  5
1ED
330
1F
100
AcDbEntity
  8
0
100
AcDbCircle
 10
-106.9825780166
 20
92.773745013
 30
0.0
 40
2.0
100
AcDbArc
 50
90.0
 51
180.0
  0
ARC
  5
1EE
330
1F
100
AcDbEntity
  8
0
100
AcDbCircle
 10
-106.9825780166
 20
41.6083319138
 30
0.0
 40
2.000000000000004
100
AcDbArc
 50
180.0
 51
326.3307566994
  0
ARC
  5
1EF
330
1F
100
AcDbEntity
  8
0
100
AcDbCircle
 10
-72.8991571964
 20
92.773745013
 30
0.0
 40
1.999999999999977
100
AcDbArc
 50
326.3307566994
 51
90.0
  0
ARC
  5
1F0
330
1F
100
AcDbEntity
  8
0
100
AcDbCircle
 10
-271.4652489766
 20
25.473745013
 30
0.0
 40
2.000000000000028
100
AcDbArc
 50
270.0
 51
0.0
  0
ARC
  5
1F1
330
1F
100
AcDbEntity
  8
0
100
AcDbCircle
 10
-271.4652489766
 20
76.6391581122
 30
0.0
 40
2.000000000000052
100
AcDbArc
 50
0.0
 51
146.3307566994
  0
ARC
  5
1F2
330
1F
100
AcDbEntity
  8
0
100
AcDbCircle
 10
-305.5486697968
 20
25.473745013
 30
0.0
 40
2.000000000000004
100
AcDbArc
 50
146.3307566994
 51
270.0
  0
ARC
  5
1F3
330
1F
100
AcDbEntity
  8
0
100
AcDbCircle
 10
-260.4625780166
 20
92.773745013
 30
0.0
 40
2.000000000000114
100
AcDbArc
 50
90.0
 51
180.0
  0
ARC
  5
1F4
330
1F
100
AcDbEntity
  8
0
100
AcDbCircle
 10
-260.4625780166
 20
41.6083319138
 30
0.0
 40
2.000000000000071
100
AcDbArc
 50
180.0
 51
326.3307566994
  0
ARC
  5
1F5
330
1F
100
AcDbEntity
  8
0
100
AcDbCircle
 10
-226.3791571964
 20
92.773745013
 30
0.0
 40
1.999999999999972
100
AcDbArc
 50
326.3307566994
 51
90.0
  0
ARC
  5
1F6
330
1F
100
AcDbEntity
  8
0
100
AcDbCircle
 10
-220.3052489766
 20
25.473745013
 30
0.0
 40
2.000000000000057
100
AcDbArc
 50
270.0
 51
0.0
  0
ARC
  5
1F7
330
1F
100
AcDbEntity
  8
0
100
AcDbCircle
 10
-220.3052489766
 20
76.6391581122
 30
0.0
 40
2.000000000000012
100
AcDbArc
 50
0.0
 51
146.3307566994
  0
ARC
  5
1F8
330
1F
100
AcDbEntity
  8
0
100
AcDbCircle
 10
-254.3886697968
 20
25.473745013
 30
0.0
 40
1.999999999999936
100
AcDbArc
 50
146.3307566994
 51
270.0
  0
ARC
  5
1F9
330
1F
100
AcDbEntity
  8
0
100
AcDbCircle
 10
-209.3025780166
 20
92.773745013
 30
0.0
 40
2.0
100
AcDbArc
 50
90.0
 51
180.0
  0
ARC
  5
1FA
330
1F
100
AcDbEntity
  8
0
100
AcDbCircle
 10
-209.3025780166
 20
41.6083319138
 30
0.0
 40
2.00000000000004
100
AcDbArc
 50
180.0
 51
326.3307566994
  0
ARC
  5
1FB
330
1F
100
AcDbEntity
  8
0
100
AcDbCircle
 10
-175.2191571964
 20
92.773745013
 30
0.0
 40
2.00000000000002
100
AcDbArc
 50
326.3307566994
 51
90.0
  0
ARC
  5
1FC
330
1F
100
AcDbEntity
  8
0
100
AcDbCircle
 10
328.6991571964
 20
92.773745013
 30
0.0
 40
2.00000000000002
100
AcDbArc
 50
90.0
 51
213.6692433006
  0
ARC
  5
1FD
330
1F
100
AcDbEntity
  8
0
100
AcDbCircle
 10
362.7825780166
 20
41.6083319138
 30
0.0
 40
2.0
100
AcDbArc
 50
213.6692433006
 51
0.0
  0
ARC
  5
1FE
330
1F
100
AcDbEntity
  8
0
100
AcDbCircle
 10
362.7825780166
 20
92.773745013
 30
0.0
 40
2.000000000000057
100
AcDbArc
 50
0.0
 51
90.0
  0
ARC
  5
1FF
330
1F
100
AcDbEntity
  8
0
100
AcDbCircle
 10
229.4179999144
 20
93.8438355784
 30
0.0
 40
6.218200000000355
100
AcDbArc
 50
25.5824016105
 51
154.4175983896
  0
ARC
  5
200
330
1F
100
AcDbEntity
  8
0
100
AcDbCircle
 10
229.4179999144
 20
93.8438355784
 30
0.0
 40
6.218200000000355
100
AcDbArc
 50
205.5824016104
 51
334.4175983896
  0
ARC
  5
201
330
1F
100
AcDbEntity
  8
0
100
AcDbCircle
 10
257.4179999144
 20
93.8438355784
 30
0.0
 40
6.2182000000003
100
AcDbArc
 50
25.5824016105
 51
154.4175983896
  0
ARC
  5
202
330
1F
100
AcDbEntity
  8
0
100
AcDbCircle
 10
257.4179999144
 20
93.8438355784
 30
0.0
 40
6.218200000000384
100
AcDbArc
 50
205.5824016104
 51
334.4175983896
  0
LINE
  5
204
330
1F
100
AcDbEntity
  8
1
100
AcDbLine
 10
374.65
 20
4.7368725065
 30
0.0
 11
-374.65
 21
4.7368725065
 31
0.0
  0
LINE
  5
206
330
1F
100
AcDbEntity
  8
2
100
AcDbLine
 10
374.65
 20
113.5106175195
 30
0.0
 11
-374.65
 21
113.5106175195
 31
0.0
  0
MTEXT
  5
208
330
1F
100
AcDbEntity
  8
0
  6
Continuous
 62
     7
100
AcDbMText
 10
-374.65
 20
-7.0195663917
 30
0.0
 40
4.83362
 41
0.0
 71
     1
 72
     1
  1
SOLIDWORKS Maker Product.
  7
SLDTEXTSTYLE0
 73
     1
 44
1.0
  0
MTEXT
  5
209
330
1F
100
AcDbEntity
  8
0
  6
Continuous
 62
     7
100
AcDbMText
 10
-374.65
 20
-14.2699963917
 30
0.0
 40
4.83362
 41
0.0
 71
     1
 72
     1
  1
For Personal Use Only.
  7
SLDTEXTSTYLE0
 73
     1
 44
1.0
  0
ENDSEC
  0
SECTION
  2
OBJECTS
  0
DICTIONARY
  5
C
330
0
100
AcDbDictionary
281
     1
  3
ACAD_GROUP
350
D
  3
ACAD_LAYOUT
350
1A
  3
ACAD_MLINESTYLE
350
17
  3
ACAD_PLOTSETTINGS
350
19
  3
ACAD_PLOTSTYLENAME
350
E
  3
ACAD_SCALELIST
350
47
  3
DWGPROPS
350
20A
  0
DICTIONARY
  5
D
102
{ACAD_REACTORS
330
C
102
}
330
C
100
AcDbDictionary
281
     1
  0
DICTIONARY
  5
1A
102
{ACAD_REACTORS
330
C
102
}
330
C
100
AcDbDictionary
281
     1
  3
Layout1
350
1E
  3
Layout2
350
26
  3
Model
350
22
  0
DICTIONARY
  5
17
102
{ACAD_REACTORS
330
C
102
}
330
C
100
AcDbDictionary
281
     1
  3
Standard
350
18
  0
DICTIONARY
  5
19
102
{ACAD_REACTORS
330
C
102
}
330
C
100
AcDbDictionary
281
     1
  0
ACDBDICTIONARYWDFLT
  5
E
102
{ACAD_REACTORS
330
C
102
}
330
C
100
AcDbDictionary
281
     1
  3
Normal
350
F
100
AcDbDictionaryWithDefault
340
F
  0
DICTIONARY
  5
47
102
{ACAD_REACTORS
330
C
102
}
330
C
100
AcDbDictionary
281
     1
  3
A0
350
48
  3
A1
350
49
  3
A2
350
4A
  3
A3
350
4B
  3
A4
350
4C
  3
A5
350
4D
  3
A6
350
4E
  3
A7
350
4F
  3
A8
350
50
  3
A9
350
51
  3
B0
350
52
  3
B1
350
53
  3
B2
350
54
  3
B3
350
55
  3
B4
350
56
  3
B5
350
57
  3
B6
350
58
  0
XRECORD
  5
20A
102
{ACAD_REACTORS
330
C
102
}
330
C
100
AcDbXrecord
280
     1
  1
DWGPROPS COOKIE
  2

  3

  4

  6

  7

  8
george
  9

300
=
301
=
302
=
303
=
304
=
305
=
306
=
307
=
308
=
309
=
 40
0.0
 41
2459908.263263218
 42
2459908.263359364
  1

 90
        0
  0
LAYOUT
  5
1E
102
{ACAD_REACTORS
330
1A
102
}
330
1A
100
AcDbPlotSettings
  1

  2
none_device
  4

  6

 40
0.0
 41
0.0
 42
0.0
 43
0.0
 44
0.0
 45
0.0
 46
0.0
 47
0.0
 48
0.0
 49
0.0
140
0.0
141
0.0
142
1.0
143
1.0
 70
   688
 72
     1
 73
     0
 74
     5
  7

 75
    16
147
1.0
148
0.0
149
0.0
100
AcDbLayout
  1
Layout1
 70
     1
 71
     1
 10
0.0
 20
0.0
 11
420.0
 21
297.0
 12
0.0
 22
0.0
 32
0.0
 14
1.0000000000E+20
 24
1.0000000000E+20
 34
1.0000000000E+20
 15
-1.0000000000E+20
 25
-1.0000000000E+20
 35
-1.0000000000E+20
146
0.0
 13
0.0
 23
0.0
 33
0.0
 16
1.0
 26
0.0
 36
0.0
 17
0.0
 27
1.0
 37
0.0
 76
     0
330
1B
  0
LAYOUT
  5
26
102
{ACAD_REACTORS
330
1A
102
}
330
1A
100
AcDbPlotSettings
  1

  2
none_device
  4

  6

 40
0.0
 41
0.0
 42
0.0
 43
0.0
 44
0.0
 45
0.0
 46
0.0
 47
0.0
 48
0.0
 49
0.0
140
0.0
141
0.0
142
1.0
143
1.0
 70
   688
 72
     1
 73
     0
 74
     5
  7

 75
    16
147
1.0
148
0.0
149
0.0
100
AcDbLayout
  1
Layout2
 70
     1
 71
     2
 10
0.0
 20
0.0
 11
0.0
 21
0.0
 12
0.0
 22
0.0
 32
0.0
 14
0.0
 24
0.0
 34
0.0
 15
0.0
 25
0.0
 35
0.0
146
0.0
 13
0.0
 23
0.0
 33
0.0
 16
1.0
 26
0.0
 36
0.0
 17
0.0
 27
1.0
 37
0.0
 76
     0
330
23
  0
LAYOUT
  5
22
102
{ACAD_REACTORS
330
1A
102
}
330
1A
100
AcDbPlotSettings
  1

  2
none_device
  4
ANSI_A_(11.00_x_8.50_Inches)
  6

 40
6.35
 41
19.05
 42
6.35000508
 43
19.05000254
 44
279.4
 45
215.9
 46
133.34999746
 47
66.8897416727
 48
0.0
 49
0.0
140
0.0
141
0.0
142
0.0145335647
143
1.0
 70
  1696
 72
     0
 73
     0
 74
     0
  7

 75
     0
147
0.0179189148
148
-1300.4909072572
149
0.0
100
AcDbLayout
  1
Model
 70
     1
 71
     0
 10
0.0
 20
0.0
 11
420.0
 21
297.0
 12
0.0
 22
0.0
 32
0.0
 14
-374.65
 24
-6.0
 34
0.0
 15
374.65
 25
125.247490026
 35
0.0
146
0.0
 13
0.0
 23
0.0
 33
0.0
 16
1.0
 26
0.0
 36
0.0
 17
0.0
 27
1.0
 37
0.0
 76
     0
330
1F
331
29
  0
MLINESTYLE
  5
18
102
{ACAD_REACTORS
330
17
102
}
330
17
100
AcDbMlineStyle
  2
Standard
 70
     0
  3

 62
   256
 51
90.0
 52
90.0
 71
     2
 49
0.5
 62
   256
  6
BYLAYER
 49
-0.5
 62
   256
  6
BYLAYER
  0
ACDBPLACEHOLDER
  5
F
102
{ACAD_REACTORS
330
E
102
}
330
E
  0
SCALE
  5
48
102
{ACAD_REACTORS
330
47
102
}
330
47
100
AcDbScale
 70
     0
300
1:1
140
1.0
141
1.0
290
     1
  0
SCALE
  5
49
102
{ACAD_REACTORS
330
47
102
}
330
47
100
AcDbScale
 70
     0
300
1:2
140
1.0
141
2.0
290
     0
  0
SCALE
  5
4A
102
{ACAD_REACTORS
330
47
102
}
330
47
100
AcDbScale
 70
     0
300
1:4
140
1.0
141
4.0
290
     0
  0
SCALE
  5
4B
102
{ACAD_REACTORS
330
47
102
}
330
47
100
AcDbScale
 70
     0
300
1:5
140
1.0
141
5.0
290
     0
  0
SCALE
  5
4C
102
{ACAD_REACTORS
330
47
102
}
330
47
100
AcDbScale
 70
     0
300
1:8
140
1.0
141
8.0
290
     0
  0
SCALE
  5
4D
102
{ACAD_REACTORS
330
47
102
}
330
47
100
AcDbScale
 70
     0
300
1:10
140
1.0
141
10.0
290
     0
  0
SCALE
  5
4E
102
{ACAD_REACTORS
330
47
102
}
330
47
100
AcDbScale
 70
     0
300
1:16
140
1.0
141
16.0
290
     0
  0
SCALE
  5
4F
102
{ACAD_REACTORS
330
47
102
}
330
47
100
AcDbScale
 70
     0
300
1:20
140
1.0
141
20.0
290
     0
  0
SCALE
  5
50
102
{ACAD_REACTORS
330
47
102
}
330
47
100
AcDbScale
 70
     0
300
1:30
140
1.0
141
30.0
290
     0
  0
SCALE
  5
51
102
{ACAD_REACTORS
330
47
102
}
330
47
100
AcDbScale
 70
     0
300
1:40
140
1.0
141
40.0
290
     0
  0
SCALE
  5
52
102
{ACAD_REACTORS
330
47
102
}
330
47
100
AcDbScale
 70
     0
300
1:50
140
1.0
141
50.0
290
     0
  0
SCALE
  5
53
102
{ACAD_REACTORS
330
47
102
}
330
47
100
AcDbScale
 70
     0
300
1:100
140
1.0
141
100.0
290
     0
  0
SCALE
  5
54
102
{ACAD_REACTORS
330
47
102
}
330
47
100
AcDbScale
 70
     0
300
2:1
140
2.0
141
1.0
290
     0
  0
SCALE
  5
55
102
{ACAD_REACTORS
330
47
102
}
330
47
100
AcDbScale
 70
     0
300
4:1
140
4.0
141
1.0
290
     0
  0
SCALE
  5
56
102
{ACAD_REACTORS
330
47
102
}
330
47
100
AcDbScale
 70
     0
300
8:1
140
8.0
141
1.0
290
     0
  0
SCALE
  5
57
102
{ACAD_REACTORS
330
47
102
}
330
47
100
AcDbScale
 70
     0
300
10:1
140
10.0
141
1.0
290
     0
  0
SCALE
  5
58
102
{ACAD_REACTORS
330
47
102
}
330
47
100
AcDbScale
 70
     0
300
100:1
140
100.0
141
1.0
290
     0
  0
ENDSEC
  0
EOF
